<svg width="18" height="20" viewBox="0 0 18 20" fill="none" xmlns="http://www.w3.org/2000/svg">
<path d="M12.9159 0C13.0948 1.21486 12.6003 2.40503 11.948 3.24708C11.2501 4.15029 10.0472 4.84886 8.88168 4.8124C8.66892 3.64929 9.21368 2.45089 9.87651 1.6453C10.6036 0.756201 11.8498 0.0740913 12.9159 0ZM16.4177 17.0985C17.0185 16.1776 17.243 15.7131 17.7094 14.6735C14.3169 13.3833 13.7733 8.56035 17.1308 6.70925C16.1067 5.425 14.6676 4.68056 13.3093 4.68056C12.3305 4.68056 11.6599 4.93598 11.0502 5.16818C10.5421 5.36169 10.0764 5.53907 9.50996 5.53907C8.89784 5.53907 8.35578 5.34472 7.78819 5.14121C7.1645 4.91758 6.50998 4.68291 5.69781 4.68291C4.17342 4.68291 2.55083 5.61434 1.5221 7.20672C0.0760363 9.44945 0.322698 13.6656 2.66774 17.2573C3.50592 18.5427 4.62583 19.9869 6.0906 19.9998C6.69839 20.0058 7.10283 19.8244 7.5405 19.6281C8.04146 19.4035 8.58593 19.1592 9.52867 19.1542C10.477 19.1485 11.0128 19.3957 11.5071 19.6237C11.9336 19.8204 12.3291 20.0028 12.9317 19.9963C14.3976 19.9845 15.5795 18.3839 16.4177 17.0985Z" fill="#0B0B0A"/>
</svg>
