<svg width="24" height="24" viewBox="0 0 24 24" fill="none" xmlns="http://www.w3.org/2000/svg">
<path d="M19.125 12.75H4.5C4.08854 12.75 3.75 12.4115 3.75 12C3.75 11.5885 4.08854 11.25 4.5 11.25H19.125C19.5365 11.25 19.875 11.5885 19.875 12C19.875 12.4115 19.5365 12.75 19.125 12.75Z" fill="currentColor"/>
<path
  d="M14.0678 18.3593C13.8803 18.3593 13.6928 18.2916 13.547 18.151C13.2501 17.8593 13.2397 17.3853 13.5314 17.0885L18.4584 11.9999L13.5314 6.91137C13.2397 6.6145 13.2501 6.14054 13.547 5.84887C13.8439 5.56241 14.3178 5.57283 14.6043 5.8697L20.0366 11.4791C20.3178 11.7707 20.3178 12.2291 20.0366 12.5207L14.6043 18.1301C14.4584 18.2864 14.2657 18.3593 14.0678 18.3593Z" fill="currentColor"/>
</svg>
