<svg width="18" height="18" viewBox="0 0 18 18" fill="none" xmlns="http://www.w3.org/2000/svg">
<path d="M2 15.0007H14C14.5523 15.0007 15 14.553 15 14.0007V11.8081C15 11.5478 14.8985 11.2978 14.7171 11.1112L12.217 8.53841C11.8243 8.13437 11.1756 8.13429 10.7828 8.53824L9.67592 9.67674C9.25268 10.112 8.54236 10.0728 8.1696 9.5936L6.14848 6.99514C5.75311 6.48683 4.98738 6.47928 4.58206 6.97969L1.22292 11.127C1.0787 11.3051 1 11.5273 1 11.7564V14.0007C1 14.553 1.44772 15.0007 2 15.0007Z" fill="#141414"/>
<path fill-rule="evenodd" clip-rule="evenodd" d="M13 2H2V13H13V2ZM0 0V15H15V0H0Z" fill="#141414"/>
<path fill-rule="evenodd" clip-rule="evenodd" d="M17.75 4H16.25V16.25H4V17.75H17.75V4Z" fill="#141414"/>
<path d="M11 4.5C11 5.32843 10.3284 6 9.5 6C8.67157 6 8 5.32843 8 4.5C8 3.67157 8.67157 3 9.5 3C10.3284 3 11 3.67157 11 4.5Z" fill="currentColor"/>
</svg>
