<svg width="22" height="19" viewBox="0 0 22 19" fill="none" xmlns="http://www.w3.org/2000/svg">
<path fill-rule="evenodd" clip-rule="evenodd" d="M18.3505 11.5221C20.496 10.6077 22 8.47949 22 6C22 2.68629 19.3137 0 16 0H13C9.68629 0 7 2.68629 7 6C7 9.31371 9.68629 12 13 12H16L18 14V11.6586C18.1186 11.6167 18.2355 11.5711 18.3505 11.5221ZM16.691 10L17.3335 9.77291C18.8898 9.22284 20 7.7385 20 6C20 3.79086 18.2091 2 16 2H13C10.7909 2 9 3.79086 9 6C9 8.20914 10.7909 10 13 10H16.691Z" fill="#141414"/>
<path d="M6.3226 4C6.11302 4.68019 6 5.40426 6 6.15536C6 10.1074 9.12903 13.3112 12.9889 13.3112H14.8644L15.1446 13.5981C14.0382 15.5119 11.9695 16.7995 9.6 16.7995H6.64L4 18.9995V16.3343C1.65454 15.3849 0 13.0854 0 10.3995C0 6.89076 2.82364 4.04146 6.3226 4Z" fill="#141414"/>
</svg>
