<svg width="13" height="14" viewBox="0 0 13 14" fill="none" xmlns="http://www.w3.org/2000/svg">
<path
  d="M11.1853 7.68061L11.1746 2.64865L5.05266 3.68025C5.04861 8.28981 5.04659 10.9099 5.04659 11.5405L5.04077 11.5326C4.95203 12.9109 3.85883 14 2.52329 14C1.12972 14 0 12.8142 0 11.3514C0 9.88854 1.12972 8.7027 2.52329 8.7027C2.77381 8.7027 3.0158 8.74102 3.24423 8.81239V1.7027L12.9769 0C13.0077 6.85087 13.0077 10.3193 12.9769 10.4054L12.9711 10.398C12.8821 11.776 11.789 12.8649 10.4536 12.8649C9.06007 12.8649 7.93035 11.679 7.93035 10.2162C7.93035 8.75341 9.06007 7.56757 10.4536 7.56757C10.7081 7.56757 10.9537 7.60709 11.1853 7.68061Z" fill="currentColor"/>
</svg>
