<svg width="17" height="18" viewBox="0 0 17 18" fill="none" xmlns="http://www.w3.org/2000/svg">
<path d="M6.97121 2.33657L7.66496 2.11338V1.39995C7.66498 1.39963 7.665 1.39929 7.66503 1.39893C7.66579 1.3886 7.66785 1.36706 7.67279 1.33844C7.68346 1.27662 7.70299 1.20871 7.73221 1.1523C7.75902 1.10054 7.78543 1.07394 7.81129 1.05731C7.83259 1.0436 7.9088 1 8.09959 1C8.29037 1 8.36659 1.0436 8.38789 1.05731C8.41374 1.07394 8.44015 1.10054 8.46697 1.1523C8.49619 1.20871 8.51571 1.27662 8.52639 1.33844C8.53133 1.36706 8.53338 1.3886 8.53414 1.39893C8.53417 1.39929 8.53419 1.39963 8.53422 1.39995V2.11338L9.22796 2.33657C11.4033 3.03639 12.8381 4.98635 12.8381 7.14777V11.5805C12.8381 12.6186 13.2522 13.3378 13.7865 13.9077C14.0341 14.1717 14.3122 14.4092 14.5603 14.6191C14.5811 14.6367 14.6017 14.6541 14.6223 14.6715C14.8226 14.8408 15.0112 15.0003 15.1969 15.1732C15.2049 15.2629 15.1981 15.3919 15.1681 15.5279C15.1613 15.5589 15.1537 15.5882 15.1456 15.6154H9.53422H8.53422V16.6C8.53419 16.6004 8.53417 16.6007 8.53414 16.6011C8.53338 16.6114 8.53133 16.6329 8.52639 16.6616C8.51571 16.7234 8.49619 16.7913 8.46697 16.8477C8.44015 16.8995 8.41374 16.9261 8.38789 16.9427C8.36659 16.9564 8.29037 17 8.09959 17C7.9088 17 7.83259 16.9564 7.81129 16.9427C7.78543 16.9261 7.75902 16.8995 7.73221 16.8477C7.70299 16.7913 7.68346 16.7234 7.67279 16.6616C7.66785 16.6329 7.66579 16.6114 7.66503 16.6011C7.665 16.6007 7.66498 16.6004 7.66496 16.6V15.6154H6.66496H1.05437C1.04632 15.5882 1.03872 15.5589 1.03187 15.5279C1.00187 15.3919 0.995103 15.2629 1.00309 15.1732C1.18866 15.0004 1.37707 14.8411 1.57711 14.6719C1.59784 14.6544 1.61869 14.6368 1.63967 14.619C1.88772 14.409 2.16578 14.1715 2.41322 13.9075C2.9474 13.3375 3.36106 12.6184 3.36106 11.5805V7.14777C3.36106 4.98635 4.79591 3.03639 6.97121 2.33657ZM1.12345 15.7819C1.12341 15.7818 1.12338 15.7818 1.12334 15.7817L1.12345 15.7819Z" stroke="black" stroke-width="2"/>
</svg>
