<svg width="24" height="24" viewBox="0 0 24 24" fill="none" xmlns="http://www.w3.org/2000/svg">
<path d="M12 3.75C11.1224 3.75 10.6146 4.35156 10.3646 4.90625C9.01042 5.17969 6.65104 6.35937 6.35937 9.27865C6.25 11 6.04427 14.2057 4.89844 14.737C4.81771 14.7734 4.74479 14.8255 4.6849 14.888C4.58854 14.9818 3.75 15.8594 3.75 17.25C3.75 17.6641 4.08594 18 4.5 18H9.47135C9.61979 19.2656 10.6953 20.25 12 20.25C13.3047 20.25 14.3802 19.2656 14.5286 18H19.5C19.9141 18 20.25 17.6641 20.25 17.25C20.25 15.8594 19.4115 14.9818 19.3151 14.888C19.2552 14.8255 19.1823 14.7734 19.1016 14.737C17.9557 14.2057 17.75 11 17.638 9.25C17.3464 6.35417 14.987 5.17708 13.6354 4.90625C13.3854 4.35156 12.8776 3.75 12 3.75ZM12 5.25C12.2266 5.25 12.2865 5.48177 12.3333 5.72135C12.3984 6.07031 12.7057 6.34375 13.0703 6.34375C13.099 6.34375 15.8672 6.61979 16.1432 9.375C16.3333 12.349 16.6458 15.0938 18.3151 16.0182C18.3854 16.1094 18.5 16.276 18.5938 16.5H5.40625C5.5 16.2734 5.61719 16.1068 5.6849 16.0208C7.35417 15.0964 7.66667 12.3516 7.85417 9.40104C8.13281 6.61979 10.901 6.34375 10.9297 6.34375C11.2865 6.34375 11.6016 6.0599 11.6667 5.72917C11.7109 5.4974 11.7734 5.25 12 5.25ZM11 18H13C12.8698 18.4323 12.474 18.75 12 18.75C11.526 18.75 11.1302 18.4323 11 18Z" fill="#141414"/>
</svg>
