<svg width="18" height="20" viewBox="0 0 18 20" fill="none" xmlns="http://www.w3.org/2000/svg">
<path d="M7.71176 2.49041L8.40551 2.26722V1.55186C8.4056 1.55036 8.40572 1.54846 8.40589 1.54616C8.40697 1.53163 8.40964 1.50407 8.41583 1.46825C8.42899 1.39201 8.4535 1.30486 8.49268 1.22923C8.52946 1.15823 8.57081 1.11241 8.61909 1.08135C8.6628 1.05322 8.7689 1 8.99954 1C9.23018 1 9.33628 1.05322 9.38 1.08135C9.42827 1.11241 9.46962 1.15823 9.5064 1.22923C9.54558 1.30486 9.57009 1.39201 9.58325 1.46825C9.58944 1.50407 9.59211 1.53163 9.59319 1.54616C9.59336 1.54846 9.59348 1.55036 9.59358 1.55186V2.26722L10.2873 2.49041C12.7482 3.28211 14.3757 5.49002 14.3757 7.94197V12.8672C14.3757 13.986 14.82 14.759 15.3994 15.377C15.6695 15.665 15.9739 15.925 16.2499 16.1586C16.2731 16.1783 16.2962 16.1978 16.3192 16.2172C16.5518 16.4139 16.7728 16.6007 16.991 16.8057C16.9922 16.8139 16.9934 16.8231 16.9946 16.8335C17.0069 16.9472 16.999 17.1091 16.962 17.2772C16.9459 17.3502 16.9271 17.4118 16.9087 17.4615H10.5936H9.59358V18.4481C9.59348 18.4496 9.59336 18.4515 9.59319 18.4538C9.59211 18.4684 9.58944 18.4959 9.58325 18.5318C9.57009 18.608 9.54558 18.6951 9.5064 18.7708C9.46962 18.8418 9.42827 18.8876 9.38 18.9187C9.33628 18.9468 9.23018 19 8.99954 19C8.7689 19 8.6628 18.9468 8.61909 18.9187C8.57081 18.8876 8.52946 18.8418 8.49268 18.7708C8.4535 18.6951 8.42899 18.608 8.41583 18.5318C8.40964 18.4959 8.40697 18.4684 8.40589 18.4538C8.40572 18.4515 8.4056 18.4496 8.40551 18.4481V17.4615H7.40551H1.09134C1.07295 17.4118 1.05414 17.3502 1.03802 17.2772C1.00095 17.1091 0.993067 16.9472 1.00542 16.8335C1.00655 16.8231 1.00778 16.8139 1.00901 16.8057C1.22708 16.6008 1.44781 16.4142 1.6802 16.2176C1.70337 16.198 1.72666 16.1783 1.75007 16.1585C2.02607 15.9249 2.33033 15.6649 2.60028 15.3768C3.17948 14.7587 3.62341 13.9857 3.62341 12.8672V7.94197C3.62341 5.49001 5.25088 3.28211 7.71176 2.49041ZM16.8354 17.6091C16.8354 17.609 16.8361 17.608 16.8377 17.6061C16.8362 17.6082 16.8354 17.6091 16.8354 17.6091ZM1.16462 17.6091C1.16462 17.6091 1.16384 17.6082 1.16228 17.6061C1.16385 17.608 1.16463 17.609 1.16462 17.6091Z" stroke="black" stroke-width="2"/>
</svg>
