<svg width="24" height="24" viewBox="0 0 24 24" fill="none" xmlns="http://www.w3.org/2000/svg">
<path d="M9.67969 18.75H14.3203C13.9193 19.6328 13.0312 20.25 12 20.25C10.9688 20.25 10.0807 19.6328 9.67969 18.75ZM19.3151 14.888C19.4115 14.9818 20.25 15.8594 20.25 17.25C20.25 17.6641 19.9141 18 19.5 18H4.5C4.08594 18 3.75 17.6641 3.75 17.25C3.75 15.8594 4.58854 14.9818 4.6849 14.888C4.74479 14.8255 4.81771 14.7734 4.89844 14.737C6.04427 14.2057 6.25 11 6.35937 9.27865C6.65104 6.35937 9.01042 5.17708 10.3646 4.90625C10.6146 4.35156 11.1224 3.75 12 3.75C12.8776 3.75 13.3854 4.35156 13.6354 4.90625C14.987 5.17708 17.3464 6.35417 17.638 9.25C17.75 11 17.9557 14.2057 19.1016 14.737C19.1797 14.7734 19.2552 14.8255 19.3151 14.888Z" fill="#141414"/>
</svg>
