<svg viewBox="0 0 18 18" fill="none" xmlns="http://www.w3.org/2000/svg">
<path
  d="M9 0.75C8.1224 0.75 7.61458 1.35156 7.36458 1.90625C6.01042 2.17969 3.65104 3.35937 3.35937 6.27865C3.25 8 3.04427 11.2057 1.89844 11.737C1.81771 11.7734 1.74479 11.8255 1.6849 11.888C1.58854 11.9818 0.75 12.8594 0.75 14.25C0.75 14.6641 1.08594 15 1.5 15H6.47135C6.61979 16.2656 7.69531 17.25 9 17.25C10.3047 17.25 11.3802 16.2656 11.5286 15H16.5C16.9141 15 17.25 14.6641 17.25 14.25C17.25 12.8594 16.4115 11.9818 16.3151 11.888C16.2552 11.8255 16.1823 11.7734 16.1016 11.737C14.9557 11.2057 14.75 8 14.638 6.25C14.3464 3.35417 11.987 2.17708 10.6354 1.90625C10.3854 1.35156 9.8776 0.75 9 0.75ZM9 2.25C9.22656 2.25 9.28646 2.48177 9.33333 2.72135C9.39844 3.07031 9.70573 3.34375 10.0703 3.34375C10.099 3.34375 12.8672 3.61979 13.1432 6.375C13.3333 9.34896 13.6458 12.0938 15.3151 13.0182C15.3854 13.1094 15.5 13.276 15.5938 13.5H2.40625C2.5 13.2734 2.61719 13.1068 2.6849 13.0208C4.35417 12.0964 4.66667 9.35156 4.85417 6.40104C5.13281 3.61979 7.90104 3.34375 7.92969 3.34375C8.28646 3.34375 8.60156 3.0599 8.66667 2.72917C8.71094 2.4974 8.77344 2.25 9 2.25ZM8 15H10C9.86979 15.4323 9.47396 15.75 9 15.75C8.52604 15.75 8.13021 15.4323 8 15Z" fill="currentColor"/>
</svg>
