<svg width="24" height="24" viewBox="0 0 24 24" fill="none" xmlns="http://www.w3.org/2000/svg">
<path d="M5.62341 9.94197C5.62341 7.03661 7.54968 4.45722 10.4055 3.53846C10.4055 3.53846 10.4055 2 11.9995 2C13.5936 2 13.5936 3.53846 13.5936 3.53846C16.4494 4.45722 18.3757 7.03661 18.3757 9.94197V14.8672C18.3757 16.4791 19.587 17.0249 20.7679 18.1647C21.2637 18.6432 20.9125 20.4615 20.2113 20.4615H13.5936C13.5936 20.4615 13.5936 22 11.9995 22C10.4055 22 10.4055 20.4615 10.4055 20.4615H3.78871C3.08745 20.4615 2.73626 18.6432 3.23212 18.1647C4.41304 17.0249 5.62341 16.4791 5.62341 14.8672V9.94197Z" fill="white"/>
</svg>
