<svg width="24" height="24" viewBox="0 0 24 24" fill="none" xmlns="http://www.w3.org/2000/svg">
<path d="M15.4297 5.25H8.57031C8.39323 5.25 8.25 5.39323 8.25 5.57031V17.7057C8.25 17.8151 8.38281 17.8724 8.46354 17.7943L11.6719 14.6823C11.8542 14.5052 12.1458 14.5052 12.3281 14.6823L15.5365 17.7943C15.6172 17.8724 15.75 17.8151 15.75 17.7057V5.57031C15.75 5.39323 15.6068 5.25 15.4297 5.25ZM15.4297 3.75C16.4349 3.75 17.25 4.5651 17.25 5.57031V19.6172C17.25 20.3385 16.3828 20.7057 15.8646 20.2031L12 16.4531L8.13542 20.2031C7.61719 20.7057 6.75 20.3385 6.75 19.6172V5.57031C6.75 4.5651 7.5651 3.75 8.57031 3.75H15.4297Z" fill="#141414"/>
</svg>
