<svg width="12" height="18" viewBox="0 0 12 18" fill="none" xmlns="http://www.w3.org/2000/svg">
<path d="M9.42969 2.25H2.57031C2.39323 2.25 2.25 2.39323 2.25 2.57031V14.7057C2.25 14.8151 2.38281 14.8724 2.46354 14.7943L5.67188 11.6823C5.85417 11.5052 6.14583 11.5052 6.32812 11.6823L9.53646 14.7943C9.61719 14.8724 9.75 14.8151 9.75 14.7057V2.57031C9.75 2.39323 9.60677 2.25 9.42969 2.25ZM9.42969 0.75C10.4349 0.75 11.25 1.5651 11.25 2.57031V16.6172C11.25 17.3385 10.3828 17.7057 9.86458 17.2031L6 13.4531L2.13542 17.2031C1.61719 17.7057 0.75 17.3385 0.75 16.6172V2.57031C0.75 1.5651 1.5651 0.75 2.57031 0.75H9.42969Z" fill="#141414"/>
</svg>
