<svg width="12" height="16" viewBox="0 0 12 16" fill="none" xmlns="http://www.w3.org/2000/svg">
<path
		d="M1.53002 16C1.95461 16 2.22981 15.7959 2.89814 15.1909L5.93317 12.4064C5.96462 12.3699 6.03538 12.3699 6.06683 12.4064L9.10972 15.1909C9.77806 15.7959 10.0454 16 10.4778 16C11.1069 16 11.5 15.5991 11.5 14.9431V2.21595C11.5 0.765376 10.6823 0 9.13331 0H2.86669C1.31773 0 0.5 0.765376 0.5 2.21595V14.9431C0.5 15.5991 0.893138 16 1.53002 16ZM2.27698 13.6018C2.17477 13.6966 2.04896 13.6674 2.04896 13.5289V2.31071C2.04896 1.72756 2.36347 1.44328 2.99249 1.44328H9.00751C9.63653 1.44328 9.95104 1.72756 9.95104 2.31071V13.5289C9.95104 13.6674 9.83309 13.6966 9.72302 13.6018L6.52287 10.7298C6.19264 10.4237 5.81523 10.4237 5.47713 10.7298L2.27698 13.6018Z" fill="#000"/>
</svg>
