<svg width="28" height="28" viewBox="0 0 28 28" fill="none" xmlns="http://www.w3.org/2000/svg">
<rect x="1" y="1" width="26" height="26" stroke="black" stroke-width="2"/>
<path d="M11.9043 20.7354C12.168 21.19 12.5465 21.5673 13.002 21.8296C13.4574 22.092 13.9737 22.23 14.4993 22.23C15.0249 22.23 15.5412 22.092 15.9966 21.8296C16.4521 21.5673 16.8306 21.19 17.0943 20.7354H11.9043Z" fill="black"/>
<path d="M20.7325 15.2479L20.4062 14.9851C20.3185 14.9148 20.2477 14.8257 20.1991 14.7244C20.1504 14.623 20.1251 14.512 20.125 14.3995V11.3666C20.1246 10.0632 19.6724 8.80032 18.8456 7.79338C18.0188 6.78644 16.8686 6.09781 15.5912 5.84495C15.529 5.60314 15.3882 5.38892 15.191 5.23596C14.9937 5.083 14.7513 5 14.5019 5C14.2524 5 14.01 5.083 13.8128 5.23596C13.6156 5.38892 13.4748 5.60314 13.4125 5.84495C12.1344 6.09705 10.9834 6.78535 10.1558 7.79236C9.32832 8.79937 8.87561 10.0627 8.875 11.3666V14.3995C8.87493 14.512 8.84962 14.623 8.80094 14.7244C8.75226 14.8257 8.68145 14.9148 8.59375 14.9851L8.2675 15.2479C7.87348 15.5632 7.55509 15.9629 7.33574 16.4176C7.11639 16.8723 7.00166 17.3705 7 17.8754V18.4985C7 18.8967 7.15804 19.2787 7.43934 19.5602C7.72064 19.8418 8.10218 20 8.5 20H20.5C20.8978 20 21.2794 19.8418 21.5607 19.5602C21.842 19.2787 22 18.8967 22 18.4985V17.8829C21.9995 17.3767 21.8853 16.8771 21.6659 16.421C21.4465 15.9649 21.1275 15.564 20.7325 15.2479Z" fill="black"/>
</svg>
