<?xml version="1.0" encoding="utf-8"?>
<svg width="28" height="28" viewBox="0 0 28 28" fill="none" xmlns="http://www.w3.org/2000/svg">
  <rect x="1" y="1" width="26" height="26" stroke="black" stroke-width="2"/>
  <path d="M11.9043 20.7354C12.168 21.19 12.5465 21.5673 13.002 21.8296C13.4574 22.092 13.9737 22.23 14.4993 22.23C15.0249 22.23 15.5412 22.092 15.9966 21.8296C16.4521 21.5673 16.8306 21.19 17.0943 20.7354H11.9043Z" fill="black"/>
  <path d="M 11.871 20.758 C 12.138 21.213 12.521 21.59 12.981 21.853 C 13.442 22.115 13.965 22.253 14.496 22.253 C 15.028 22.253 15.55 22.115 16.011 21.853 C 16.472 21.59 16.855 21.213 17.122 20.758 L 11.871 20.758 Z" fill="black"/>
  <path d="M 18.582 7.476 C 17.776 6.652 16.736 6.091 15.599 5.867 C 15.536 5.626 15.394 5.412 15.194 5.259 C 14.995 5.106 14.75 5.023 14.497 5.023 C 14.245 5.023 14 5.106 13.8 5.259 C 13.601 5.412 13.458 5.626 13.395 5.867 C 12.102 6.119 10.938 6.807 10.1 7.813 C 9.263 8.819 8.805 10.081 8.804 11.384 L 8.804 14.414 C 8.804 14.526 8.779 14.637 8.73 14.738 C 8.68 14.839 8.609 14.928 8.52 14.999 L 8.19 15.261 C 7.791 15.576 7.469 15.975 7.247 16.43 C 7.025 16.884 6.909 17.382 6.907 17.886 L 6.907 18.509 C 6.91 18.655 6.934 18.801 6.98 18.94 L 18.582 7.476 Z" fill="black"/>
  <path d="M 20.803 15.262 L 20.473 14.999 C 20.384 14.929 20.312 14.84 20.263 14.739 C 20.214 14.637 20.188 14.527 20.188 14.414 L 20.188 11.384 C 20.188 10.529 19.99 9.684 19.608 8.917 C 16.462 12.157 11.397 17.152 8.366 20.009 L 8.427 20.009 L 20.567 20.009 C 20.97 20.009 21.356 19.851 21.641 19.57 C 21.925 19.289 22.085 18.907 22.085 18.509 L 22.085 17.894 C 22.084 17.389 21.969 16.889 21.747 16.434 C 21.525 15.978 21.202 15.578 20.803 15.262 Z" fill="black"/>
  <path d="M 6.909 21.883 C 6.759 21.883 6.613 21.838 6.489 21.756 C 6.365 21.674 6.268 21.557 6.211 21.42 C 6.154 21.283 6.138 21.133 6.168 20.988 C 6.197 20.843 6.268 20.709 6.374 20.605 L 20.791 6.354 C 20.933 6.214 21.126 6.135 21.328 6.135 C 21.529 6.135 21.722 6.214 21.865 6.354 C 22.007 6.495 22.087 6.686 22.087 6.885 C 22.087 7.084 22.007 7.275 21.865 7.416 L 7.447 21.666 C 7.377 21.735 7.292 21.79 7.2 21.828 C 7.108 21.865 7.009 21.884 6.909 21.883 Z" fill="black"/>
</svg>
