<svg width="20" height="20" viewBox="0 0 20 20" fill="none" xmlns="http://www.w3.org/2000/svg">
<path d="M14.0287 1.11303e-08H11.4833C10.2582 -7.574e-05 9.06438 0.386513 8.07182 1.10475C7.07926 1.82299 6.33897 2.83615 5.95618 4.00001H5.818C4.27493 4.00001 2.79513 4.61294 1.70405 5.70406C0.612932 6.79518 0 8.27506 0 9.81801V10.9089C0.000530297 11.7805 0.196883 12.6408 0.574533 13.4262C0.952183 14.2117 1.50141 14.9023 2.18177 15.447V19.2724C2.1817 19.4752 2.26624 19.6688 2.4151 19.8065C2.56396 19.9442 2.76358 20.0136 2.9657 19.9978C3.16789 19.982 3.35432 19.8824 3.47994 19.7233L5.81802 16.727H8.36342C9.58787 16.7263 10.781 16.3393 11.7726 15.6211C12.7642 14.903 13.5042 13.8902 13.8869 12.727H14.0142L16.3631 15.7233C16.4882 15.8846 16.6752 15.9858 16.8785 16.0024C17.0819 16.019 17.2829 15.9493 17.4324 15.8105C17.5819 15.6717 17.6663 15.4765 17.6649 15.2725V11.4471C18.3453 10.9024 18.8945 10.2118 19.2721 9.42628C19.6498 8.64084 19.8461 7.78056 19.8467 6.909V5.81811C19.8467 4.79685 19.5778 3.79362 19.0672 2.90908C18.5565 2.02464 17.8221 1.29017 16.9376 0.77948C16.0532 0.268887 15.0499 3.49299e-05 14.0286 3.49299e-05L14.0287 1.11303e-08ZM8.3635 15.2724H5.54174C5.30273 15.2571 5.07152 15.3605 4.92357 15.5488L3.63632 17.1705V15.0834C3.63595 14.8455 3.51913 14.6227 3.3236 14.4871C2.74696 14.0852 2.27583 13.5501 1.95045 12.9272C1.625 12.3041 1.45492 11.6118 1.45455 10.9089V9.81799C1.45455 8.66074 1.91432 7.55089 2.73263 6.73248C3.55094 5.91417 4.66085 5.45441 5.81814 5.45441H8.36354C9.52079 5.45441 10.6306 5.91417 11.449 6.73248C12.2674 7.55079 12.7271 8.6607 12.7271 9.81799V10.9089C12.7271 12.0661 12.2674 13.176 11.449 13.9944C10.6307 14.8127 9.52083 15.2725 8.36354 15.2725L8.3635 15.2724ZM18.3923 6.90894C18.3915 7.61211 18.2208 8.30468 17.8948 8.92762C17.5687 9.55056 17.0969 10.0856 16.5196 10.487C16.3254 10.6234 16.2101 10.846 16.2105 11.0833V13.1705L14.9087 11.5341C14.7608 11.3459 14.5296 11.2425 14.2905 11.2578H14.1815V10.8941V9.8178C14.1815 8.79654 13.9126 7.79331 13.402 6.90877C12.8913 6.02433 12.1569 5.28986 11.2724 4.77917C10.388 4.26857 9.38464 3.99972 8.36338 3.99972H7.51612C7.86429 3.24011 8.42321 2.5965 9.12646 2.14529C9.82971 1.69401 10.6477 1.45424 11.4834 1.45432H14.0288C15.186 1.45432 16.2959 1.91408 17.1143 2.73239C17.9326 3.5507 18.3923 4.66061 18.3923 5.8179L18.3923 6.90894Z" fill="black"/>
</svg>
