<svg width="24" height="24" viewBox="0 0 24 24" fill="none" xmlns="http://www.w3.org/2000/svg">
<path d="M5.75521 4.526C4.90625 4.526 4.19531 4.67704 3.61719 4.97652C3.04167 5.276 2.60677 5.7135 2.3151 6.28902C2.02083 6.86715 1.875 7.57288 1.875 8.40621V11.052C1.875 11.8854 2.02083 12.5911 2.3151 13.1666C2.60937 13.7421 3.04167 14.1823 3.61719 14.4817C4.19531 14.7812 4.83073 14.9323 5.67969 14.9323V16.9895C5.67969 17.3489 5.76823 17.6328 5.94271 17.8437C6.11979 18.0546 6.36979 18.1588 6.69271 18.1588C6.92187 18.1588 7.1276 18.0989 7.3151 17.9791C7.5 17.8567 7.73437 17.6692 8.01823 17.414L10.7891 14.9323H13.0286C13.875 14.9323 14.5885 14.7812 15.1641 14.4817C15.7396 14.1823 16.1745 13.7421 16.4661 13.1666C16.7604 12.5911 16.9062 11.8854 16.9062 11.052V8.40621C16.9062 7.57027 16.7604 6.86715 16.4661 6.28902C16.1745 5.7135 15.7396 5.276 15.1641 4.97652C14.5885 4.67704 13.875 4.526 13.0286 4.526H5.75521ZM5.75521 6.026H13.0286C13.862 6.026 14.4688 6.22392 14.849 6.62236C15.2292 7.01819 15.4167 7.61194 15.4167 8.40621V11.052C15.4167 11.8437 15.2292 12.4427 14.849 12.8411C14.4688 13.2421 13.862 13.4427 13.0286 13.4427H10.7083C10.4609 13.4427 10.2578 13.4661 10.1016 13.5182C9.94792 13.5703 9.78646 13.6875 9.6224 13.8645L7.07552 16.4609V14.1354C7.07552 13.8802 7.02344 13.7005 6.91667 13.5963C6.8099 13.4921 6.63021 13.4427 6.38281 13.4427H5.75521C4.91927 13.4427 4.3125 13.2421 3.9349 12.8411C3.55469 12.4427 3.36458 11.8437 3.36458 11.052V8.40621C3.36458 7.61194 3.55469 7.01819 3.9349 6.62236C4.3125 6.22392 4.91927 6.026 5.75521 6.026ZM17.9766 7.526C18.0156 7.80725 18.0339 8.09892 18.0339 8.40621V9.026H18.1458C18.9818 9.026 19.5911 9.22392 19.9688 9.62236C20.3464 10.0156 20.5391 10.6119 20.5391 11.4062V14.1198C20.5391 14.914 20.3464 15.5104 19.9688 15.9062C19.5911 16.3099 18.9818 16.5078 18.1458 16.5078H17.5208C17.2734 16.5078 17.0938 16.5599 16.987 16.664C16.8802 16.7656 16.8255 16.9453 16.8255 17.2005V19.5312L14.2812 16.9349C14.1146 16.7552 13.9531 16.638 13.7995 16.5859C13.6458 16.5338 13.4427 16.5078 13.1953 16.5078C10.6823 16.5078 10.8359 16.5104 10.7969 16.5026L9.35156 17.7942C9.66146 17.888 10.1484 18 10.875 18H13.1094L15.8854 20.4817C16.1667 20.7369 16.4036 20.9244 16.5859 21.0442C16.7734 21.164 16.9792 21.2239 17.2083 21.2239C17.5312 21.2239 17.7839 21.1198 17.9583 20.9088C18.1354 20.7005 18.2214 20.414 18.2214 20.0599V18C19.0729 18 19.7057 17.8515 20.2839 17.5494C20.862 17.25 21.2917 16.8099 21.5885 16.2343C21.8802 15.6588 22.0286 14.9557 22.0286 14.1198V11.4062C22.0286 10.5703 21.8802 9.86715 21.5885 9.28902C21.2917 8.7135 20.862 8.276 20.2839 7.97652C19.7057 7.67704 18.9974 7.526 18.1458 7.526H17.9766Z" fill="#141414"/>
</svg>
