<svg width="22" height="18" viewBox="0 0 22 18" fill="none" xmlns="http://www.w3.org/2000/svg">
<path d="M4.75521 0.526001C3.90625 0.526001 3.19531 0.677043 2.61719 0.976523C2.04167 1.276 1.60677 1.7135 1.3151 2.28902C1.02083 2.86715 0.875 3.57288 0.875 4.40621V7.05204C0.875 7.88538 1.02083 8.59111 1.3151 9.16663C1.60937 9.74215 2.04167 10.1823 2.61719 10.4817C3.19531 10.7812 3.83073 10.9323 4.67969 10.9323V12.9895C4.67969 13.3489 4.76823 13.6328 4.94271 13.8437C5.11979 14.0546 5.36979 14.1588 5.69271 14.1588C5.92187 14.1588 6.1276 14.0989 6.3151 13.9791C6.5 13.8567 6.73437 13.6692 7.01823 13.414L9.78906 10.9323H12.0286C12.875 10.9323 13.5885 10.7812 14.1641 10.4817C14.7396 10.1823 15.1745 9.74215 15.4661 9.16663C15.7604 8.59111 15.9062 7.88538 15.9062 7.05204V4.40621C15.9062 3.57027 15.7604 2.86715 15.4661 2.28902C15.1745 1.7135 14.7396 1.276 14.1641 0.976523C13.5885 0.677043 12.875 0.526001 12.0286 0.526001H4.75521ZM4.75521 2.026H12.0286C12.862 2.026 13.4688 2.22392 13.849 2.62236C14.2292 3.01819 14.4167 3.61194 14.4167 4.40621V7.05204C14.4167 7.84371 14.2292 8.44267 13.849 8.84111C13.4688 9.24215 12.862 9.44267 12.0286 9.44267H9.70833C9.46094 9.44267 9.25781 9.46611 9.10156 9.51819C8.94792 9.57027 8.78646 9.68746 8.6224 9.86454L6.07552 12.4609V10.1354C6.07552 9.88017 6.02344 9.70048 5.91667 9.59631C5.8099 9.49215 5.63021 9.44267 5.38281 9.44267H4.75521C3.91927 9.44267 3.3125 9.24215 2.9349 8.84111C2.55469 8.44267 2.36458 7.84371 2.36458 7.05204V4.40621C2.36458 3.61194 2.55469 3.01819 2.9349 2.62236C3.3125 2.22392 3.91927 2.026 4.75521 2.026ZM16.9766 3.526C17.0156 3.80725 17.0339 4.09892 17.0339 4.40621V5.026H17.1458C17.9818 5.026 18.5911 5.22392 18.9688 5.62236C19.3464 6.01559 19.5391 6.61194 19.5391 7.40621V10.1198C19.5391 10.914 19.3464 11.5104 18.9688 11.9062C18.5911 12.3099 17.9818 12.5078 17.1458 12.5078H16.5208C16.2734 12.5078 16.0938 12.5599 15.987 12.664C15.8802 12.7656 15.8255 12.9453 15.8255 13.2005V15.5312L13.2812 12.9349C13.1146 12.7552 12.9531 12.638 12.7995 12.5859C12.6458 12.5338 12.4427 12.5078 12.1953 12.5078C9.68229 12.5078 9.83594 12.5104 9.79688 12.5026L8.35156 13.7942C8.66146 13.888 9.14844 14 9.875 14H12.1094L14.8854 16.4817C15.1667 16.7369 15.4036 16.9244 15.5859 17.0442C15.7734 17.164 15.9792 17.2239 16.2083 17.2239C16.5312 17.2239 16.7839 17.1198 16.9583 16.9088C17.1354 16.7005 17.2214 16.414 17.2214 16.0599V14C18.0729 14 18.7057 13.8515 19.2839 13.5494C19.862 13.25 20.2917 12.8099 20.5885 12.2343C20.8802 11.6588 21.0286 10.9557 21.0286 10.1198V7.40621C21.0286 6.57027 20.8802 5.86715 20.5885 5.28902C20.2917 4.7135 19.862 4.276 19.2839 3.97652C18.7057 3.67704 17.9974 3.526 17.1458 3.526H16.9766Z" fill="#141414"/>
</svg>
