<svg width="17" height="16" viewBox="0 0 17 16" fill="none" xmlns="http://www.w3.org/2000/svg">
<path
  d="M4.79242 16C5.22464 16 5.54313 15.7877 6.06635 15.3251L8.6673 13.0351H13.2322C15.5147 13.0351 16.7962 11.7156 16.7962 9.46351V3.57156C16.7962 1.31943 15.5147 0 13.2322 0H3.56398C1.2891 0 0 1.31943 0 3.57156V9.46351C0 11.7232 1.32701 13.0351 3.5109 13.0351H3.8218V14.8929C3.8218 15.5678 4.1782 16 4.79242 16ZM5.17156 14.3014V12.1403C5.17156 11.6929 4.97441 11.5185 4.54976 11.5185H3.61706C2.19147 11.5185 1.509 10.7981 1.509 9.41801V3.61706C1.509 2.23697 2.19147 1.51659 3.61706 1.51659H13.1867C14.6047 1.51659 15.2872 2.23697 15.2872 3.61706V9.41801C15.2872 10.7981 14.6047 11.5185 13.1867 11.5185H8.58389C8.12133 11.5185 7.89384 11.5943 7.57536 11.928L5.17156 14.3014Z" fill="#000"/>
</svg>
