<svg width="24" height="24" viewBox="0 0 24 24" fill="none" xmlns="http://www.w3.org/2000/svg">
<path d="M5.75521 4.52605C4.90625 4.52605 4.19531 4.67709 3.61719 4.97657C3.04167 5.27605 2.60677 5.71355 2.3151 6.28907C2.02083 6.86719 1.875 7.57292 1.875 8.40626V11.0521C1.875 11.8854 2.02083 12.5912 2.3151 13.1667C2.60937 13.7422 3.04167 14.1823 3.61719 14.4818C4.19531 14.7813 4.83073 14.9323 5.67969 14.9323V16.9896C5.67969 17.349 5.76823 17.6328 5.94271 17.8438C6.11979 18.0547 6.36979 18.1589 6.69271 18.1589C6.92187 18.1589 7.1276 18.099 7.3151 17.9792C7.5 17.8568 7.73437 17.6693 8.01823 17.4141L10.7891 14.9323H13.0286C13.875 14.9323 14.5885 14.7813 15.1641 14.4818C15.7396 14.1823 16.1745 13.7422 16.4661 13.1667C16.7604 12.5912 16.9062 11.8854 16.9062 11.0521V8.40626C16.9062 7.57032 16.7604 6.86719 16.4661 6.28907C16.1745 5.71355 15.7396 5.27605 15.1641 4.97657C14.5885 4.67709 13.875 4.52605 13.0286 4.52605H5.75521ZM17.9766 7.52605C18.0156 7.8073 18.0339 8.09896 18.0339 8.40626V11.0521C18.0339 12.0599 17.8411 12.9453 17.4714 13.6771C17.0703 14.4635 16.4714 15.0703 15.6823 15.4792C14.9479 15.862 14.0547 16.0573 13.0286 16.0573H11.2188L9.35156 17.7266C9.79948 17.8646 10.3047 17.9323 10.875 17.9323H13.1094L15.8854 20.4141C16.1667 20.6693 16.4036 20.8568 16.5859 20.9766C16.7734 21.0964 16.9792 21.1563 17.2083 21.1563C17.5312 21.1563 17.7839 21.0521 17.9583 20.8438C18.1354 20.6328 18.2214 20.349 18.2214 19.9922V17.9323C19.0729 17.9323 19.7057 17.7813 20.2839 17.4818C20.862 17.1823 21.2917 16.7448 21.5885 16.1667C21.8802 15.5912 22.0286 14.888 22.0286 14.0521V11.4063C22.0286 10.5703 21.8802 9.86719 21.5885 9.28907C21.2917 8.71355 20.862 8.27605 20.2839 7.97657C19.7057 7.67709 18.9974 7.52605 18.1458 7.52605H17.9766Z" fill="#141414"/>
</svg>
