<svg width="18" height="22" viewBox="0 0 18 22" fill="none" xmlns="http://www.w3.org/2000/svg">
<path d="M9 0C4.04148 0 0 4.04148 0 9C0 13.9585 4.04148 18 9 18V21.0918L10.5391 20.1055C12.7749 18.6714 16.8521 15.5753 17.7988 10.8828C17.9284 10.2776 18 9.64776 18 9C18 4.04148 13.9585 0 9 0ZM9 2C12.8775 2 16 5.12252 16 9C16 9.50418 15.9446 9.99539 15.8418 10.4727L15.8398 10.4805L15.8379 10.4863C15.2437 13.4344 12.9716 15.6052 11 17.1387V15.7988L9.875 15.9395C9.57406 15.9771 9.28394 16 9 16C5.12252 16 2 12.8775 2 9C2 5.12252 5.12252 2 9 2Z" fill="black"/>
</svg>
