<svg width="24" height="24" viewBox="0 0 24 24" fill="none" xmlns="http://www.w3.org/2000/svg">
<g id="ic24_copy">
<path id="vector" fill-rule="evenodd" clip-rule="evenodd" d="M4 6C4 3.79086 5.79086 2 8 2H12C14.2091 2 16 3.79086 16 6V14C16 16.2091 14.2091 18 12 18H8C5.79086 18 4 16.2091 4 14V6ZM8 4C6.89543 4 6 4.89543 6 6V14C6 15.1046 6.89543 16 8 16H12C13.1046 16 14 15.1046 14 14V6C14 4.89543 13.1046 4 12 4H8ZM16.6344 6.90064C16.9109 6.42258 17.5227 6.25922 18.0007 6.53576C19.1937 7.22587 20 8.5182 20 10V18C20 20.2092 18.2091 22 16 22H12C10.5182 22 9.22586 21.1937 8.53575 20.0007C8.2592 19.5227 8.42257 18.911 8.90063 18.6344C9.37869 18.3579 9.99041 18.5212 10.267 18.9993C10.6143 19.5997 11.261 20 12 20H16C17.1046 20 18 19.1046 18 18V10C18 9.261 17.5997 8.61429 16.9993 8.26697C16.5212 7.99043 16.3579 7.3787 16.6344 6.90064Z" fill="#141414"/>
</g>
</svg>
