<svg width="47" height="47" viewBox="0 0 47 47" fill="none" xmlns="http://www.w3.org/2000/svg">
<path d="M39.8531 25.8606L39.8156 9.44197L18.3041 12.8079C18.2899 27.8483 18.2827 36.3973 18.2827 38.4549L18.2623 38.429C17.9505 42.9261 14.1092 46.4798 9.41627 46.4798C4.51946 46.4798 0.549805 42.6106 0.549805 37.8376C0.549805 33.0647 4.51946 29.1955 9.41627 29.1955C10.2965 29.1955 11.1469 29.3205 11.9495 29.5534V6.35548L46.1488 0.799805C46.2568 23.1532 46.2568 34.4703 46.1488 34.7512L46.1282 34.7269C45.8156 39.2232 41.9746 42.776 37.2823 42.776C32.3855 42.776 28.4158 38.9068 28.4158 34.1339C28.4158 29.3609 32.3855 25.4917 37.2823 25.4917C38.1763 25.4917 39.0394 25.6207 39.8531 25.8606Z" fill="black"/>
</svg>
