<svg width="18" height="18" viewBox="0 0 20 19" fill="none" xmlns="http://www.w3.org/2000/svg">
<path transform="rotate(180 9 9)" d="M0 8H3V18H0V8Z" fill="#141414"/>
<path transform="rotate(180 9 9)" d="M4 18V8H5.50049C5.81525 8 6.11164 7.85181 6.30049 7.6L8.87932 4.16155C8.95929 4.05493 9.01714 3.93339 9.04947 3.80409L9.93965 0.243377C9.9754 0.100343 10.1039 0 10.2514 0C11.4935 0 12.5005 1.00697 12.5005 2.24913V4.5L12.1636 6.85858C12.0775 7.46101 12.545 8 13.1535 8H19.0005C19.5528 8 20.0005 8.44771 20.0005 9V9.3702C20.0005 9.93081 19.7652 10.4657 19.3519 10.8445L19.2854 10.9055C18.8721 11.2843 18.6369 11.8192 18.6369 12.3798V13.1202C18.6369 13.6808 18.4016 14.2157 17.9883 14.5945L17.651 14.9037C17.4031 15.1309 17.2166 15.4169 17.1085 15.7353L16.256 18.2473C16.1064 18.6879 15.6726 18.9672 15.2095 18.9209L6.00049 18H4Z" fill="#141414"/>
</svg>
