<svg version="1.1" xmlns="http://www.w3.org/2000/svg" xmlns:xlink="http://www.w3.org/1999/xlink" x="0px" y="0px"
	 viewBox="0 0 287.543 287.543" style="enable-background:new 0 0 287.543 287.543;" xml:space="preserve" width="18" height="18">
<path transform="rotate(180 9 9)" d="M249.891,34.515c-1.183,0-2.286,0.349-3.351,1.009c-7.548,4.683-17.474,7.157-28.784,7.157
	c-8.306,0-16.908-1.334-25.61-3.967c-19.508-5.9-36.043-28.702-41.479-36.192C149.524,0.942,147.555,0,145.394,0
	c-2.05,0-3.851,0.869-4.946,2.388c-5.415,7.512-21.891,30.369-41.585,36.326c-8.58,2.596-17.627,3.967-26.164,3.967
	c-11.138,0-21.303-2.313-28.625-6.514c-1.296-0.743-3.212-1.598-5.254-1.598c-3.426,0-7.049,2.505-7.049,8.1v126.072
	c0,35.122,28.631,65.269,52.51,84.374c24.551,19.645,53.198,34.428,59.74,34.428c4.972,0,33.638-14.874,58.399-34.406
	c24.396-19.243,53.352-49.506,53.352-84.396V41.271C255.771,36.836,252.896,34.515,249.891,34.515z M222.771,167.088
	c0,45.572-74,82.516-77,82.516V48.433c0-0.15,1.08-0.049,1.303,0.258c6.537,9.008,17.948,23.345,31.968,27.586
	c16.602,5.022,32.277,3.588,42.419-2.703c0.581-0.361,1.311-0.3,1.311,1.087V167.088z"/>
</svg>
