<svg width="13" height="16" viewBox="0 0 13 16" fill="none" xmlns="http://www.w3.org/2000/svg">
<path fill-rule="evenodd" clip-rule="evenodd"
			d="M10.1573 7.43667C11.2197 6.70286 11.9645 5.49809 11.9645 4.38095C11.9645 1.90571 10.0478 0 7.58352 0H0.738281V15.3333H8.44876C10.7378 15.3333 12.5121 13.4714 12.5121 11.1824C12.5121 9.51762 11.5702 8.09381 10.1573 7.43667ZM4.02344 2.73828H7.30915C8.2182 2.73828 8.95201 3.47209 8.95201 4.38114C8.95201 5.29019 8.2182 6.024 7.30915 6.024H4.02344V2.73828ZM4.02344 12.5943H7.85677C8.76582 12.5943 9.49963 11.8605 9.49963 10.9515C9.49963 10.0424 8.76582 9.30859 7.85677 9.30859H4.02344V12.5943Z" fill="currentColor"/>
</svg>
