<svg width="20" height="16" viewBox="0 0 20 16" fill="none" xmlns="http://www.w3.org/2000/svg">
<path fill-rule="evenodd" clip-rule="evenodd" d="M0.000114441 1.6C0.000114441 0.714665 0.71478 0 1.60011 0C2.48544 0 3.20011 0.714665 3.20011 1.6C3.20011 2.48533 2.48544 3.19999 1.60011 3.19999C0.71478 3.19999 0.000114441 2.48533 0.000114441 1.6ZM0 8.00013C0 7.1148 0.714665 6.40014 1.6 6.40014C2.48533 6.40014 3.19999 7.1148 3.19999 8.00013C3.19999 8.88547 2.48533 9.60013 1.6 9.60013C0.714665 9.60013 0 8.88547 0 8.00013ZM1.6 12.8C0.714665 12.8 0 13.5254 0 14.4C0 15.2747 0.725332 16 1.6 16C2.47466 16 3.19999 15.2747 3.19999 14.4C3.19999 13.5254 2.48533 12.8 1.6 12.8ZM19.7333 15.4662H4.79999V13.3329H19.7333V15.4662ZM4.79999 9.06677H19.7333V6.93344H4.79999V9.06677ZM4.79999 2.66664V0.533307H19.7333V2.66664H4.79999Z" fill="currentColor"/>
</svg>
