<svg
  width="13" height="16"
  viewBox="0 0 13 16"
   fill="none"
   version="1.1"
   xmlns="http://www.w3.org/2000/svg">
  <path
      d="M 10.1573,7.43667 C 11.2197,6.70286 11.9645,5.49809 11.9645,4.38095 11.9645,1.90571 10.0478,0 7.58352,0 H 0.738281 V 15.3333 H 8.44876 c 2.28904,0 4.06334,-1.8619 4.06334,-4.1509 0,-1.66478 -0.9419,-3.08859 -2.3548,-3.74573 z M 4.02344,2.73828 h 3.28571 c 0.90905,0 1.64286,0.73381 1.64286,1.64286 0,0.90905 -0.73381,1.64286 -1.64286,1.64286 H 4.02344 Z M 4.01629,9.3405869 h 3.87946 c 0.9090501,0 1.6428601,0.7338101 1.6428601,1.6428601 0,0.90905 -0.73381,1.64286 -1.6428601,1.64286 H 4.01629 Z"
     fill="currentColor"
     />
</svg>
