<svg width="25" height="25" viewBox="0 0 25 25" fill="none" xmlns="http://www.w3.org/2000/svg">
<path fill-rule="evenodd" clip-rule="evenodd" d="M21.0516 6.57895V10.5132C21.0516 10.5132 18.4332 10.5263 18.42 10.5132V6.57895H14.4727C14.4727 6.57895 14.4858 3.96053 14.4727 3.94737H18.42V0H21.0516V3.94737H24.999V6.57895H21.0516ZM17.1053 11.8421V7.89474H13.1579V3.94737H2.63158C1.18421 3.94737 0 5.13158 0 6.57895V22.3684C0 23.8158 1.18421 25 2.63158 25H18.4211C19.8684 25 21.0526 23.8158 21.0526 22.3684V11.8421H17.1053ZM6.58018 17.1053L2.63281 22.3685H18.4223L13.1591 15.7896L9.21176 21.0527L6.58018 17.1053Z" fill="#fff"/>
</svg>
