<svg width="18" height="10" viewBox="0 0 18 10" fill="none" xmlns="http://www.w3.org/2000/svg">
<path fill-rule="evenodd" clip-rule="evenodd" d="M1.71 5C1.71 3.461 2.961 2.21 4.5 2.21H8.1V0.5H4.5C2.016 0.5 0 2.516 0 5C0 7.484 2.016 9.5 4.5 9.5H8.1V7.79H4.5C2.961 7.79 1.71 6.539 1.71 5ZM5.39844 5.90156H12.5984V4.10156H5.39844V5.90156ZM9.89941 0.5H13.4994C15.9834 0.5 17.9994 2.516 17.9994 5C17.9994 7.484 15.9834 9.5 13.4994 9.5H9.89941V7.79H13.4994C15.0384 7.79 16.2894 6.539 16.2894 5C16.2894 3.461 15.0384 2.21 13.4994 2.21H9.89941V0.5Z" fill="currentColor"/>
</svg>
