<svg width="13" height="16" viewBox="0 0 13 16" fill="none" xmlns="http://www.w3.org/2000/svg">
<path fill-rule="evenodd" clip-rule="evenodd" d="M9.82857 7.76C10.9371 6.99429 11.7143 5.73714 11.7143 4.57143C11.7143 1.98857 9.71428 0 7.14286 0H0V16H8.04571C10.4343 16 12.2857 14.0571 12.2857 11.6686C12.2857 9.93143 11.3029 8.44571 9.82857 7.76ZM3.42799 2.85708H6.85656C7.80513 2.85708 8.57085 3.6228 8.57085 4.57137C8.57085 5.51994 7.80513 6.28565 6.85656 6.28565H3.42799V2.85708ZM3.42799 13.1429H7.42799C8.37656 13.1429 9.14228 12.3772 9.14228 11.4286C9.14228 10.4801 8.37656 9.71434 7.42799 9.71434H3.42799V13.1429Z" fill="currentColor"/>
</svg>
