<svg width="17" height="16" viewBox="0 0 17 16" fill="none" xmlns="http://www.w3.org/2000/svg">
<path d="M13.5542 12.1407L16.417 15.0035L15.4205 16L11.657 12.2365H9.26153V10.6123H10.0497L8.25384 8.84457H5.0531V7.18383H6.58994L4.80805 5.40195H4.19466C3.50174 5.39979 2.83667 5.6739 2.34637 6.16338C1.85628 6.65308 1.58137 7.31794 1.58278 8.01086C1.58415 8.70357 1.8616 9.36744 2.35366 9.85502C2.83688 10.3504 3.50289 10.6243 4.19466 10.6123H7.60079V12.2365H4.19466C3.07508 12.2532 1.99923 11.801 1.2278 10.9895C0.441236 10.1933 0 9.11922 0 8C0 6.88077 0.4412 5.80674 1.2278 5.01052C1.78565 4.42814 2.50526 4.02601 3.29384 3.85636L0.417108 0.996475L1.41358 0L5.17706 3.7776H5.19669L6.82089 5.4018H6.79831L8.58019 7.18368L10.2551 8.84442L12.0369 10.6263L13.5683 12.1378L13.5542 12.1407ZM15.6203 10.9895C16.4069 10.1933 16.8481 9.11927 16.8481 8.00005C16.8481 6.88083 16.4069 5.80679 15.6203 5.01057C14.8463 4.20416 13.7709 3.75724 12.6535 3.7777H9.26153V5.4019H12.6677H12.6675C13.3604 5.39974 14.0255 5.67385 14.5157 6.16333C15.0058 6.65303 15.2807 7.31789 15.2793 8.01081C15.278 8.70352 15.0005 9.36739 14.5085 9.85497C14.3296 10.0348 14.1269 10.1892 13.9061 10.3138L15.0771 11.4819V11.4821C15.2715 11.3333 15.4533 11.1685 15.6204 10.9895L15.6203 10.9895Z" fill="currentColor"/>
</svg>
