<svg width="18" height="18" viewBox="0 0 18 18" fill="none" xmlns="http://www.w3.org/2000/svg">
<path fill-rule="evenodd" clip-rule="evenodd" d="M3.27177 14.7277C2.06258 13.5186 2.06258 11.5527 3.27177 10.3435L6.10029 7.51502L4.75675 6.17148L1.92823 9C-0.0234511 10.9517 -0.0234511 14.1196 1.92823 16.0713C3.87991 18.023 7.04785 18.023 8.99952 16.0713L11.828 13.2428L10.4845 11.8992L7.65598 14.7277C6.44679 15.9369 4.48097 15.9369 3.27177 14.7277ZM6.87756 12.536L12.5346 6.87895L11.1203 5.46469L5.4633 11.1217L6.87756 12.536ZM6.17055 4.75768L8.99907 1.92916C10.9507 -0.0225206 14.1187 -0.0225201 16.0704 1.92916C18.022 3.88084 18.022 7.04878 16.0704 9.00046L13.2418 11.829L11.8983 10.4854L14.7268 7.65691C15.936 6.44772 15.936 4.4819 14.7268 3.27271C13.5176 2.06351 11.5518 2.06351 10.3426 3.2727L7.51409 6.10122L6.17055 4.75768Z" fill="currentColor"/>
</svg>
