<svg width="22" height="12" viewBox="0 0 22 12" fill="none" xmlns="http://www.w3.org/2000/svg">
<path d="M10.6548 0.365999H8.16177V5.05284H2.94309V0.365999H0.450093V12H2.94309V7.31316H8.16177V12H10.6548V0.365999ZM12.9429 1.66236V3.98916C14.1395 3.07506 15.4691 2.64294 16.5993 2.64294C17.7461 2.64294 18.4773 3.07506 18.4773 3.90606C18.4773 4.98636 17.4635 5.4351 16.2835 6.11652C14.6215 7.0971 12.5606 8.16078 12.5606 10.8865V12H21.0368V9.85602L15.386 9.87264C15.4026 9.14136 16.5494 8.52642 17.8956 7.72866C19.3748 6.8478 20.9537 5.71764 20.9537 3.80634C20.9537 1.49616 19.1089 0.465719 16.832 0.465719C15.4525 0.465719 14.1063 0.831359 12.9429 1.66236Z" fill="currentColor"/>
</svg>
