<svg width="21" height="12" viewBox="0 0 21 12" fill="none" xmlns="http://www.w3.org/2000/svg">
<path d="M0 11.7647H2.52101V7.02521H7.79832V11.7647H10.3193V0H7.79832V4.7395H2.52101V0H0V11.7647Z" fill="currentColor"/>
<path d="M16.3474 12C18.7004 12 20.9189 11.042 20.9189 8.63866C20.9189 6.95798 19.8936 6.06723 18.7172 5.71429C19.7928 5.34454 20.4483 4.43697 20.4483 3.2605C20.4483 1.17647 18.6836 0.100841 16.3138 0.100841C14.9189 0.100841 13.6079 0.436975 12.5827 0.991597V3.34454C13.7088 2.63865 14.9357 2.31933 15.9609 2.31933C17.339 2.31933 18.0617 2.78992 18.0617 3.61345C18.0617 4.40336 17.3558 4.82353 16.2466 4.80672L14.6668 4.78992L14.6499 6.97479H16.5323C17.6752 6.97479 18.5155 7.31092 18.5155 8.28571C18.5155 9.36134 17.4399 9.7647 16.1457 9.78151C14.8348 9.79832 13.692 9.59664 12.381 8.87395V11.2269C13.692 11.7647 14.8852 12 16.3474 12Z" fill="currentColor"/>
</svg>
