<svg width="40" height="40" viewBox="0 0 40 40" fill="none" xmlns="http://www.w3.org/2000/svg">
<path d="M14.6642 15.2662L10.5312 19.4724C10.2967 19.7094 10.2967 20.0648 10.5312 20.3018L14.6642 24.4784C14.8987 24.7153 14.8987 25.0708 14.6642 25.3078L13.8435 26.1372C13.609 26.3741 13.2572 26.3741 13.0227 26.1372L7.21884 20.3018C6.98434 20.0648 6.98434 19.7094 7.21884 19.4724L13.0227 13.6074C13.2572 13.3704 13.609 13.3704 13.8435 13.6074L14.6642 14.4368C14.8987 14.6738 14.8987 15.0589 14.6642 15.2662Z" fill="currentColor"/>
<path d="M25.3946 24.508L29.5277 20.3314C29.7622 20.0944 29.7622 19.739 29.5277 19.502L25.3946 15.2662C25.1601 15.0292 25.1601 14.6738 25.3946 14.4368L26.2154 13.6074C26.4499 13.3704 26.8016 13.3704 27.0361 13.6074L32.84 19.4724C33.0745 19.7094 33.0745 20.0648 32.84 20.3018L27.0361 26.1668C26.8016 26.4037 26.4499 26.4037 26.2154 26.1668L25.3946 25.3374C25.1601 25.1004 25.1601 24.7153 25.3946 24.508Z" fill="currentColor"/>
<path d="M21.9333 11.8003L23.0472 12.1558C23.3696 12.2446 23.5162 12.6001 23.4282 12.8963L18.7675 27.5884C18.6796 27.9142 18.3278 28.0623 18.0347 27.9734L16.9208 27.5884C16.5984 27.4995 16.4518 27.144 16.5398 26.8478L21.2005 12.1854C21.3177 11.8892 21.6402 11.7114 21.9333 11.8003Z" fill="currentColor"/>
</svg>
