<svg width="24" height="24" viewBox="0 0 24 24" fill="none" xmlns="http://www.w3.org/2000/svg">
<path d="M7.875 12C7.875 13.0365 7.03646 13.875 6 13.875C4.96354 13.875 4.125 13.0365 4.125 12C4.125 10.9635 4.96354 10.125 6 10.125C7.03646 10.125 7.875 10.9635 7.875 12ZM13.875 12C13.875 13.0365 13.0365 13.875 12 13.875C10.9635 13.875 10.125 13.0365 10.125 12C10.125 10.9635 10.9635 10.125 12 10.125C13.0365 10.125 13.875 10.9635 13.875 12ZM19.875 12C19.875 13.0365 19.0365 13.875 18 13.875C16.9635 13.875 16.125 13.0365 16.125 12C16.125 10.9635 16.9635 10.125 18 10.125C19.0365 10.125 19.875 10.9635 19.875 12Z" fill="#141414"/>
</svg>
