<svg width="24" height="24" viewBox="0 0 24 24" fill="none" xmlns="http://www.w3.org/2000/svg">
<path d="M12 5.25C6.5625 5.25 1.875 9.77865 1.875 12C1.875 14.2214 6.5625 18.75 12 18.75C17.4375 18.75 22.125 14.2214 22.125 12C22.125 9.77865 17.4375 5.25 12 5.25ZM12 7.5C14.4844 7.5 16.5 9.51563 16.5 12C16.5 14.4844 14.4844 16.5 12 16.5C9.51563 16.5 7.5 14.4844 7.5 12C7.5 9.51563 9.51563 7.5 12 7.5ZM12 10.125C10.9635 10.125 10.125 10.9635 10.125 12C10.125 13.0365 10.9635 13.875 12 13.875C13.0365 13.875 13.875 13.0365 13.875 12C13.875 10.9635 13.0365 10.125 12 10.125Z" fill="#141414"/>
</svg>
