<svg width="24" height="24" viewBox="0 0 24 24" fill="none" xmlns="http://www.w3.org/2000/svg">
<path d="M12 5.25C6.5625 5.25 1.875 9.77865 1.875 12C1.875 14.2214 6.5625 18.75 12 18.75C17.4375 18.75 22.125 14.2214 22.125 12C22.125 9.77865 17.4375 5.25 12 5.25ZM12 6.75C16.8542 6.75 20.625 10.9375 20.625 12C20.625 13.0625 16.8542 17.25 12 17.25C7.14583 17.25 3.375 13.0625 3.375 12C3.375 10.9375 7.14583 6.75 12 6.75ZM12 7.875C9.72135 7.875 7.875 9.72135 7.875 12C7.875 14.2786 9.72135 16.125 12 16.125C14.2786 16.125 16.125 14.2786 16.125 12C16.125 9.72135 14.2786 7.875 12 7.875ZM12 10.5C12.8281 10.5 13.5 11.1719 13.5 12C13.5 12.8281 12.8281 13.5 12 13.5C11.1719 13.5 10.5 12.8281 10.5 12C10.5 11.1719 11.1719 10.5 12 10.5Z" fill="#141414"/>
</svg>
