<svg width="10" height="18" viewBox="0 0 10 18" fill="none" xmlns="http://www.w3.org/2000/svg">
<path
  d="M0.677665 9.5705H2.73464V17.4677C2.73464 17.6237 2.87011 17.75 3.0373 17.75H6.52497C6.69216 17.75 6.82764 17.6237 6.82764 17.4677V9.6077H9.1923C9.34605 9.6077 9.47541 9.50011 9.49297 9.35768L9.85211 6.45031C9.86197 6.37032 9.8348 6.29021 9.77741 6.2302C9.71996 6.17014 9.63776 6.13576 9.5515 6.13576H6.82776V4.31328C6.82776 3.76389 7.14495 3.4853 7.77062 3.4853C7.85979 3.4853 9.5515 3.4853 9.5515 3.4853C9.71869 3.4853 9.85417 3.3589 9.85417 3.20304V0.534347C9.85417 0.378427 9.71869 0.252089 9.5515 0.252089H7.09719C7.07988 0.251298 7.04144 0.25 6.98478 0.25C6.55893 0.25 5.07872 0.32796 3.90946 1.33111C2.61393 2.44275 2.79402 3.77377 2.83706 4.00454V6.1357H0.677665C0.510473 6.1357 0.375 6.26204 0.375 6.41796V9.28819C0.375 9.44411 0.510473 9.5705 0.677665 9.5705Z" fill="#ffffff"/>
</svg>
