<svg width="22" height="17" viewBox="0 0 22 17" fill="none" xmlns="http://www.w3.org/2000/svg">
<path d="M7.25 0.125C6.14583 0.125 5.13281 0.690104 4.60937 1.60156C4.40365 1.95573 4.16406 2.53385 4.03125 2.91927C3.91146 3.2474 2.07813 7.34896 0.953125 9.85677L0.958333 9.85938C0.666667 10.4349 0.5 11.0755 0.5 11.75C0.5 14.2318 2.6875 16.25 5.375 16.25C8.0625 16.25 10.25 14.2318 10.25 11.75V10.3724C10.4505 10.3099 10.7109 10.25 11 10.25C11.2891 10.25 11.5495 10.3099 11.75 10.3724V11.75C11.75 14.2318 13.9375 16.25 16.625 16.25C19.3125 16.25 21.5 14.2318 21.5 11.75C21.5 11.0755 21.3333 10.4349 21.0417 9.85938L21.0469 9.85677C19.9219 7.34896 18.0885 3.2474 17.9688 2.92448C17.8359 2.53646 17.5964 1.95833 17.3906 1.60417C16.8672 0.690104 15.8542 0.125 14.75 0.125C13.1354 0.125 11.8177 1.32813 11.7552 2.82813C11.526 2.78125 11.2734 2.75 11 2.75C10.7266 2.75 10.474 2.78125 10.2448 2.82813C10.1823 1.32813 8.86458 0.125 7.25 0.125ZM7.25 1.625C8.07813 1.625 8.75 2.21354 8.75 2.9375V8.51042C7.8724 7.73177 6.6849 7.25 5.375 7.25C4.75781 7.25 4.16927 7.36198 3.625 7.55469C4.48177 5.64063 5.36458 3.65365 5.45052 3.40885C5.57292 3.04688 5.77604 2.58333 5.90885 2.35156C6.16667 1.90365 6.67969 1.625 7.25 1.625ZM14.75 1.625C15.3203 1.625 15.8333 1.90365 16.0911 2.35156C16.224 2.58333 16.4271 3.04948 16.5495 3.40885C16.6354 3.65365 17.5182 5.64063 18.3724 7.55469C17.8307 7.36198 17.2422 7.25 16.625 7.25C15.3151 7.25 14.1276 7.73177 13.25 8.51042V2.9375C13.25 2.21354 13.9219 1.625 14.75 1.625ZM11 4.25C11.2891 4.25 11.5495 4.3099 11.75 4.3724V5.82552C11.5208 5.78125 11.2708 5.75 11 5.75C10.7292 5.75 10.4792 5.78125 10.25 5.82552V4.3724C10.4505 4.3099 10.7109 4.25 11 4.25ZM11 7.25C11.2891 7.25 11.5495 7.3099 11.75 7.3724V8.82552C11.5208 8.78125 11.2708 8.75 11 8.75C10.7292 8.75 10.4792 8.78125 10.25 8.82552V7.3724C10.4505 7.3099 10.7109 7.25 11 7.25ZM5.375 8.75C7.23698 8.75 8.75 10.0964 8.75 11.75C8.75 13.4036 7.23698 14.75 5.375 14.75C3.51302 14.75 2 13.4036 2 11.75C2 10.0964 3.51302 8.75 5.375 8.75ZM16.625 8.75C18.487 8.75 20 10.0964 20 11.75C20 13.4036 18.487 14.75 16.625 14.75C14.763 14.75 13.25 13.4036 13.25 11.75C13.25 10.0964 14.763 8.75 16.625 8.75Z" fill="black"/>
</svg>
