<svg width="16" height="16" viewBox="0 0 16 16" fill="none" xmlns="http://www.w3.org/2000/svg">
<path d="M4.71205 15.4353C5.10568 15.4353 5.39572 15.2419 5.87221 14.8207L8.24086 12.7351H12.3981C14.4767 12.7351 15.6438 11.5336 15.6438 9.48256V4.11684C15.6438 2.06585 14.4767 0.864258 12.3981 0.864258H3.59333C1.52162 0.864258 0.347656 2.06585 0.347656 4.11684V9.48256C0.347656 11.5405 1.55615 12.7351 3.54499 12.7351H3.82813V14.427C3.82813 15.0416 4.15269 15.4353 4.71205 15.4353ZM5.05734 13.8884V11.9203C5.05734 11.5128 4.87779 11.354 4.49107 11.354H3.64167C2.3434 11.354 1.72189 10.698 1.72189 9.44113V4.15827C1.72189 2.90144 2.3434 2.2454 3.64167 2.2454H12.3567C13.648 2.2454 14.2695 2.90144 14.2695 4.15827V9.44113C14.2695 10.698 13.648 11.354 12.3567 11.354H8.1649C7.74365 11.354 7.53648 11.4231 7.24644 11.7269L5.05734 13.8884ZM4.67062 7.8321C5.23689 7.8321 5.69266 7.36942 5.69266 6.79625C5.69266 6.22998 5.23689 5.7673 4.67062 5.7673C4.09745 5.7673 3.63477 6.22998 3.63477 6.79625C3.63477 7.36942 4.09745 7.8321 4.67062 7.8321ZM7.99916 7.8321C8.56543 7.8321 9.02811 7.36942 9.02811 6.79625C9.02811 6.22998 8.56543 5.7673 7.99916 5.7673C7.4329 5.7673 6.97022 6.22998 6.97022 6.79625C6.97022 7.36942 7.4329 7.8321 7.99916 7.8321ZM11.3346 7.8321C11.9009 7.8321 12.3636 7.36942 12.3636 6.79625C12.3636 6.22998 11.9009 5.7673 11.3346 5.7673C10.7683 5.7673 10.3057 6.22998 10.3057 6.79625C10.3057 7.36942 10.7683 7.8321 11.3346 7.8321Z" fill="#141414"/>
</svg>
