<svg width="24" height="24" viewBox="0 0 24 24" fill="none" xmlns="http://www.w3.org/2000/svg">
<path d="M17.2499 20.625C17.1119 20.625 16.9765 20.5885 16.8541 20.513L11.9999 17.4922L7.14576 20.513C6.89056 20.6693 6.56764 20.6615 6.32024 20.4896C6.07545 20.3177 5.95566 20.0156 6.01556 19.724L7.20045 14L2.88274 10.2422C2.65618 10.0469 2.57024 9.73438 2.65878 9.45052C2.74993 9.16667 2.99993 8.96094 3.29941 8.93229L9.02858 8.34635L11.3124 3.07813C11.4296 2.80208 11.7005 2.625 11.9999 2.625C12.2994 2.625 12.5702 2.80208 12.6874 3.07813L14.9713 8.34635L20.7005 8.93229C20.9973 8.96094 21.2499 9.16667 21.3385 9.45052C21.4296 9.73698 21.3437 10.0469 21.1171 10.2422L16.7994 14L17.9843 19.724C18.0442 20.0156 17.9244 20.3177 17.6796 20.4896C17.5494 20.5807 17.401 20.625 17.2499 20.625Z" fill="#141414"/>
</svg>
