<svg width="22" height="16" viewBox="0 0 22 16" fill="none" xmlns="http://www.w3.org/2000/svg">
<path d="M8.26034 0.25C7.49471 0.25 6.74471 0.39323 6.03378 0.679688C5.50253 0.890626 4.94003 1 4.3645 1H4.12753C2.97388 1 1.96607 1.73958 1.62232 2.84115L0.718671 5.73438C0.226484 7.3125 0.635338 9.02865 1.78638 10.2135C2.80461 11.2578 4.12492 12.6094 4.63794 13.112L4.83586 13.3099C5.77336 14.2396 7.16398 15.6172 8.64315 15.6172C8.7369 15.6172 8.83065 15.612 8.9244 15.599C9.49992 15.5286 10.0025 15.2474 10.4218 14.763C10.6978 14.8542 10.9921 14.8984 11.2916 14.8646C11.9244 14.7891 12.4739 14.3984 12.9348 13.7109C13.5155 13.9115 14.052 13.7734 14.1718 13.7396C14.8176 13.5625 15.3515 13.1172 15.7057 12.487C16.2525 12.5755 16.828 12.4427 17.2864 12.0911H17.289L20.0468 9.94271C21.2734 8.98958 21.7864 7.34896 21.3228 5.86719L20.3775 2.84115C20.0338 1.73958 19.026 1 17.8723 1H17.6353C17.0598 1 16.4973 0.890626 15.9661 0.679688C15.2551 0.39323 14.5051 0.25 13.7395 0.25H11.4348C11.414 0.25 11.3958 0.252604 11.3749 0.252604V0.25H8.26034ZM8.26034 1.75H9.07544C8.53638 2.29167 8.1744 2.51302 7.95305 2.59896C7.15878 2.89844 6.1718 3.27083 6.18221 4.67448C6.18742 5.22656 6.52075 5.73958 7.10148 6.07812C8.26294 6.76042 10.0598 6.59115 11.9791 5.66146L16.4296 10.0573C16.651 10.276 16.651 10.6328 16.4296 10.8516C16.2109 11.0729 15.8541 11.0703 15.6353 10.8516L13.6458 8.86458C13.3541 8.57031 12.8801 8.57031 12.5859 8.86458C12.2942 9.15625 12.2942 9.63281 12.5859 9.92448L14.4062 11.7448C14.2473 12.0286 14.0286 12.224 13.776 12.2943C13.5937 12.3438 13.4166 12.3177 13.3098 12.2266C12.8879 11.8594 12.4426 11.3984 11.8228 10.7578L11.565 10.4896C11.276 10.1927 10.7994 10.1849 10.5025 10.4714C10.2057 10.7604 10.1978 11.2344 10.4869 11.5312L10.7447 11.7995C11.1275 12.1979 11.4426 12.5156 11.7395 12.8047C11.5234 13.1484 11.3046 13.3516 11.1171 13.3724C10.9452 13.3958 10.4426 13.3125 9.46346 12.1328C9.19784 11.8151 8.72648 11.7708 8.40878 12.0365C8.08846 12.3021 8.0468 12.7734 8.30982 13.0911C8.34888 13.138 8.65617 13.5391 9.1119 13.9505C8.94003 14.0859 8.80461 14.1042 8.74211 14.112C7.89055 14.2161 6.58846 12.9323 5.89315 12.2448L5.68742 12.0417C5.28898 11.651 4.31242 10.6562 2.8619 9.16667C2.09628 8.3776 1.82284 7.23177 2.15096 6.18229L3.05461 3.28906C3.20305 2.81771 3.63273 2.5 4.12753 2.5H4.3645C5.13013 2.5 5.88013 2.35677 6.59107 2.07031C7.12232 1.85937 7.68482 1.75 8.26034 1.75ZM11.4348 1.75H13.7395C14.315 1.75 14.8749 1.85937 15.4088 2.07031C16.1197 2.35677 16.8697 2.5 17.6353 2.5H17.8723C18.3671 2.5 18.7968 2.81771 18.9452 3.28906L19.8905 6.3125C20.1692 7.20313 19.8619 8.1875 19.1249 8.76042L17.9426 9.67969C17.8411 9.42969 17.69 9.19531 17.4895 8.99219L12.651 4.21615C12.4088 3.97656 12.0468 3.9401 11.7655 4.09635L11.7629 4.09375C9.62232 5.27083 8.40357 4.9974 8.08325 4.88542C7.82284 4.79427 7.71086 4.67969 7.68221 4.63542C7.68221 4.34896 7.70565 4.29427 8.48169 4.0026C9.18221 3.73698 9.93742 3.10938 10.8567 2.02344C11.0051 1.84896 11.2161 1.75 11.4348 1.75Z" fill="black"/>
</svg>
