<svg width="24" height="24" viewBox="0 0 24 24" fill="none" xmlns="http://www.w3.org/2000/svg">
<path d="M8.625 4.5C7.59115 4.5 6.75 5.34115 6.75 6.375V8.25H5.625C4.59115 8.25 3.75 9.09115 3.75 10.125V17.25C3.75 18.4896 4.76042 19.5 6 19.5H18C19.2396 19.5 20.25 18.4896 20.25 17.25V6.375C20.25 5.34115 19.4089 4.5 18.375 4.5H8.625ZM8.625 6H18.375C18.5807 6 18.75 6.16927 18.75 6.375V17.25C18.75 17.6641 18.4141 18 18 18H8.1224C8.20313 17.7656 8.25 17.513 8.25 17.25V6.375C8.25 6.16927 8.41927 6 8.625 6ZM10.125 7.5C9.71094 7.5 9.375 7.83594 9.375 8.25C9.375 8.66406 9.71094 9 10.125 9H16.875C17.2891 9 17.625 8.66406 17.625 8.25C17.625 7.83594 17.2891 7.5 16.875 7.5H10.125ZM5.625 9.75H6.75V17.25C6.75 17.6641 6.41406 18 6 18C5.58594 18 5.25 17.6641 5.25 17.25V10.125C5.25 9.91927 5.41927 9.75 5.625 9.75ZM10.125 10.125C9.71094 10.125 9.375 10.4609 9.375 10.875C9.375 11.2891 9.71094 11.625 10.125 11.625H16.875C17.2891 11.625 17.625 11.2891 17.625 10.875C17.625 10.4609 17.2891 10.125 16.875 10.125H10.125ZM10.125 12.75C9.71094 12.75 9.375 13.0859 9.375 13.5V16.125C9.375 16.5391 9.71094 16.875 10.125 16.875H12.375C12.7891 16.875 13.125 16.5391 13.125 16.125V13.5C13.125 13.0859 12.7891 12.75 12.375 12.75H10.125ZM15 12.75C14.5859 12.75 14.25 13.0859 14.25 13.5C14.25 13.9141 14.5859 14.25 15 14.25H16.875C17.2891 14.25 17.625 13.9141 17.625 13.5C17.625 13.0859 17.2891 12.75 16.875 12.75H15ZM15 15.375C14.5859 15.375 14.25 15.7109 14.25 16.125C14.25 16.5391 14.5859 16.875 15 16.875H16.875C17.2891 16.875 17.625 16.5391 17.625 16.125C17.625 15.7109 17.2891 15.375 16.875 15.375H15Z" fill="black"/>
</svg>
