<svg width="24" height="24" viewBox="0 0 24 24" fill="none" xmlns="http://www.w3.org/2000/svg">
<path d="M12.0001 0.75C11.586 0.75 11.2501 1.08594 11.2501 1.5V3.09896C9.95839 3.43229 9.00006 4.60417 9.00006 6C9.00006 7.65365 10.3464 9 12.0001 9C13.6537 9 15.0001 7.65365 15.0001 6C15.0001 4.60417 14.0417 3.43229 12.7501 3.09896V1.5C12.7501 1.08594 12.4141 0.75 12.0001 0.75ZM12.0001 4.5C12.8282 4.5 13.5001 5.17188 13.5001 6C13.5001 6.82813 12.8282 7.5 12.0001 7.5C11.1719 7.5 10.5001 6.82813 10.5001 6C10.5001 5.17188 11.1719 4.5 12.0001 4.5ZM9.65631 9.39323L7.31777 14.625H5.62506C5.21099 14.625 4.87506 14.9609 4.87506 15.375C4.87506 15.7891 5.21099 16.125 5.62506 16.125H11.2501V16.5C11.2501 16.9141 11.586 17.25 12.0001 17.25C12.4141 17.25 12.7501 16.9141 12.7501 16.5V16.125H18.3751C18.7891 16.125 19.1251 15.7891 19.1251 15.375C19.1251 14.9609 18.7891 14.625 18.3751 14.625H16.6823L14.3438 9.39323C13.935 9.67969 13.4688 9.88802 12.9714 10.0078L15.0365 14.625H12.7501V14.25C12.7501 13.8359 12.4141 13.5 12.0001 13.5C11.586 13.5 11.2501 13.8359 11.2501 14.25V14.625H8.9636L11.0287 10.0078C10.5313 9.88802 10.0652 9.67969 9.65631 9.39323ZM6.14329 17.25L4.93756 19.9427C4.77089 20.3203 4.93756 20.763 5.31777 20.9375C5.41933 20.9766 5.52349 21 5.62506 21C5.90891 21 6.18495 20.8359 6.31256 20.5573L7.78912 17.25H6.14329ZM16.211 17.25L17.6876 20.5573C17.8152 20.8359 18.0912 21 18.3751 21C18.4766 21 18.5808 20.9766 18.6823 20.9375C19.0626 20.763 19.2292 20.3203 19.0626 19.9427L17.8568 17.25H16.211Z" fill="#141414"/>
</svg>
