<svg width="20" height="14" viewBox="0 0 20 14" fill="none" xmlns="http://www.w3.org/2000/svg">
<path d="M13.604 6.79695C15.2752 6.79695 16.6287 5.32603 16.6287 3.51674C16.6287 1.73507 15.2821 0.3125 13.604 0.3125C11.9466 0.3125 10.5793 1.75579 10.5793 3.53055C10.5862 5.33294 11.9397 6.79695 13.604 6.79695ZM5.60031 6.95578C7.05741 6.95578 8.23137 5.66441 8.23137 4.0692C8.23137 2.51542 7.05741 1.25858 5.60031 1.25858C4.15702 1.25858 2.96233 2.53613 2.96924 4.0761C2.96924 5.67132 4.15011 6.95578 5.60031 6.95578ZM13.604 5.58845C12.651 5.58845 11.8431 4.69071 11.8431 3.52365C11.8431 2.39802 12.6441 1.521 13.604 1.521C14.5708 1.521 15.365 2.38421 15.365 3.51674C15.365 4.6769 14.5639 5.58845 13.604 5.58845ZM5.60031 5.76109C4.81996 5.76109 4.15702 5.01528 4.15702 4.0761C4.15702 3.17836 4.81306 2.44636 5.60031 2.44636C6.40137 2.44636 7.0505 3.16455 7.0505 4.0692C7.0505 5.01528 6.38756 5.76109 5.60031 5.76109ZM1.80218 13.3021H7.1679C6.78809 13.0811 6.53257 12.577 6.58091 12.1212H1.74002C1.60882 12.1212 1.55357 12.0591 1.55357 11.9417C1.55357 10.3603 3.4043 8.85484 5.5934 8.85484C6.36684 8.85484 7.14028 9.0482 7.73417 9.37967C7.96896 9.0413 8.259 8.75126 8.63881 8.50265C7.76179 7.96401 6.67069 7.67397 5.5934 7.67397C2.67229 7.67397 0.310547 9.75949 0.310547 12.0522C0.310547 12.8809 0.807757 13.3021 1.80218 13.3021ZM9.30176 13.3021H17.9062C19.1009 13.3021 19.681 12.9223 19.681 12.1074C19.681 10.2084 17.3055 7.68087 13.604 7.68087C9.90255 7.68087 7.52699 10.2084 7.52699 12.1074C7.52699 12.9223 8.10707 13.3021 9.30176 13.3021ZM9.08078 12.0936C8.92194 12.0936 8.85979 12.0384 8.85979 11.9141C8.85979 10.8575 10.5655 8.88937 13.604 8.88937C16.6425 8.88937 18.3482 10.8575 18.3482 11.9141C18.3482 12.0384 18.2861 12.0936 18.1203 12.0936H9.08078Z" fill="#141414"/>
</svg>
