<svg width="16" height="17" viewBox="0 0 16 17" fill="none" xmlns="http://www.w3.org/2000/svg">
<path d="M3.4624 1.71275H12.5365C12.4881 1.09124 12.1221 0.759766 11.4523 0.759766H4.5466C3.87674 0.759766 3.51074 1.09124 3.4624 1.71275ZM2.10889 3.72231H13.8969C13.8002 3.06627 13.4618 2.68645 12.7229 2.68645H3.27595C2.53704 2.68645 2.20557 3.06627 2.10889 3.72231ZM2.78564 16.7257H13.1994C14.6911 16.7257 15.4783 15.9523 15.4783 14.4745V7.113C15.4783 5.63518 14.6911 4.86175 13.1994 4.86175H2.78564C1.28711 4.86175 0.513672 5.62828 0.513672 7.113V14.4745C0.513672 15.9523 1.28711 16.7257 2.78564 16.7257ZM2.87542 15.3446C2.24009 15.3446 1.8879 15.02 1.8879 14.3502V7.23731C1.8879 6.56745 2.24009 6.23598 2.87542 6.23598H13.1097C13.745 6.23598 14.0972 6.56745 14.0972 7.23731V14.3502C14.0972 15.02 13.745 15.3446 13.1097 15.3446H2.87542Z" fill="#141414"/>
</svg>
