<svg width="24" height="24" viewBox="0 0 24 24" fill="none" xmlns="http://www.w3.org/2000/svg">
<path d="M9.26034 5.25C8.49471 5.25 7.74471 5.39323 7.03378 5.67969C6.50253 5.89063 5.94003 6 5.3645 6H5.12753C3.97388 6 2.96607 6.73958 2.62232 7.84115L1.71867 10.7344C1.22648 12.3125 1.63534 14.0286 2.78638 15.2135C3.80461 16.2578 5.12492 17.6094 5.63794 18.112L5.83586 18.3099C6.77336 19.2396 8.16398 20.6172 9.64315 20.6172C9.7369 20.6172 9.83065 20.612 9.9244 20.599C10.4999 20.5286 11.0025 20.2474 11.4218 19.763C11.6978 19.8542 11.9921 19.8984 12.2916 19.8646C12.9244 19.7891 13.4739 19.3984 13.9348 18.7109C14.5155 18.9115 15.052 18.7734 15.1718 18.7396C15.8176 18.5625 16.3515 18.1172 16.7057 17.487C17.2525 17.5755 17.828 17.4427 18.2864 17.0911H18.289L21.0468 14.9427C22.2734 13.9896 22.7864 12.349 22.3228 10.8672L21.3775 7.84115C21.0338 6.73958 20.026 6 18.8723 6H18.6353C18.0598 6 17.4973 5.89063 16.9661 5.67969C16.2551 5.39323 15.5051 5.25 14.7395 5.25H12.4348C12.414 5.25 12.3958 5.2526 12.3749 5.2526V5.25H9.26034ZM9.26034 6.75H10.0754C9.53638 7.29167 9.1744 7.51302 8.95305 7.59896C8.15878 7.89844 7.1718 8.27083 7.18221 9.67448C7.18742 10.2266 7.52075 10.7396 8.10148 11.0781C9.26294 11.7604 11.0598 11.5911 12.9791 10.6615L17.4296 15.0573C17.651 15.276 17.651 15.6328 17.4296 15.8516C17.2109 16.0729 16.8541 16.0703 16.6353 15.8516L14.6458 13.8646C14.3541 13.5703 13.8801 13.5703 13.5859 13.8646C13.2942 14.1562 13.2942 14.6328 13.5859 14.9245L15.4062 16.7448C15.2473 17.0286 15.0286 17.224 14.776 17.2943C14.5937 17.3438 14.4166 17.3177 14.3098 17.2266C13.8879 16.8594 13.4426 16.3984 12.8228 15.7578L12.565 15.4896C12.276 15.1927 11.7994 15.1849 11.5025 15.4714C11.2057 15.7604 11.1978 16.2344 11.4869 16.5312L11.7447 16.7995C12.1275 17.1979 12.4426 17.5156 12.7395 17.8047C12.5234 18.1484 12.3046 18.3516 12.1171 18.3724C11.9452 18.3958 11.4426 18.3125 10.4635 17.1328C10.1978 16.8151 9.72648 16.7708 9.40878 17.0365C9.08846 17.3021 9.0468 17.7734 9.30982 18.0911C9.34888 18.138 9.65617 18.5391 10.1119 18.9505C9.94003 19.0859 9.80461 19.1042 9.74211 19.112C8.89055 19.2161 7.58846 17.9323 6.89315 17.2448L6.68742 17.0417C6.28898 16.651 5.31242 15.6562 3.8619 14.1667C3.09628 13.3776 2.82284 12.2318 3.15096 11.1823L4.05461 8.28906C4.20305 7.81771 4.63273 7.5 5.12753 7.5H5.3645C6.13013 7.5 6.88013 7.35677 7.59107 7.07031C8.12232 6.85937 8.68482 6.75 9.26034 6.75ZM12.4348 6.75H14.7395C15.315 6.75 15.8749 6.85937 16.4088 7.07031C17.1197 7.35677 17.8697 7.5 18.6353 7.5H18.8723C19.3671 7.5 19.7968 7.81771 19.9452 8.28906L20.8905 11.3125C21.1692 12.2031 20.8619 13.1875 20.1249 13.7604L18.9426 14.6797C18.8411 14.4297 18.69 14.1953 18.4895 13.9922L13.651 9.21615C13.4088 8.97656 13.0468 8.9401 12.7655 9.09635L12.7629 9.09375C10.6223 10.2708 9.40357 9.9974 9.08325 9.88542C8.82284 9.79427 8.71086 9.67969 8.68221 9.63542C8.68221 9.34896 8.70565 9.29427 9.48169 9.0026C10.1822 8.73698 10.9374 8.10938 11.8567 7.02344C12.0051 6.84896 12.2161 6.75 12.4348 6.75Z" fill="#141414"/>
</svg>
