<svg width="22" height="17" viewBox="0 0 22 17" fill="none" xmlns="http://www.w3.org/2000/svg">
<path d="M16.9044 15.1065C16.5423 15.1065 16.1804 14.9952 15.8461 14.8001L12.0312 12.294C11.7526 12.099 11.6691 11.7091 11.8641 11.4308C12.0591 11.1523 12.449 11.0687 12.7273 11.2638L16.5145 13.7699C16.7651 13.9369 17.1271 13.9092 17.3777 13.6864C17.6283 13.4636 18.0181 13.4636 18.2689 13.7421C18.4917 13.9927 18.4917 14.3825 18.2132 14.6333C17.8513 14.9394 17.3777 15.1065 16.9044 15.1065L16.9044 15.1065Z" fill="#141414"/>
<path d="M14.4259 17.0004C14.0639 17.0004 13.702 16.9168 13.3957 16.694L11.1401 15.2182C10.8616 15.0231 10.778 14.6333 10.9451 14.3549C11.1401 14.0764 11.53 13.9929 11.8083 14.1599L14.0638 15.6358C14.3979 15.8308 14.8435 15.7471 15.0386 15.413C15.2336 15.1067 15.6235 15.0232 15.9018 15.218C16.2081 15.413 16.2916 15.8029 16.0968 16.0812C15.7347 16.6661 15.0943 17.0003 14.4259 17.0003L14.4259 17.0004Z" fill="#141414"/>
<path d="M19.3842 13.1568C18.8274 13.1568 18.1869 12.9617 17.4628 12.5163L13.8984 10.1493C13.6198 9.95423 13.5363 9.56437 13.7313 9.28605C13.9263 9.0075 14.3162 8.92398 14.5945 9.119L18.1311 11.4861C18.6603 11.7924 19.607 12.2658 20.1083 11.5696C20.4147 11.124 20.3589 10.5114 20.1641 10.3443C19.8855 10.1215 19.83 9.73167 20.0528 9.4531C20.2756 9.17455 20.6654 9.119 20.944 9.3418C21.7237 9.95443 21.8352 11.319 21.1668 12.2658C20.7766 12.7669 20.1919 13.1568 19.3842 13.1568H19.3842Z" fill="#141414"/>
<path d="M19.7461 10.456C19.6348 10.456 19.5233 10.4282 19.412 10.3447L14.9564 7.5322C14.7893 7.4209 13.4805 6.641 12.8956 5.3044C12.1717 5.5272 11.4475 5.75 10.6401 6.05632L10.5566 6.08409C9.69335 6.39042 8.05044 7.00304 7.10349 5.91704C6.60235 5.33216 6.40732 4.77527 6.51861 4.19058C6.74141 3.13235 7.91095 2.54767 8.8577 2.07427C9.05272 1.99074 9.21977 1.90722 9.35884 1.82369L9.55386 1.71239C10.25 1.32254 10.974 0.904927 11.6424 0.459326C13.146 -0.543163 14.8169 0.403578 14.9005 0.43155C14.9005 0.43155 14.9282 0.431549 14.9282 0.459326C14.9282 0.459326 16.3484 1.37827 17.6017 1.96296C18.4371 2.35281 19.3561 2.10223 20.3585 1.82369C20.5813 1.76794 20.7762 1.71238 20.999 1.65663C21.3331 1.57311 21.6674 1.76794 21.7509 2.13001C21.8344 2.46411 21.6396 2.79838 21.2775 2.88192C21.0825 2.93767 20.8877 2.99323 20.6649 3.04897C19.5511 3.3553 18.2978 3.6894 17.0447 3.10472C15.7917 2.51984 14.4271 1.65663 14.2322 1.51735C14.1209 1.4616 13.1185 0.960461 12.3108 1.48957C11.6146 1.96295 10.8627 2.38077 10.1387 2.77063L9.97165 2.88193C9.8046 2.96546 9.60958 3.07696 9.41476 3.16048C8.77434 3.46681 7.82739 3.9402 7.74385 4.41354C7.6881 4.63634 7.88312 4.88692 8.05018 5.08192C8.41225 5.49954 9.52606 5.1097 10.1109 4.8869L10.1944 4.85912C11.2527 4.46927 12.1994 4.16295 13.1184 3.91237C13.2854 3.85663 13.4525 3.8846 13.6195 3.96812C13.7588 4.05165 13.8701 4.19092 13.8981 4.35797C14.1766 5.61103 15.569 6.39074 15.569 6.41869C15.569 6.41869 15.5968 6.41869 15.5968 6.44647L19.8296 9.11987L21.9738 8.53499C22.3079 8.45146 22.6422 8.64629 22.7535 8.98058C22.8371 9.31468 22.6422 9.64896 22.3079 9.76029L19.9131 10.4287C19.8574 10.4559 19.8018 10.4559 19.7461 10.4559L19.7461 10.456Z" fill="#141414"/>
<path d="M7.24326 15.7193C6.4358 15.7193 5.23828 15.1624 5.23828 13.6308V12.3498C5.23828 12.2662 5.23828 11.4586 5.82317 10.8739C6.07374 10.6233 6.51934 10.3447 7.21551 10.3447C7.74465 10.3447 8.218 10.5118 8.55211 10.8739C9.137 11.4588 9.137 12.2662 9.137 12.3775V13.6586C9.137 14.466 8.83067 14.9396 8.55211 15.1902C8.07874 15.6915 7.41054 15.7193 7.24331 15.7193H7.24326ZM7.24326 11.598C6.90916 11.598 6.76989 11.7373 6.74211 11.7651C6.51931 11.9879 6.51931 12.35 6.51931 12.35V13.631C6.51931 14.3272 6.99269 14.4385 7.27123 14.4665C7.57756 14.4665 7.93961 14.3272 7.93961 13.631V12.35C7.91163 12.0714 7.82811 11.5981 7.24323 11.5981L7.24326 11.598Z" fill="#141414"/>
<path d="M4.59677 14.02C4.569 14.02 4.569 14.02 4.59677 14.02C3.78931 14.02 2.5918 13.4632 2.5918 11.9315V11.4582C2.5918 11.3746 2.5918 10.567 3.17668 9.98227C3.42726 9.73169 3.87285 9.45312 4.56903 9.45312C5.09817 9.45312 5.57152 9.62018 5.90563 9.98227C6.49051 10.5672 6.49051 11.3746 6.49051 11.4859V11.9593C6.49051 12.7667 6.18419 13.2403 5.90563 13.4909C5.40448 13.9922 4.73606 14.02 4.59682 14.02H4.59677ZM4.569 10.7062C4.23489 10.7062 4.09563 10.8455 4.06785 10.8733C3.84505 11.0961 3.84505 11.4581 3.84505 11.4581V11.9315C3.84505 12.6834 4.40194 12.767 4.56902 12.767C4.87535 12.767 5.2374 12.6277 5.2374 11.9315V11.4581C5.26518 11.1798 5.15368 10.7062 4.56902 10.7062L4.569 10.7062Z" fill="#141414"/>
<path d="M9.91513 16.554C9.91513 16.554 9.88736 16.554 9.91513 16.554C9.10767 16.554 7.91016 15.9971 7.91016 14.4654V13.5187C7.91016 13.4352 7.91016 12.6275 8.49504 12.0428C8.74562 11.7922 9.19121 11.5137 9.88739 11.5137C10.4165 11.5137 10.8899 11.6807 11.224 12.0428C11.8089 12.6277 11.8089 13.4352 11.8089 13.5464V14.5212C11.8089 15.3286 11.5025 15.8022 11.224 16.0528C10.7506 16.5262 10.0822 16.554 9.91518 16.554H9.91513ZM9.91513 12.739C9.58103 12.739 9.44176 12.8783 9.41399 12.906C9.19119 13.1288 9.19119 13.4909 9.19119 13.4909V14.4657C9.19119 15.1618 9.66456 15.2731 9.94311 15.3011C10.2494 15.3011 10.6115 15.1618 10.6115 14.4657L10.6113 13.5187C10.5835 13.2402 10.4998 12.739 9.91511 12.739L9.91513 12.739Z" fill="#141414"/>
<path d="M5.57038 3.55025C5.51463 3.55025 5.43111 3.55025 5.37536 3.52247C5.37536 3.52247 4.0943 3.10484 3.42613 2.88204C3.09202 2.77074 2.92498 2.40867 3.03628 2.10233C3.14758 1.76822 3.50965 1.60118 3.81599 1.71248C4.31714 1.87953 5.20834 2.18585 5.59819 2.29736L9.97026 1.35062C10.3044 1.26709 10.6386 1.48989 10.7222 1.82399C10.8057 2.15809 10.5829 2.49237 10.2488 2.57591L5.70971 3.55065C5.68173 3.55026 5.62599 3.55026 5.57043 3.55026L5.57038 3.55025Z" fill="#141414"/>
<path d="M3.20449 11.0961C3.09319 11.0961 2.98169 11.0683 2.87039 10.9848L0.280727 9.31385C0.00217883 9.11883 -0.0813423 8.72897 0.0857044 8.45065C0.252756 8.1721 0.670589 8.08858 0.948909 8.25563L3.53857 9.92654C3.81712 10.1216 3.90064 10.5114 3.73359 10.7897C3.62229 10.9848 3.42727 11.0961 3.20445 11.0961H3.20449Z" fill="#141414"/>
</svg>
