<svg width="16" height="19" viewBox="0 0 16 19" fill="none" xmlns="http://www.w3.org/2000/svg">
<path d="M0.804688 16.2406C0.804688 17.7391 1.57812 18.5126 3.05594 18.5126H9.51967C10.9975 18.5126 11.7709 17.7322 11.7709 16.2406V14.963H12.9449C14.4227 14.963 15.1961 14.1827 15.1961 12.6911V7.22865C15.1961 6.3171 15.0028 5.73703 14.4572 5.17766L11.0182 1.66957C10.4934 1.13783 9.87186 0.930664 9.07771 0.930664H6.48117C5.00335 0.930664 4.22991 1.71101 4.22991 3.20954V4.48019H3.05594C1.57812 4.48019 0.804688 5.26744 0.804688 6.75907V16.2406ZM11.0735 8.97579L7.33057 5.17766C6.80573 4.64593 6.35686 4.50091 5.60414 4.4871V3.29241C5.60414 2.66399 5.93562 2.3118 6.59856 2.3118H9.47824V5.59201C9.47824 6.44831 9.93401 6.89718 10.7834 6.89718H13.815V12.6013C13.815 13.2366 13.4835 13.5888 12.8206 13.5888H11.7709V10.937C11.7709 10.0047 11.6535 9.56968 11.0735 8.97579ZM10.6177 5.41936V2.87116L13.4559 5.75774H10.9561C10.7144 5.75774 10.6177 5.66106 10.6177 5.41936ZM2.17892 16.1508V6.84884C2.17892 6.21352 2.51039 5.86133 3.18025 5.86133H5.28648V9.61802C5.28648 10.6193 5.77679 11.1027 6.77121 11.1027H10.3967V16.1508C10.3967 16.7861 10.0652 17.1383 9.39537 17.1383H3.17334C2.51039 17.1383 2.17892 16.7861 2.17892 16.1508ZM6.90241 9.89425C6.61928 9.89425 6.49498 9.77686 6.49498 9.48682V6.12374L10.2102 9.89425H6.90241Z" fill="#141414"/>
</svg>
