<svg width="24" height="24" viewBox="0 0 24 24" fill="none" xmlns="http://www.w3.org/2000/svg">
<path d="M8.25 4.125C7.14583 4.125 6.13281 4.6901 5.60937 5.60417C5.40365 5.95833 5.16406 6.53646 5.03125 6.91927C4.91146 7.2474 3.07813 11.349 1.95313 13.8568L1.96094 13.8542C1.66927 14.4323 1.5 15.0729 1.5 15.75C1.5 18.2318 3.6875 20.25 6.375 20.25C9.0625 20.25 11.25 18.2318 11.25 15.75V14.3724C11.4505 14.3099 11.7109 14.25 12 14.25C12.2891 14.25 12.5495 14.3099 12.75 14.3724V15.75C12.75 18.2318 14.9375 20.25 17.625 20.25C20.3125 20.25 22.5 18.2318 22.5 15.75C22.5 15.0729 22.3307 14.4323 22.0391 13.8542L22.0469 13.8568C20.9219 11.349 19.0885 7.2474 18.9688 6.92448C18.8359 6.53646 18.5964 5.95833 18.3906 5.60417C17.8672 4.6901 16.8542 4.125 15.75 4.125C14.1354 4.125 12.8177 5.32813 12.7552 6.82813C12.526 6.78125 12.2734 6.75 12 6.75C11.7266 6.75 11.474 6.78125 11.2448 6.82813C11.1823 5.32813 9.86458 4.125 8.25 4.125ZM12 8.25C12.2891 8.25 12.5495 8.3099 12.75 8.3724V9.82552C12.5208 9.78125 12.2708 9.75 12 9.75C11.7292 9.75 11.4792 9.78125 11.25 9.82552V8.3724C11.4505 8.3099 11.7109 8.25 12 8.25ZM6.375 12.75C8.23698 12.75 9.75 14.0964 9.75 15.75C9.75 17.4036 8.23698 18.75 6.375 18.75C4.51302 18.75 3 17.4036 3 15.75C3 14.0964 4.51302 12.75 6.375 12.75ZM17.625 12.75C19.487 12.75 21 14.0964 21 15.75C21 17.4036 19.487 18.75 17.625 18.75C15.763 18.75 14.25 17.4036 14.25 15.75C14.25 14.0964 15.763 12.75 17.625 12.75Z" fill="#141414"/>
</svg>
