<svg width="24" height="24" viewBox="0 0 24 24" fill="none" xmlns="http://www.w3.org/2000/svg">
<path fill-rule="evenodd" clip-rule="evenodd" d="M4.74219 5.35158C5.32031 5.0521 6.03125 4.90106 6.88021 4.90106H17.1536C18 4.90106 18.7135 5.0521 19.2891 5.35158C19.8646 5.65106 20.2995 6.08856 20.5911 6.66408C20.8854 7.24221 21.0312 7.94533 21.0312 8.78127V14.8021C21.0312 15.6354 20.8854 16.3412 20.5911 16.9167C20.2995 17.4922 19.8646 17.9323 19.2891 18.2318C18.7135 18.5313 18 18.6823 17.1536 18.6823H12.2891L9.51823 21.1641C9.23438 21.4193 9 21.6068 8.8151 21.7292C8.6276 21.849 8.42187 21.9089 8.19271 21.9089C7.86979 21.9089 7.61979 21.8047 7.44271 21.5938C7.26823 21.3828 7.17969 21.099 7.17969 20.7396V18.6823H6.88021C6.03125 18.6823 5.32031 18.5313 4.74219 18.2318C4.16667 17.9323 3.73437 17.4922 3.4401 16.9167C3.14583 16.3412 3 15.6354 3 14.8021V8.78127C3 7.94533 3.14583 7.24221 3.4401 6.66408C3.73177 6.08856 4.16667 5.65106 4.74219 5.35158ZM7.396 9.16929C7.396 8.87502 7.62516 8.65106 7.91423 8.65106H16.0965C16.3908 8.65106 16.6147 8.88023 16.6147 9.16929C16.6147 9.45835 16.3908 9.69533 16.0965 9.69533H7.91423C7.61995 9.69533 7.396 9.45835 7.396 9.16929ZM7.396 11.8073C7.396 11.5182 7.61995 11.2787 7.91423 11.2787H16.0991C16.3908 11.2787 16.6147 11.5182 16.6147 11.8073C16.6147 12.0964 16.3908 12.336 16.0991 12.336H7.91423C7.61995 12.336 7.396 12.0964 7.396 11.8073ZM7.396 14.4557C7.396 14.2344 7.55225 13.9167 7.91423 13.9167H13.2111C13.5731 13.9167 13.7293 14.237 13.7293 14.4557C13.7293 14.75 13.5002 14.974 13.2111 14.974H7.91423C7.61995 14.974 7.396 14.7448 7.396 14.4557Z" fill="#141414"/>
</svg>
