<svg width="17" height="17" viewBox="0 0 17 17" fill="none" xmlns="http://www.w3.org/2000/svg">
<path d="M11.9821 0.143216C11.4222 0.14582 10.9587 0.447903 10.6384 0.776028C9.2764 0.567695 6.654 0.869779 5.38056 3.51301C4.68786 5.09374 3.39879 8.03645 2.14098 8.14322C2.05244 8.15103 1.96911 8.17447 1.88838 8.21092C1.76598 8.26822 0.67744 8.80728 0.203482 10.112C0.0602529 10.5 0.260774 10.9323 0.651398 11.0729L7.08369 13.414C6.78942 14.6536 7.4665 15.9479 8.69046 16.3932C9.91442 16.8385 11.2634 16.2812 11.8363 15.1432L14.7451 16.2031C15.1358 16.3437 15.5655 16.1432 15.7061 15.7552C16.1826 14.4479 15.6957 13.3385 15.6384 13.2135C15.6019 13.1354 15.5498 13.0625 15.4873 13.0026C14.5915 12.1094 15.4951 9.02863 15.9873 7.34634C16.7061 4.52603 14.891 2.61197 13.7139 1.89322C13.667 1.28645 13.3962 0.546861 12.5733 0.247383C12.3675 0.171861 12.1696 0.140612 11.9821 0.143216ZM11.9821 1.64061C12.0056 1.64322 12.0316 1.64842 12.0576 1.65624C12.2712 1.73436 12.2504 1.97394 12.2113 2.21353C12.154 2.56509 12.3493 2.92707 12.6931 3.05207C12.7191 3.05988 15.2243 4.26561 14.542 6.95051C13.7035 9.80988 13.0576 12.4974 14.3076 13.9375C14.3441 14.0443 14.3962 14.2396 14.4092 14.4844L2.01338 9.97395C2.18004 9.79165 2.34671 9.67707 2.44046 9.61717C4.32588 9.3203 5.55765 6.84634 6.74254 4.14061C7.95869 1.61978 10.6514 2.30728 10.6774 2.31769C11.016 2.44009 11.4066 2.28124 11.5811 1.99217C11.6879 1.81769 11.8103 1.6328 11.9821 1.64061ZM8.52119 13.9375L10.3988 14.6198C10.128 14.9818 9.64619 15.1458 9.20348 14.9844C8.75817 14.8229 8.49515 14.388 8.52119 13.9375Z" fill="black"/>
</svg>
