<svg width="24" height="24" viewBox="0 0 24 24" fill="none" xmlns="http://www.w3.org/2000/svg">
<path d="M10.0233 18.1901L14.3827 19.7786C13.7056 20.4714 12.6587 20.7474 11.69 20.3932C10.7212 20.0417 10.0988 19.1589 10.0233 18.1901ZM18.6379 17.2161C18.6952 17.3385 19.1822 18.4505 18.7056 19.7552C18.565 20.1432 18.1353 20.3438 17.7447 20.2031L3.65091 15.0729C3.26029 14.9323 3.05976 14.5 3.20299 14.112C3.67695 12.8073 4.76549 12.2682 4.88789 12.2109C4.96862 12.1745 5.05456 12.151 5.14049 12.1432C6.39831 12.0365 7.68737 9.09375 8.38008 7.51302C9.65351 4.86979 12.2759 4.56771 13.6405 4.77604C14.065 4.33854 14.7473 3.94792 15.5728 4.2474C16.3957 4.54687 16.6665 5.28646 16.7134 5.89323C17.8905 6.61198 19.7056 8.52344 18.9868 11.3464C18.4947 13.0286 17.591 16.1094 18.4868 17.0026C18.5493 17.0625 18.6014 17.1354 18.6379 17.2161Z" fill="#141414"/>
</svg>
