<svg width="24" height="24" viewBox="0 0 24 24" fill="none" xmlns="http://www.w3.org/2000/svg">
<path d="M14.9816 4.14322C14.4217 4.14582 13.9582 4.4479 13.6379 4.77603C12.2759 4.56769 9.65351 4.86978 8.38008 7.51301C7.68737 9.09374 6.39831 12.0364 5.14049 12.1432C5.05195 12.151 4.96862 12.1745 4.88789 12.2109C4.76549 12.2682 3.67695 12.8073 3.20299 14.112C3.05976 14.5 3.26029 14.9323 3.65091 15.0729L10.0832 17.414C9.78893 18.6536 10.466 19.9479 11.69 20.3932C12.9139 20.8385 14.2629 20.2812 14.8358 19.1432L17.7447 20.2031C18.1353 20.3437 18.565 20.1432 18.7056 19.7552C19.1822 18.4479 18.6952 17.3385 18.6379 17.2135C18.6014 17.1354 18.5493 17.0625 18.4868 17.0026C17.591 16.1094 18.4947 13.0286 18.9868 11.3463C19.7056 8.52603 17.8905 6.61197 16.7134 5.89322C16.6665 5.28645 16.3957 4.54686 15.5728 4.24738C15.3671 4.17186 15.1691 4.14061 14.9816 4.14322ZM14.9816 5.64061C15.0051 5.64322 15.0311 5.64842 15.0572 5.65624C15.2707 5.73436 15.2499 5.97394 15.2108 6.21353C15.1535 6.56509 15.3488 6.92707 15.6926 7.05207C15.7186 7.05988 18.2238 8.26561 17.5415 10.9505C16.703 13.8099 16.0572 16.4974 17.3072 17.9375C17.3436 18.0443 17.3957 18.2396 17.4087 18.4844L5.01289 13.9739C5.17956 13.7917 5.34622 13.6771 5.43997 13.6172C7.32539 13.3203 8.55716 10.8463 9.74206 8.14061C10.9582 5.61978 13.6509 6.30728 13.677 6.31769C14.0155 6.44009 14.4061 6.28124 14.5806 5.99217C14.6874 5.81769 14.8098 5.6328 14.9816 5.64061ZM11.5207 17.9375L13.3983 18.6198C13.1275 18.9818 12.6457 19.1458 12.203 18.9844C11.7577 18.8229 11.4947 18.388 11.5207 17.9375Z" fill="#141414"/>
</svg>
