<svg width="19" height="18" viewBox="0 0 19 18" fill="none" xmlns="http://www.w3.org/2000/svg">
<path d="M3.88021 0.901031C3.03125 0.901031 2.32031 1.05207 1.74219 1.35155C1.16667 1.65103 0.731771 2.08853 0.440104 2.66405C0.145833 3.24218 0 3.9453 0 4.78124V10.8021C0 11.6354 0.145833 12.3411 0.440104 12.9167C0.734375 13.4922 1.16667 13.9323 1.74219 14.2318C2.32031 14.5312 3.03125 14.6823 3.88021 14.6823H4.17969V16.7396C4.17969 17.0989 4.26823 17.3828 4.44271 17.5937C4.61979 17.8047 4.86979 17.9088 5.19271 17.9088C5.42187 17.9088 5.6276 17.8489 5.8151 17.7292C6 17.6068 6.23437 17.4193 6.51823 17.1641L9.28906 14.6823H14.1536C15 14.6823 15.7135 14.5312 16.2891 14.2318C16.8646 13.9323 17.2995 13.4922 17.5911 12.9167C17.8854 12.3411 18.0312 11.6354 18.0312 10.8021V4.78124C18.0312 3.9453 17.8854 3.24218 17.5911 2.66405C17.2995 2.08853 16.8646 1.65103 16.2891 1.35155C15.7135 1.05207 15 0.901031 14.1536 0.901031H3.88021ZM3.88021 2.40103H14.1536C14.987 2.40103 15.5938 2.59895 15.974 2.99739C16.3542 3.39322 16.5443 3.98697 16.5443 4.78124V10.8021C16.5443 11.5937 16.3542 12.1927 15.974 12.5911C15.5938 12.9922 14.987 13.1927 14.1536 13.1927H9.20833C8.96094 13.1927 8.75781 13.2161 8.60417 13.2682C8.44792 13.3203 8.28646 13.4375 8.1224 13.6146L5.57552 16.2135V13.8854C5.57552 13.6302 5.52344 13.4505 5.41667 13.3463C5.3099 13.2422 5.13021 13.1927 4.88281 13.1927H3.88021C3.04427 13.1927 2.4375 12.9922 2.0599 12.5911C1.67969 12.1927 1.48958 11.5937 1.48958 10.8021V4.78124C1.48958 3.98697 1.67969 3.39322 2.0599 2.99739C2.4375 2.59895 3.04427 2.40103 3.88021 2.40103ZM4.91406 4.65103C4.625 4.65103 4.39583 4.87499 4.39583 5.16926C4.39583 5.45832 4.61979 5.6953 4.91406 5.6953H13.0964C13.3906 5.6953 13.6146 5.45832 13.6146 5.16926C13.6146 4.8802 13.3906 4.65103 13.0964 4.65103H4.91406ZM4.91406 7.27864C4.61979 7.27864 4.39583 7.51822 4.39583 7.80728C4.39583 8.09634 4.61979 8.33593 4.91406 8.33593H13.099C13.3906 8.33593 13.6146 8.09634 13.6146 7.80728C13.6146 7.51822 13.3906 7.27864 13.099 7.27864H4.91406ZM4.91406 9.91666C4.55208 9.91666 4.39583 10.2344 4.39583 10.4557C4.39583 10.7448 4.61979 10.9739 4.91406 10.9739H10.2109C10.5 10.9739 10.7292 10.75 10.7292 10.4557C10.7292 10.237 10.5729 9.91666 10.2109 9.91666H4.91406Z" fill="black"/>
</svg>
