<svg width="24" height="24" viewBox="0 0 24 24" fill="none" xmlns="http://www.w3.org/2000/svg">
<path d="M6.88021 4.90106C6.03125 4.90106 5.32031 5.0521 4.74219 5.35158C4.16667 5.65106 3.73177 6.08856 3.4401 6.66408C3.14583 7.24221 3 7.94533 3 8.78127V14.8021C3 15.6354 3.14583 16.3412 3.4401 16.9167C3.73437 17.4922 4.16667 17.9323 4.74219 18.2318C5.32031 18.5313 6.03125 18.6823 6.88021 18.6823H7.17969V20.7396C7.17969 21.099 7.26823 21.3828 7.44271 21.5938C7.61979 21.8047 7.86979 21.9089 8.19271 21.9089C8.42187 21.9089 8.6276 21.849 8.8151 21.7292C9 21.6068 9.23437 21.4193 9.51823 21.1641L12.2891 18.6823H17.1536C18 18.6823 18.7135 18.5313 19.2891 18.2318C19.8646 17.9323 20.2995 17.4922 20.5911 16.9167C20.8854 16.3412 21.0312 15.6354 21.0312 14.8021V8.78127C21.0312 7.94533 20.8854 7.24221 20.5911 6.66408C20.2995 6.08856 19.8646 5.65106 19.2891 5.35158C18.7135 5.0521 18 4.90106 17.1536 4.90106H6.88021ZM6.88021 6.40106H17.1536C17.987 6.40106 18.5938 6.59898 18.974 6.99742C19.3542 7.39325 19.5443 7.987 19.5443 8.78127V14.8021C19.5443 15.5938 19.3542 16.1927 18.974 16.5912C18.5938 16.9922 17.987 17.1927 17.1536 17.1927H12.2083C11.9609 17.1927 11.7578 17.2162 11.6042 17.2682C11.4479 17.3203 11.2865 17.4375 11.1224 17.6146L8.57552 20.2136V17.8854C8.57552 17.6302 8.52344 17.4505 8.41667 17.3464C8.3099 17.2422 8.13021 17.1927 7.88281 17.1927H6.88021C6.04427 17.1927 5.4375 16.9922 5.0599 16.5912C4.67969 16.1927 4.48958 15.5938 4.48958 14.8021V8.78127C4.48958 7.987 4.67969 7.39325 5.0599 6.99742C5.4375 6.59898 6.04427 6.40106 6.88021 6.40106ZM7.91406 8.65106C7.625 8.65106 7.39583 8.87502 7.39583 9.16929C7.39583 9.45835 7.61979 9.69533 7.91406 9.69533H16.0964C16.3906 9.69533 16.6146 9.45835 16.6146 9.16929C16.6146 8.88023 16.3906 8.65106 16.0964 8.65106H7.91406ZM7.91406 11.2787C7.61979 11.2787 7.39583 11.5182 7.39583 11.8073C7.39583 12.0964 7.61979 12.336 7.91406 12.336H16.099C16.3906 12.336 16.6146 12.0964 16.6146 11.8073C16.6146 11.5182 16.3906 11.2787 16.099 11.2787H7.91406ZM7.91406 13.9167C7.55208 13.9167 7.39583 14.2344 7.39583 14.4557C7.39583 14.7448 7.61979 14.974 7.91406 14.974H13.2109C13.5 14.974 13.7292 14.75 13.7292 14.4557C13.7292 14.237 13.5729 13.9167 13.2109 13.9167H7.91406Z" fill="#141414"/>
</svg>
