<svg width="22" height="17" viewBox="0 0 22 17" fill="none" xmlns="http://www.w3.org/2000/svg">
<path d="M5.5851 15.408C5.97872 15.408 6.32401 15.2423 6.8005 14.8279L9.01723 12.8529C9.52825 13.3846 10.2948 13.6678 11.2547 13.6678H13.6164L15.916 15.6428C16.3718 16.0295 16.6964 16.2436 17.0693 16.2436C17.6217 16.2436 17.9463 15.85 17.9463 15.2492V13.6678H18.264C20.0042 13.6678 21.1643 12.6043 21.1643 10.8157V6.59633C21.1643 4.78013 19.9835 3.68903 18.2087 3.68903H17.0071V3.24016C17.0071 1.36182 15.8539 0.25 13.9617 0.25H3.87939C2.04248 0.25 0.833984 1.36182 0.833984 3.24016V9.70389C0.833984 11.5546 2.02176 12.6526 3.82415 12.6526H4.69427V14.4205C4.69427 15.0282 5.02574 15.408 5.5851 15.408ZM5.93039 11.9759C5.93039 11.5615 5.67487 11.3474 5.32959 11.3474H4.04513C2.89879 11.3474 2.20822 10.7052 2.20822 9.51053V3.39209C2.20822 2.19741 2.90569 1.54827 4.04513 1.54827H13.7891C14.9354 1.54827 15.626 2.19741 15.626 3.39209V3.68903H11.2547C9.41776 3.68903 8.29904 4.78013 8.29904 6.59633V10.8157C8.29904 11.1057 8.32666 11.3682 8.38191 11.6168L5.93039 13.9095V11.9759ZM16.7171 14.745L14.5556 12.7838C14.2517 12.5076 13.9962 12.3833 13.5888 12.3833H11.3997C10.3155 12.3833 9.65946 11.7825 9.65946 10.6362V6.72754C9.65946 5.59501 10.3155 4.9804 11.3997 4.9804H18.0568C19.1479 4.9804 19.8039 5.59501 19.8039 6.72754V10.6362C19.8039 11.7756 19.141 12.3833 18.0568 12.3833H17.311C16.9726 12.3833 16.7171 12.5905 16.7171 13.0048V14.745Z" fill="#141414"/>
</svg>
