<svg width="16" height="21" viewBox="0 0 16 21" fill="none" xmlns="http://www.w3.org/2000/svg">
<path d="M8.00006 0.75C7.58599 0.75 7.25006 1.08594 7.25006 1.5V3.09896C5.95839 3.43229 5.00006 4.60417 5.00006 6C5.00006 7.65365 6.34641 9 8.00006 9C9.6537 9 11.0001 7.65365 11.0001 6C11.0001 4.60417 10.0417 3.43229 8.75006 3.09896V1.5C8.75006 1.08594 8.41412 0.75 8.00006 0.75ZM8.00006 4.5C8.82818 4.5 9.50006 5.17188 9.50006 6C9.50006 6.82813 8.82818 7.5 8.00006 7.5C7.17193 7.5 6.50006 6.82813 6.50006 6C6.50006 5.17188 7.17193 4.5 8.00006 4.5ZM5.65631 9.39323L3.31777 14.625H1.62506C1.21099 14.625 0.875057 14.9609 0.875057 15.375C0.875057 15.7891 1.21099 16.125 1.62506 16.125H7.25006V16.5C7.25006 16.9141 7.58599 17.25 8.00006 17.25C8.41412 17.25 8.75006 16.9141 8.75006 16.5V16.125H14.3751C14.7891 16.125 15.1251 15.7891 15.1251 15.375C15.1251 14.9609 14.7891 14.625 14.3751 14.625H12.6823L10.3438 9.39323C9.93495 9.67969 9.46881 9.88802 8.97141 10.0078L11.0365 14.625H8.75006V14.25C8.75006 13.8359 8.41412 13.5 8.00006 13.5C7.58599 13.5 7.25006 13.8359 7.25006 14.25V14.625H4.9636L7.0287 10.0078C6.53131 9.88802 6.06516 9.67969 5.65631 9.39323ZM2.14329 17.25L0.937557 19.9427C0.770891 20.3203 0.937557 20.763 1.31777 20.9375C1.41933 20.9766 1.52349 21 1.62506 21C1.90891 21 2.18495 20.8359 2.31256 20.5573L3.78912 17.25H2.14329ZM12.211 17.25L13.6876 20.5573C13.8152 20.8359 14.0912 21 14.3751 21C14.4766 21 14.5808 20.9766 14.6823 20.9375C15.0626 20.763 15.2292 20.3203 15.0626 19.9427L13.8568 17.25H12.211Z" fill="black"/>
</svg>
