<svg width="20" height="19" viewBox="0 0 20 19" fill="none" xmlns="http://www.w3.org/2000/svg">
<path d="M15.2504 18.125C15.1124 18.125 14.977 18.0885 14.8546 18.013L10.0004 14.9922L5.14625 18.013C4.89104 18.1693 4.56813 18.1615 4.32073 17.9896C4.07594 17.8177 3.95615 17.5156 4.01604 17.224L5.20094 11.5L0.883232 7.74219C0.656669 7.54688 0.570732 7.23438 0.659273 6.95052C0.750419 6.66667 1.00042 6.46094 1.2999 6.43229L7.02907 5.84635L9.31292 0.578125C9.43011 0.302083 9.70094 0.125 10.0004 0.125C10.2999 0.125 10.5707 0.302083 10.6879 0.578125L12.9718 5.84635L18.7009 6.43229C18.9978 6.46094 19.2504 6.66667 19.339 6.95052C19.4301 7.23698 19.3442 7.54688 19.1176 7.74219L14.7999 11.5L15.9848 17.224C16.0447 17.5156 15.9249 17.8177 15.6801 17.9896C15.5499 18.0807 15.4015 18.125 15.2504 18.125ZM10.0004 13.3594C10.1384 13.3594 10.2739 13.3984 10.3963 13.474L14.1619 15.8151L13.2426 11.3724C13.1879 11.1068 13.2791 10.8333 13.4848 10.6562L16.8285 7.7474L12.3806 7.29427C12.1124 7.26563 11.878 7.09375 11.7686 6.84635L10.0004 2.76042L8.23219 6.84635C8.12282 7.09375 7.88844 7.26563 7.62021 7.29427L3.17229 7.7474L6.51604 10.6562C6.72177 10.8333 6.81292 11.1068 6.75823 11.3724L5.83896 15.8151L9.60459 13.474C9.72698 13.3984 9.8624 13.3594 10.0004 13.3594Z" fill="black"/>
</svg>
