<svg width="24" height="24" viewBox="0 0 24 24" fill="none" xmlns="http://www.w3.org/2000/svg">
<path d="M8.79433 5.625C8.12245 5.625 7.45839 5.74479 6.8412 6C6.22401 6.25521 5.56516 6.375 4.89849 6.375H4.51047C3.69016 6.375 2.9662 6.90625 2.72141 7.6901L1.67974 11.0182C1.3386 12.1094 1.48704 13.2969 2.0912 14.2656C3.25787 16.1354 4.93495 18.612 5.88026 19.5521C6.48964 20.1667 7.22141 20.5052 7.84641 20.5833C8.33079 20.6432 8.75266 20.5443 9.00266 20.2917C9.25526 20.0391 9.19016 19.6823 8.89068 19.388C8.5912 19.0911 8.05995 18.5521 7.91152 18.4062C7.76568 18.2578 7.77089 18.0182 7.91672 17.875C8.06256 17.7344 8.29954 17.7292 8.44016 17.875C8.58339 18.0234 9.71099 19.1432 10.0157 19.4479C10.3204 19.7526 10.6745 19.8516 11.0235 19.8177C11.4558 19.7786 11.8777 19.5339 12.1823 19.2292C12.4376 18.9792 12.3698 18.6224 12.0756 18.3255L10.3047 16.5573C10.1589 16.4089 10.1589 16.1745 10.3047 16.0286C10.4506 15.8802 10.6902 15.8802 10.836 16.0286C10.9844 16.1745 12.5964 17.7943 12.9297 18.125C13.2605 18.4531 13.6511 18.5417 14.0261 18.4818C14.4297 18.4193 14.8152 18.1901 15.1016 17.9062C15.3516 17.651 15.2891 17.2995 14.9922 17C14.6954 16.6979 13.1068 15.1172 12.961 14.9688C12.8152 14.8229 12.8152 14.5833 12.961 14.4375C13.1068 14.2917 13.3464 14.2917 13.4922 14.4375C13.6381 14.5833 15.8386 16.7917 16.1329 17.0859C16.4245 17.3776 17.06 17.4818 17.5912 16.9505C18.1042 16.4349 18.0235 15.8255 17.7501 15.5208C17.474 15.2188 12.1563 10.0391 12.1563 10.0391C10.8256 10.7656 9.65631 11.1328 8.67714 11.1328C7.28651 11.1328 6.54693 10.3646 6.43495 9.59896C6.22401 8.16406 7.71099 7.60156 8.19797 7.41667C8.76047 7.20833 9.73964 6.05208 10.0626 5.67448C10.0756 5.65885 10.086 5.64063 10.1068 5.625H8.79433ZM11.7761 5.625C11.336 5.625 10.9167 5.82031 10.6329 6.15625C9.94276 6.97135 9.11464 7.8724 8.4636 8.11979C7.66933 8.41927 7.07818 8.80469 7.17974 9.48958C7.29954 10.3151 8.78391 11.1068 12.0313 9.25C12.1771 9.16667 12.362 9.1875 12.4844 9.30469L18.4636 15.1745L20.8855 13.8724C22.1537 13.1927 22.7579 11.7057 22.3308 10.3333L21.5053 7.6901C21.2605 6.90885 20.5339 6.375 19.7136 6.375H19.1016C18.4454 6.375 17.7943 6.26042 17.1876 6.01302C16.5573 5.75521 15.8855 5.625 15.2084 5.625H11.7761Z" fill="#141414"/>
</svg>
