<svg width="17" height="14" viewBox="0 0 17 14" fill="none" xmlns="http://www.w3.org/2000/svg">
<path d="M5.30005 0C4.95005 0 4.76803 0.143337 4.62974 0.251559C4.49146 0.359781 4.38885 0.471564 4.28443 0.596866C4.0756 0.847471 3.87225 1.15189 3.65476 1.50779C3.21976 2.2196 2.73976 3.13154 2.28446 4.04213C1.37388 5.86331 0.568863 7.67489 0.568863 7.67489H0.570425C0.524486 7.7771 0.500532 7.88783 0.500114 7.99989V11.9998C0.500114 11.9998 0.489083 12.3668 0.684486 12.7576C0.879889 13.1484 1.43343 13.5998 2.10009 13.5998H6.90002C7.05983 13.5997 7.21593 13.5517 7.34821 13.462C7.48049 13.3723 7.58289 13.2451 7.6422 13.0967L8.5 10.953L9.3578 13.0967C9.41711 13.2451 9.51951 13.3723 9.65179 13.462C9.78407 13.5517 9.94017 13.5997 10.1 13.5998H14.8999C15.5666 13.5998 16.1201 13.1484 16.3155 12.7576C16.5109 12.3668 16.4999 11.9998 16.4999 11.9998V7.99989C16.5 7.88794 16.4765 7.77722 16.4311 7.67489C16.4311 7.67489 15.6261 5.86331 14.7155 4.04213C14.2602 3.13154 13.7802 2.2196 13.3452 1.50779C13.1277 1.15189 12.9244 0.847471 12.7156 0.596866C12.6111 0.471564 12.5085 0.359781 12.3703 0.251559C12.232 0.143337 12.0499 0 11.7 0C11.1 0 10.7531 0.356895 10.4984 0.662491C10.2437 0.968086 10.0503 1.31037 9.88436 1.64216C9.55256 2.30576 9.34061 2.94683 9.34061 2.94683L10.8593 3.45308C10.8593 3.45308 11.0474 2.89417 11.3156 2.35778C11.4197 2.14964 11.5305 1.985 11.6343 1.83747C11.7401 1.98271 11.843 2.11849 11.9796 2.34215C12.3696 2.98033 12.8396 3.86836 13.2843 4.75774C13.7276 5.64438 14.1465 6.53116 14.4562 7.1999H2.54383C2.85348 6.53116 3.27237 5.64438 3.71569 4.75774C4.16039 3.86836 4.63037 2.98033 5.02036 2.34215C5.15705 2.11849 5.25988 1.98271 5.36567 1.83747C5.46951 1.985 5.58035 2.14964 5.68441 2.35778C5.95261 2.89417 6.14066 3.45308 6.14066 3.45308L7.65939 2.94683C7.65939 2.94683 7.44744 2.30576 7.11564 1.64216C6.94975 1.31037 6.75625 0.968086 6.50159 0.662491C6.24693 0.356895 5.90004 0 5.30005 0ZM2.10009 8.79988H7.63907L6.35784 11.9998H2.10009V8.79988ZM9.36093 8.79988H14.8999V11.9998H10.6422L9.36093 8.79988Z" fill="black"/>
</svg>
