<svg width="16" height="16" viewBox="0 0 16 16" fill="none" xmlns="http://www.w3.org/2000/svg">
<path d="M7.99823 3.09333C9.50045 3.09333 10.5138 3.74222 11.0916 4.28445L13.3493 2.08C11.9627 0.791111 10.1582 0 7.99823 0C4.86934 0 2.16712 1.79556 0.851562 4.40889L3.43823 6.41778C4.08712 4.48889 5.88267 3.09333 7.99823 3.09333Z" fill="#EA4335"/>
<path d="M15.68 8.17852C15.68 7.52075 15.6267 7.04075 15.5111 6.54297H8V9.51186H12.4089C12.32 10.2496 11.84 11.3607 10.7733 12.1074L13.2978 14.063C14.8089 12.6674 15.68 10.6141 15.68 8.17852Z" fill="#4285F4"/>
<path d="M3.44889 9.58349C3.28 9.08571 3.18222 8.55238 3.18222 8.00127C3.18222 7.45016 3.28 6.91682 3.44 6.41905L0.853333 4.41016C0.311111 5.4946 0 6.71238 0 8.00127C0 9.29016 0.311111 10.5079 0.853333 11.5924L3.44889 9.58349Z" fill="#FBBC05"/>
<path d="M7.99813 15.9998C10.1581 15.9998 11.9715 15.2887 13.2959 14.062L10.7715 12.1065C10.0959 12.5776 9.18924 12.9065 7.99813 12.9065C5.88257 12.9065 4.08702 11.5109 3.44702 9.58203L0.860352 11.5909C2.17591 14.2043 4.86924 15.9998 7.99813 15.9998Z" fill="#34A853"/>
</svg>
