<svg viewBox="0 0 18 18" fill="none" xmlns="http://www.w3.org/2000/svg">
<path
  d="M16.5 11.25C16.9141 11.25 17.25 11.5859 17.25 12C17.25 12.4141 16.9141 12.75 16.5 12.75H12.75V16.5C12.75 16.9141 12.4141 17.25 12 17.25C11.5859 17.25 11.25 16.9141 11.25 16.5V12.75H6.75V16.5C6.75 16.9141 6.41406 17.25 6 17.25C5.58594 17.25 5.25 16.9141 5.25 16.5V12.75H1.5C1.08594 12.75 0.75 12.4141 0.75 12C0.75 11.5859 1.08594 11.25 1.5 11.25H5.25V6.75H1.5C1.08594 6.75 0.75 6.41406 0.75 6C0.75 5.58594 1.08594 5.25 1.5 5.25H5.25V1.5C5.25 1.08594 5.58594 0.75 6 0.75C6.41406 0.75 6.75 1.08594 6.75 1.5V5.25H11.25V1.5C11.25 1.08594 11.5859 0.75 12 0.75C12.4141 0.75 12.75 1.08594 12.75 1.5V5.25H16.5C16.9141 5.25 17.25 5.58594 17.25 6C17.25 6.41406 16.9141 6.75 16.5 6.75H12.75V11.25H16.5ZM6.75 11.25H11.25V6.75H6.75V11.25Z" fill="currentColor"/>
</svg>
