<svg width="24" height="24" viewBox="0 0 24 24" fill="none" xmlns="http://www.w3.org/2000/svg">
<path d="M19.5 14.25C19.9141 14.25 20.25 14.5859 20.25 15C20.25 15.4141 19.9141 15.75 19.5 15.75H15.75V19.5C15.75 19.9141 15.4141 20.25 15 20.25C14.5859 20.25 14.25 19.9141 14.25 19.5V15.75H9.75V19.5C9.75 19.9141 9.41406 20.25 9 20.25C8.58594 20.25 8.25 19.9141 8.25 19.5V15.75H4.5C4.08594 15.75 3.75 15.4141 3.75 15C3.75 14.5859 4.08594 14.25 4.5 14.25H8.25V9.75H4.5C4.08594 9.75 3.75 9.41406 3.75 9C3.75 8.58594 4.08594 8.25 4.5 8.25H8.25V4.5C8.25 4.08594 8.58594 3.75 9 3.75C9.41406 3.75 9.75 4.08594 9.75 4.5V8.25H14.25V4.5C14.25 4.08594 14.5859 3.75 15 3.75C15.4141 3.75 15.75 4.08594 15.75 4.5V8.25H19.5C19.9141 8.25 20.25 8.58594 20.25 9C20.25 9.41406 19.9141 9.75 19.5 9.75H15.75V14.25H19.5ZM9.75 14.25H14.25V9.75H9.75V14.25Z" fill="#141414"/>
</svg>
