<svg width="18" height="22" viewBox="0 0 18 22" fill="none" xmlns="http://www.w3.org/2000/svg">
<path d="M9 0.700195C4.04148 0.700195 0 4.74168 0 9.7002C0 14.6587 4.04148 18.7002 9 18.7002V21.792L10.5391 20.8057C12.7749 19.3716 16.8521 16.2755 17.7988 11.583C17.9284 10.9778 18 10.348 18 9.7002C18 4.74168 13.9585 0.700195 9 0.700195ZM9 2.7002C12.8775 2.7002 16 5.82271 16 9.7002C16 10.2044 15.9446 10.6956 15.8418 11.1729L15.8398 11.1807L15.8379 11.1865C15.2437 14.1346 12.9716 16.3054 11 17.8389V16.499L9.875 16.6396C9.57406 16.6773 9.28394 16.7002 9 16.7002C5.12252 16.7002 2 13.5777 2 9.7002C2 5.82271 5.12252 2.7002 9 2.7002Z" fill="black"/>
</svg>
