<svg width="24" height="24" viewBox="0 0 24 24" fill="none" xmlns="http://www.w3.org/2000/svg">
<path d="M12 3.75C17.1693 3.75 21.375 7.10677 21.375 11.2318C21.375 15.3594 17.1693 18.7161 12 18.7161C11.7578 18.7161 11.5078 18.7057 11.2552 18.6901C8.49219 20.7552 6.22656 21.0339 6.13021 21.0469C6.10156 21.0495 6.07292 21.0521 6.04427 21.0521C5.78125 21.0521 5.53646 20.9141 5.39844 20.6849C5.2474 20.4297 5.26042 20.112 5.42969 19.8698C5.4401 19.8568 6.16667 18.8203 6.93229 17.5312C4.25521 16.1641 2.625 13.8099 2.625 11.2318C2.625 7.10677 6.83073 3.75 12 3.75ZM12 17.2161C16.3411 17.2161 19.875 14.5313 19.875 11.2318C19.875 7.93229 16.3411 5.25 12 5.25C7.65885 5.25 4.125 7.9349 4.125 11.2318C4.125 13.4297 5.71615 15.4479 8.27604 16.5C8.47396 16.5807 8.6276 16.7448 8.70052 16.9453C8.77083 17.1484 8.7526 17.3724 8.64583 17.5599C8.36458 18.0625 8.07552 18.5469 7.80729 18.9792C8.58073 18.6458 9.53906 18.1276 10.5677 17.3281C10.7188 17.2135 10.9062 17.1562 11.0938 17.1745C11.4036 17.2005 11.7083 17.2161 12 17.2161Z" fill="#141414"/>
</svg>
