<svg viewBox="0 0 20 19" fill="none" xmlns="http://www.w3.org/2000/svg">
<path
  d="M10 0.75C15.1693 0.75 19.375 4.10677 19.375 8.23177C19.375 12.3594 15.1693 15.7161 10 15.7161C9.75781 15.7161 9.50781 15.7057 9.25521 15.6901C6.49219 17.7552 4.22656 18.0339 4.13021 18.0469C4.10156 18.0495 4.07292 18.0521 4.04427 18.0521C3.78125 18.0521 3.53646 17.9141 3.39844 17.6849C3.2474 17.4297 3.26042 17.112 3.42969 16.8698C3.4401 16.8568 4.16667 15.8203 4.93229 14.5312C2.25521 13.1641 0.625 10.8099 0.625 8.23177C0.625 4.10677 4.83073 0.75 10 0.75ZM10 14.2161C14.3411 14.2161 17.875 11.5313 17.875 8.23177C17.875 4.93229 14.3411 2.25 10 2.25C5.65885 2.25 2.125 4.9349 2.125 8.23177C2.125 10.4297 3.71615 12.4479 6.27604 13.5C6.47396 13.5807 6.6276 13.7448 6.70052 13.9453C6.77083 14.1484 6.7526 14.3724 6.64583 14.5599C6.36458 15.0625 6.07552 15.5469 5.80729 15.9792C6.58073 15.6458 7.53906 15.1276 8.56771 14.3281C8.71875 14.2135 8.90625 14.1562 9.09375 14.1745C9.40365 14.2005 9.70833 14.2161 10 14.2161Z" fill="currentColor"/>
</svg>
