<svg width="24" height="24" viewBox="0 0 24 24" fill="none" xmlns="http://www.w3.org/2000/svg">
<path d="M12 3.75C17.1693 3.75 21.375 7.10677 21.375 11.2318C21.375 15.3594 17.1693 18.7161 12 18.7161C11.7578 18.7161 11.5078 18.7057 11.2552 18.6901C8.49219 20.7552 6.22656 21.0339 6.13021 21.0469C6.10156 21.0495 6.07292 21.0521 6.04427 21.0521C5.78125 21.0521 5.53646 20.9141 5.39844 20.6849C5.2474 20.4297 5.26042 20.112 5.42969 19.8698C5.4401 19.8568 6.16667 18.8203 6.93229 17.5312C4.25521 16.1641 2.625 13.8099 2.625 11.2318C2.625 7.10677 6.83073 3.75 12 3.75Z" fill="#141414"/>
</svg>
