<svg width="12" height="12" viewBox="0 0 12 12" fill="none" xmlns="http://www.w3.org/2000/svg">
<path
  d="M7.92 6C7.92 6.37974 7.80739 6.75095 7.59642 7.06669C7.38545 7.38244 7.08559 7.62853 6.73475 7.77385C6.38392 7.91917 5.99787 7.95719 5.62543 7.88311C5.25298 7.80902 4.91087 7.62616 4.64235 7.35764C4.37384 7.08913 4.19098 6.74702 4.11689 6.37457C4.04281 6.00213 4.08083 5.61608 4.22615 5.26525C4.37147 4.91441 4.61756 4.61455 4.93331 4.40358C5.24905 4.19261 5.62026 4.08 6 4.08C6.50904 4.08058 6.99706 4.28305 7.357 4.643C7.71695 5.00294 7.91942 5.49096 7.92 6ZM12 3.36V8.64C11.999 9.53082 11.6447 10.3849 11.0148 11.0148C10.3849 11.6447 9.53082 11.999 8.64 12H3.36C2.46918 11.999 1.61514 11.6447 0.985236 11.0148C0.355332 10.3849 0.00100889 9.53082 0 8.64V3.36C0.00100889 2.46918 0.355332 1.61514 0.985236 0.985236C1.61514 0.355332 2.46918 0.00100889 3.36 0H8.64C9.53082 0.00100889 10.3849 0.355332 11.0148 0.985236C11.6447 1.61514 11.999 2.46918 12 3.36ZM8.88 6C8.88 5.43039 8.71109 4.87357 8.39463 4.39996C8.07817 3.92634 7.62838 3.55721 7.10213 3.33923C6.57588 3.12125 5.99681 3.06421 5.43814 3.17534C4.87947 3.28646 4.36631 3.56076 3.96353 3.96353C3.56076 4.36631 3.28646 4.87947 3.17534 5.43814C3.06421 5.99681 3.12125 6.57588 3.33923 7.10213C3.55721 7.62838 3.92634 8.07817 4.39996 8.39463C4.87357 8.71109 5.43039 8.88 6 8.88C6.76356 8.87914 7.4956 8.57543 8.03551 8.03551C8.57543 7.4956 8.87914 6.76356 8.88 6ZM9.84 2.88C9.84 2.7376 9.79777 2.59839 9.71866 2.47999C9.63954 2.36159 9.52709 2.2693 9.39553 2.21481C9.26397 2.16031 9.1192 2.14605 8.97954 2.17383C8.83987 2.20162 8.71158 2.27019 8.61088 2.37088C8.51019 2.47158 8.44162 2.59987 8.41383 2.73953C8.38605 2.8792 8.40031 3.02397 8.45481 3.15553C8.5093 3.28709 8.60159 3.39954 8.71999 3.47866C8.83839 3.55777 8.9776 3.6 9.12 3.6C9.31096 3.6 9.49409 3.52414 9.62912 3.38912C9.76414 3.25409 9.84 3.07096 9.84 2.88Z" fill="#fff"/>
</svg>
