<svg width="12" height="20" viewBox="0 0 12 20" fill="none" xmlns="http://www.w3.org/2000/svg">
<path
  d="M6 0.25C2.87109 0.25 0.375 2.76758 0.375 5.875C0.375 8.0332 1.5918 9.9043 3.375 10.8477V17.3809C3.375 17.791 3.5625 18.1777 3.88477 18.4336L5.24219 19.5059C5.44727 19.6699 5.69531 19.75 5.94141 19.75C6.2168 19.75 6.49219 19.6484 6.70898 19.4492L9.15625 17.1797C9.33789 17.0117 9.39062 16.7461 9.28906 16.5215L8.625 15.0586V15.0234L9.52734 13.9043C9.79688 13.5684 9.8125 13.0918 9.56055 12.7402L8.625 11.4316V10.8477C10.4082 9.9043 11.625 8.0332 11.625 5.875C11.625 2.76758 9.12891 0.25 6 0.25ZM6 1.75C8.27344 1.75 10.125 3.60156 10.125 5.875C10.125 7.40625 9.28125 8.80469 7.92383 9.52148L7.125 9.94336V11.9121L8.10352 13.2812L7.125 14.4941V15.3828L7.64648 16.5332L5.92383 18.1328L4.97852 17.3848C4.91211 17.334 4.875 17.2559 4.875 17.1719V9.94336L4.07617 9.52148C2.71875 8.80469 1.875 7.40625 1.875 5.875C1.875 3.60156 3.72656 1.75 6 1.75ZM6 3.25C5.17188 3.25 4.5 3.92188 4.5 4.75C4.5 5.57812 5.17188 6.25 6 6.25C6.82812 6.25 7.5 5.57812 7.5 4.75C7.5 3.92188 6.82812 3.25 6 3.25Z" fill="currentColor"/>
</svg>
