<svg width="24" height="24" viewBox="0 0 24 24" fill="none" xmlns="http://www.w3.org/2000/svg">
<path d="M20.8334 8.64842C21.3959 8.6354 22.4323 8.77342 22.4922 9.55727C22.5521 10.3437 21.9662 10.8515 21.1354 10.8489C20.4766 10.8489 15.3125 10.8672 13.8724 10.8724C13.6641 10.875 13.5 11.0416 13.5 11.25C13.5 11.4557 13.6693 11.625 13.875 11.625H17.2813C17.7031 11.625 18 11.8307 18 12.1875C18 12.4974 17.9349 12.8307 17.7943 13.1146C17.5808 13.5469 17.2005 13.875 16.6198 13.875H13.125C12.9193 13.875 12.75 14.0443 12.75 14.25C12.75 14.4557 12.9193 14.625 13.125 14.625H16.1563C16.5781 14.625 16.875 14.8307 16.875 15.1875C16.875 15.5052 16.8073 15.8411 16.6615 16.1328C16.4479 16.5547 16.0677 16.875 15.4948 16.875H12.7396C12.5365 16.875 12.3698 17.0443 12.3698 17.2474C12.3672 17.4531 12.5339 17.625 12.7396 17.625H14.6563C15.0781 17.625 15.375 17.8307 15.375 18.1875C15.375 18.6693 14.9584 19.1719 14.2995 19.5C13.8438 19.7291 13.2735 19.875 12.6459 19.875C10.875 19.875 8.36461 19.875 6.59898 19.2552C3.66148 18.2213 1.65888 14.3177 3.18752 10.4166C3.64065 9.2604 4.74742 7.34113 7.21096 6.41925C9.71096 5.48175 12.4818 4.58592 13.3386 4.34373C14.1953 4.10154 14.9089 4.15102 15.2683 4.89061C15.5391 5.45311 15.0313 6.22133 14.5026 6.513C14.2136 6.67186 12.5651 7.56508 11.5052 8.138C11.3854 8.20311 11.3464 8.3255 11.375 8.43227C11.4011 8.53904 11.4922 8.63019 11.6276 8.63019C14.9896 8.64061 20.4245 8.65883 20.8334 8.64842Z" fill="#141414"/>
</svg>
