<svg width="24" height="24" viewBox="0 0 24 24" fill="none" xmlns="http://www.w3.org/2000/svg">
<path d="M13.3515 4.23175C13.0468 4.24217 12.7057 4.30728 12.3255 4.44269C11.8073 4.62759 7.84372 6.08852 6.84112 6.53123C5.97914 6.91665 3.68747 7.93227 2.69008 10.7812C1.79685 13.3359 2.0781 18.0833 6.6406 19.6797C8.58591 20.362 10.6901 20.2943 12.2578 20.1562C13.7161 20.0286 14.9114 19.3411 15.2317 18.4297C15.362 18.0599 15.3854 17.6797 15.3724 17.375C15.8125 17.1354 16.1692 16.737 16.3515 16.2474C16.5495 15.7057 16.5208 15.1875 16.4323 14.7864C16.914 14.539 17.3021 14.1015 17.487 13.5729C17.6432 13.1276 17.6458 12.7031 17.5911 12.3437C18.9557 12.3307 20.2344 12.3151 20.5104 12.2943C21.7031 12.2005 22.5234 11.2838 22.4635 10.112C22.414 9.21092 21.6354 8.28905 20.2396 8.26821C19.9271 8.263 16.151 8.24998 13.3463 8.24998C13.6797 8.07811 13.9297 7.96092 14.1172 7.86457C15.401 7.1953 15.539 6.0078 15.125 5.18748C14.8567 4.65363 14.2682 4.1979 13.3515 4.23175ZM13.4896 5.72915C13.651 5.73696 13.75 5.78905 13.7864 5.86196C13.914 6.11717 13.7916 6.34113 13.4245 6.53384C13.151 6.67707 10.4323 8.04686 10.3437 8.10675C9.98435 8.34373 9.82289 8.74217 9.93747 9.11978C10.0286 9.42186 10.3229 9.74998 10.875 9.74998C10.9817 9.74998 19.9062 9.763 20.2187 9.76821C20.6901 9.77602 20.9531 9.99217 20.9635 10.1901C20.9896 10.6797 20.6198 10.7812 20.3932 10.7995C19.9531 10.8333 16.0833 10.8411 13.5 10.875C13.0859 10.8802 12.7526 11.2213 12.7604 11.6354C12.7656 12.0495 13.1041 12.3802 13.5208 12.375C13.7604 12.3724 14.9791 12.3646 16.0599 12.3568C16.1172 12.5495 16.164 12.8151 16.0729 13.0755C16.0026 13.2734 15.7968 13.4948 15.5364 13.5C14.9687 13.5156 13.4817 13.5026 13.1588 13.5C12.8359 13.5 12.3906 13.6927 12.3958 14.2812C12.401 14.7604 12.8151 14.9974 13.1614 15C13.4166 15 14.2708 15 14.9323 15C14.9922 15.1979 15.039 15.4687 14.9427 15.7292C14.8724 15.9245 14.6614 16.1224 14.401 16.125C13.8177 16.1302 13.289 16.125 12.7578 16.125C12.4687 16.125 11.9687 16.3698 12.0156 16.9765C12.0547 17.4713 12.5442 17.6276 12.8255 17.625C13.237 17.6224 13.5495 17.6224 13.8776 17.625C13.8724 17.7292 13.8567 17.8359 13.8151 17.9323C13.6666 18.2812 12.9505 18.5963 12.1276 18.6745C10.7109 18.8047 8.82289 18.8307 7.13539 18.276C3.80206 17.1823 3.28383 13.5651 4.10675 11.2786C4.90622 9.04686 6.68487 8.24478 7.4505 7.90363C8.39841 7.48175 12.3359 6.03123 12.8281 5.85675C13.1093 5.75519 13.3281 5.72134 13.4896 5.72915Z" fill="#141414"/>
</svg>
