<svg width="16" height="16" viewBox="0 0 16 16" fill="none" xmlns="http://www.w3.org/2000/svg">
<path d="M6.89589 13.4965C6.77089 13.6545 6.63373 13.7326 6.48269 13.7309C6.33339 13.7291 6.21533 13.6684 6.132 13.5468C6.04867 13.4271 6.04172 13.2691 6.11637 13.0712L7.61117 9.19789H4.76915C4.65283 9.19789 4.55561 9.16143 4.47575 9.08504C4.39589 9.01039 4.35596 8.91491 4.35596 8.79859C4.35596 8.68227 4.40283 8.56421 4.49832 8.44442L9.10422 2.50345C9.22922 2.34546 9.36637 2.26733 9.51742 2.26907C9.66672 2.27081 9.78478 2.33157 9.86811 2.4531C9.95144 2.57289 9.95839 2.73088 9.88373 2.92879L8.38894 6.80206H11.231C11.3473 6.80206 11.4445 6.83852 11.5244 6.9149C11.6042 6.98956 11.6442 7.08504 11.6442 7.20136C11.6442 7.31768 11.5973 7.43574 11.5018 7.55553L6.89589 13.4965Z" fill="white"/>
</svg>
