<svg width="18" height="18" viewBox="0 0 18 18" fill="none" xmlns="http://www.w3.org/2000/svg">
<path
  d="M2.8792 14.3342C1.67 13.125 1.67 11.1592 2.8792 9.94999L5.70771 7.12147L4.36417 5.77792L1.53565 8.60644C-0.416029 10.5581 -0.416029 13.7261 1.53565 15.6777C3.48733 17.6294 6.65527 17.6294 8.60695 15.6777L11.4355 12.8492L10.0919 11.5057L7.2634 14.3342C6.05421 15.5434 4.08839 15.5434 2.8792 14.3342ZM6.48498 12.1424L12.142 6.4854L10.7278 5.07114L5.07072 10.7282L6.48498 12.1424ZM5.77797 4.36412L8.60649 1.5356C10.5582 -0.416075 13.7261 -0.416075 15.6778 1.5356C17.6295 3.48728 17.6295 6.65522 15.6778 8.6069L12.8493 11.4354L11.5057 10.0919L14.3342 7.26335C15.5434 6.05416 15.5434 4.08834 14.3342 2.87915C13.125 1.66996 11.1592 1.66996 9.95003 2.87915L7.12151 5.70767L5.77797 4.36412Z" fill="#fff"/>
</svg>
