<svg width="25" height="25" viewBox="0 0 25 25" fill="none" xmlns="http://www.w3.org/2000/svg">
<path
  d="M16.1785 3.05371C15.1421 3.05371 14.3035 3.89486 14.3035 4.92871C14.3035 5.96256 15.1421 6.80371 16.1785 6.80371C17.215 6.80371 18.0535 5.96256 18.0535 4.92871C18.0535 3.89486 17.215 3.05371 16.1785 3.05371ZM14.6785 7.55371C14.4051 7.55371 14.1473 7.61621 13.9129 7.72038L10.9181 9.12923C10.7723 9.19694 10.6577 9.31413 10.5926 9.45736L9.12124 12.7308C9.07957 12.8089 9.05353 12.8975 9.05353 12.9912C9.05353 13.3011 9.30613 13.5537 9.61603 13.5537C9.8478 13.5537 10.0483 13.4131 10.1343 13.2126V13.21L11.702 10.5303L12.4858 10.249L11.7462 12.6761L11.7541 12.6787C11.7098 12.8376 11.6785 13.0042 11.6785 13.1787C11.6785 13.8923 12.0822 14.5068 12.6707 14.8245L12.6655 14.8298L15.5848 16.9626L16.5874 20.5225H16.59C16.6837 20.8298 16.965 21.0537 17.3035 21.0537C17.7176 21.0537 18.0535 20.7178 18.0535 20.3037C18.0535 20.2282 18.0379 20.1553 18.0171 20.085H18.0197L17.2671 16.3454C17.2436 16.223 17.1968 16.1058 17.1317 15.999L15.4806 13.2881L16.4806 9.99902L16.4572 9.99121C16.5145 9.81152 16.5535 9.62663 16.5535 9.42871C16.5535 8.39486 15.715 7.55371 14.6785 7.55371ZM17.1681 10.5355L16.603 12.0771L17.0353 12.4001C17.0718 12.4261 17.1108 12.4469 17.1525 12.4626L19.8869 13.5042C19.8973 13.5094 19.9103 13.512 19.9207 13.5173L19.9363 13.5225C19.9936 13.5407 20.0535 13.5537 20.116 13.5537C20.4259 13.5537 20.6785 13.3011 20.6785 12.9912C20.6785 12.7699 20.5483 12.5771 20.3608 12.486L17.9233 11.21L17.1681 10.5355ZM8.91551 13.9313C8.69676 13.9105 8.47801 14.0225 8.36863 14.2282L7.43895 15.9886L6.11343 15.2829C5.74884 15.0876 5.29572 15.2256 5.1004 15.5928L3.33738 18.9053C3.14468 19.2673 3.2853 19.723 3.64988 19.9183L4.48582 20.3636C4.47801 20.1058 4.5379 19.8454 4.66551 19.611C4.92593 19.1188 5.43374 18.8115 5.99103 18.8115C6.23322 18.8115 6.47801 18.874 6.69155 18.9886C6.80353 19.0485 6.9077 19.1188 6.99884 19.21L7.98843 17.348C7.99103 17.3454 7.99103 17.3454 7.99363 17.3428L8.2254 16.9027L8.43113 16.5173V16.5146L9.36343 14.7542C9.50926 14.4782 9.40249 14.1396 9.12905 13.9938C9.06134 13.9574 8.98843 13.9365 8.91551 13.9313ZM11.8608 15.3532L11.4988 17.0225L9.93113 19.8844L9.89988 19.9417C9.83999 20.0485 9.80353 20.1709 9.80353 20.3037C9.80353 20.7178 10.1395 21.0537 10.5535 21.0537C10.8244 21.0537 11.0613 20.9079 11.1916 20.6917L13.7332 16.7334L11.8608 15.3532ZM6.05613 19.5641C5.76447 19.5407 5.4728 19.6865 5.32697 19.96C5.13165 20.3271 5.27228 20.7803 5.63686 20.9756C6.00145 21.1683 6.45718 21.0303 6.65249 20.6657C6.8452 20.2985 6.70718 19.8454 6.33999 19.6501C6.24884 19.6006 6.15249 19.5745 6.05613 19.5641Z" fill="currentColor"/>
</svg>
