<svg viewBox="0 0 10 10" fill="none" xmlns="http://www.w3.org/2000/svg">
<path
  d="M6.20869 7.73227C5.22953 7.36499 4.38795 6.70402 3.79906 5.83976C3.2103 4.97565 2.90318 3.95064 2.91979 2.90512C2.93639 1.8597 3.27597 0.844915 3.8919 0C2.82862 0.254038 1.87585 0.844877 1.17594 1.68438C0.475894 2.52388 0.0660276 3.5671 0.00731938 4.6585C-0.0513888 5.74989 0.244296 6.83095 0.850296 7.74073C1.45631 8.65037 2.34006 9.33992 3.36994 9.70637C4.39987 10.073 5.52063 10.0969 6.56523 9.77466C7.60985 9.45247 8.52223 8.80134 9.16667 7.91837C8.1842 8.15404 7.15363 8.08912 6.20869 7.73205V7.73227Z" fill="#fff"/>
</svg>
