<svg width="24" height="18" viewBox="0 0 24 18" fill="none" xmlns="http://www.w3.org/2000/svg">
<path d="M2.65441 0.231661L9.68495 5.65813C9.7181 5.6779 9.75068 5.69975 9.78214 5.72348C9.82187 5.75305 9.85898 5.78488 9.89344 5.81859L22.6933 15.6986C23.1773 16.0711 23.266 16.7642 22.8933 17.2482C22.6752 17.5322 22.3479 17.6776 22.0184 17.6776C21.7821 17.6776 21.5434 17.6027 21.3436 17.4482L18.8218 15.502C16.7955 16.7934 14.453 17.4731 12 17.4731C6.69216 17.4731 2.01349 14.2511 0.0752888 9.26566C-0.0247164 9.01122 -0.0247164 8.72721 0.0730288 8.47259C0.783219 6.61144 1.93866 4.91947 3.39091 3.59094L1.30455 1.9807C0.820536 1.60798 0.732016 0.914929 1.10473 0.431054C1.47726 -0.0552304 2.17484 -0.141678 2.65437 0.231044L2.65441 0.231661ZM2.29996 8.86387C3.9927 12.7677 7.75343 15.2647 12.0001 15.2647C13.7543 15.2647 15.4355 14.8474 16.9372 14.0475L14.9695 12.529C14.1267 13.1978 13.0877 13.5675 12 13.5675C9.3778 13.5675 7.24641 11.4589 7.24641 8.86623C7.24641 8.18391 7.392 7.51721 7.67224 6.8966L5.1736 4.96766C3.94473 6.0071 2.94617 7.35878 2.29982 8.86377L2.29996 8.86387ZM12.0025 0.209C17.3195 0.209 22.0001 3.45157 23.9272 8.47092C24.025 8.72781 24.025 9.01184 23.9227 9.26853C23.5252 10.291 22.9571 11.3067 22.2868 12.1998C22.0708 12.4906 21.7369 12.6427 21.4028 12.6427C21.1711 12.6427 20.9393 12.5701 20.7415 12.4224C20.253 12.0567 20.1532 11.3636 20.5212 10.8773C20.9869 10.2569 21.3892 9.56631 21.7005 8.86171C20.0145 4.93305 16.2538 2.41745 12.0028 2.41745C10.9849 2.41745 10.0032 2.55832 9.08288 2.83329C8.49452 3.01278 7.88317 2.6766 7.7082 2.09258C7.53324 1.50857 7.86509 0.892876 8.44891 0.717908C9.57365 0.381539 10.7713 0.208817 12.0028 0.208817L12.0025 0.209ZM9.45528 8.86628C9.45528 10.241 10.596 11.3589 12.0003 11.3589C12.3922 11.3589 12.7726 11.2687 13.1182 11.0997L9.51502 8.31838C9.47754 8.48806 9.45532 8.67094 9.45532 8.86623L9.45528 8.86628ZM12.4319 4.11948C14.1339 4.31497 15.5948 5.35327 16.3357 6.89612C16.5992 7.44604 16.3674 8.1073 15.8176 8.37078C15.663 8.44593 15.5018 8.48002 15.3404 8.48002C14.9291 8.48002 14.536 8.25044 14.3429 7.85285C13.9339 6.99836 13.125 6.42355 12.182 6.31454C11.5754 6.24636 11.1413 5.69644 11.2094 5.09208C11.2799 4.48526 11.8479 4.05587 12.4319 4.11951L12.4319 4.11948Z" fill="black"/>
</svg>
