<svg width="24" height="18" viewBox="0 0 24 18" fill="none" xmlns="http://www.w3.org/2000/svg">
<path d="M11.9998 0C17.3178 0 21.9994 3.24315 23.927 8.26336C24.0247 8.52025 24.0247 8.80427 23.9247 9.06115C21.9884 14.0474 17.3093 17.27 12 17.27C6.6907 17.27 2.01155 14.0474 0.0752887 9.06115C-0.0247163 8.80426 -0.0247163 8.52024 0.0730287 8.26336C2.00028 3.24334 6.68169 0 12.0002 0H11.9998ZM11.9998 2.21123C7.74537 2.21123 3.9819 4.72722 2.29779 8.65886C3.99092 12.561 7.75463 15.0588 11.9998 15.0588C16.2451 15.0588 20.0086 12.561 21.7019 8.65886C20.018 4.72717 16.2547 2.21123 11.9998 2.21123V2.21123ZM11.9998 3.90662C14.6224 3.90662 16.7542 6.03839 16.7542 8.66112C16.7542 11.2564 14.6201 13.3631 11.9998 13.3631C9.37958 13.3631 7.24554 11.2541 7.24554 8.66112C7.24554 6.03839 9.37731 3.90662 11.9998 3.90662V3.90662ZM11.9998 6.11804C10.5977 6.11804 9.4545 7.25878 9.4545 8.66339C9.4545 10.0383 10.5954 11.1564 11.9998 11.1564C13.4043 11.1564 14.5452 10.0383 14.5452 8.66339C14.5452 7.25878 13.402 6.11804 11.9998 6.11804V6.11804Z" fill="black"/>
</svg>
