<svg width="23" height="14" viewBox="0 0 23 14" fill="none" xmlns="http://www.w3.org/2000/svg">
<path d="M11.2007 0.000478409C6.59387 0.000666865 2.34285 2.54982 0.084511 6.66517H0.0846948C-0.0281703 6.87055 -0.0281702 7.12152 0.0843271 7.32711C2.34055 11.446 6.59204 13.9981 11.2005 14V13.9998H11.2012C15.808 13.9981 20.0586 11.4475 22.3155 7.33078C22.4282 7.1254 22.4282 6.87443 22.3155 6.66903C20.0585 2.55243 15.8078 0.00241177 11.2012 0H11.2007V0.000478409ZM11.2005 1.35107C15.2089 1.35258 18.9115 3.50189 20.9778 7.00041C18.9111 10.4986 15.2089 12.6473 11.201 12.6493C7.19124 12.6478 3.4876 10.4969 1.42126 6.99655C3.48924 3.49948 7.19204 1.35107 11.2 1.35107H11.2005ZM11.1999 2.90609C9.00178 2.90609 7.20565 4.74714 7.20565 7.00026C7.20565 9.2532 9.00178 11.0942 11.1999 11.0942C13.3979 11.0942 15.194 9.2532 15.194 7.00026C15.194 4.74714 13.3979 2.90609 11.1999 2.90609ZM11.1999 4.25668C12.6858 4.25668 13.8762 5.47689 13.8762 7.00007C13.8762 8.52306 12.6858 9.74327 11.1999 9.74327C9.71392 9.74327 8.52348 8.52306 8.52348 7.00007C8.52348 5.47689 9.71392 4.25668 11.1999 4.25668Z" fill="black"/>
</svg>
