<svg width="18" height="18" viewBox="0 0 18 18" fill="none" xmlns="http://www.w3.org/2000/svg">
<path d="M9.80828 3.77898L0.439624 13.1393L0.00467497 17.078C-0.0505566 17.6022 0.391296 18.0506 0.9229 17.9954L4.86505 17.5608L14.2337 8.20049C14.2337 8.20049 14.3925 7.77972 14.2337 7.61417C14.0749 7.44862 10.402 3.78588 10.402 3.78588C10.2294 3.62033 9.96707 3.62033 9.80828 3.77898ZM17.1886 2.89606L15.1105 0.819817C14.4615 0.171422 14.2337 -0.644285 12.7701 0.819817C11.3064 2.28392 11.1753 2.41321 11.1753 2.41321C11.0165 2.57186 11.0165 2.83398 11.1753 2.99953L15.007 6.82782C15.1657 6.98647 15.4281 6.98647 15.5938 6.82782L17.1886 5.23442C18.6374 3.78588 17.8307 3.54446 17.1886 2.89606Z" fill="black"/>
</svg>
