<svg width="17" height="17" viewBox="0 0 17 17" fill="none" xmlns="http://www.w3.org/2000/svg">
<path d="M14.1853 0.429688C13.5733 0.429688 12.9639 0.661459 12.5004 1.125L2.0655 11.5599L0.784248 15.388C0.614978 15.8984 1.10196 16.3854 1.61237 16.2161L5.4405 14.9349L15.8754 4.5C16.8051 3.57031 16.8051 2.0599 15.8754 1.125C15.4066 0.661459 14.7973 0.429688 14.1853 0.429688ZM14.1228 1.99219C14.3494 1.99219 14.5759 2.07813 14.7504 2.25C15.0941 2.59635 15.0941 3.15625 14.7504 3.5026L14.2348 4.01823L12.9822 2.76563L13.4978 2.25C13.6697 2.07813 13.8962 1.99219 14.1228 1.99219ZM11.9223 3.82552L13.1749 5.07813L5.753 12.5026L4.49779 11.2474L11.9223 3.82552ZM3.43529 12.3099L4.6905 13.5651L3.17748 14.2891C3.04727 14.3516 2.89102 14.3255 2.78685 14.2266C2.67748 14.1224 2.64623 13.9609 2.71133 13.8229L3.43529 12.3099Z" fill="black"/>
</svg>
