<svg width="24" height="24" viewBox="0 0 24 24" fill="none" xmlns="http://www.w3.org/2000/svg">
<path d="M17.1848 4.42969C16.5728 4.42969 15.9634 4.66146 15.4999 5.125L5.06501 15.5599L3.78376 19.388C3.61449 19.8984 4.10147 20.3854 4.61189 20.2161L8.44001 18.9349L18.8749 8.5C19.8046 7.57031 19.8046 6.0599 18.8749 5.125C18.4062 4.66146 17.7968 4.42969 17.1848 4.42969ZM17.1223 5.99219C17.3489 5.99219 17.5754 6.07813 17.7499 6.25C18.0937 6.59635 18.0937 7.15625 17.7499 7.5026L17.2343 8.01823L15.9817 6.76563L16.4973 6.25C16.6692 6.07813 16.8957 5.99219 17.1223 5.99219ZM14.9218 7.82552L16.1744 9.07813L8.75251 16.5026L7.4973 15.2474L14.9218 7.82552ZM6.4348 16.3099L7.69001 17.5651L6.17699 18.2891C6.04678 18.3516 5.89053 18.3255 5.78637 18.2266C5.67699 18.1224 5.64574 17.9609 5.71084 17.8229L6.4348 16.3099Z" fill="#141414"/>
</svg>
