<svg width="16" height="16" viewBox="0 0 16 16" fill="none" xmlns="http://www.w3.org/2000/svg">
<path
		d="M15.0195 0.900477C13.8189 -0.300159 11.7378 -0.300159 10.4571 0.900477L2.13272 9.22488C2.05265 9.30495 1.97259 9.46496 1.97259 9.54502L0.0516005 14.9079C-0.188481 15.5481 0.451812 16.1886 1.09209 15.9484L6.37489 13.9473C6.45496 13.9473 6.61497 13.7872 6.69503 13.7872L15.0194 5.38272C16.3001 4.10213 16.3001 2.10098 15.0194 0.900345L15.0195 0.900477ZM2.13272 13.7873L3.01321 11.2259C3.97378 12.1865 3.6535 11.8662 4.61406 12.8267L2.13272 13.7873ZM13.8989 4.26226L6.0548 12.1064L3.81367 9.86528L11.6578 2.02113C12.2981 1.38085 13.3387 1.38085 13.8989 2.02113C14.5393 2.58137 14.5393 3.62197 13.8989 4.26226Z" fill="#000"/>
</svg>
