<svg width="24" height="24" viewBox="0 0 24 24" fill="none" xmlns="http://www.w3.org/2000/svg">
<g id="bookmark">
<path id="Vector" d="M19.0195 4.90048C17.8189 3.69984 15.7378 3.69984 14.4571 4.90048L6.13272 13.2249C6.05265 13.3049 5.97259 13.465 5.97259 13.545L4.0516 18.9079C3.81152 19.5481 4.45181 20.1886 5.09209 19.9484L10.3749 17.9473C10.455 17.9473 10.615 17.7872 10.695 17.7872L19.0194 9.38272C20.3001 8.10213 20.3001 6.10098 19.0194 4.90035L19.0195 4.90048ZM6.13272 17.7873L7.01321 15.2259C7.97378 16.1865 7.6535 15.8662 8.61406 16.8267L6.13272 17.7873ZM17.8989 8.26226L10.0548 16.1064L7.81367 13.8653L15.6578 6.02113C16.2981 5.38085 17.3387 5.38085 17.8989 6.02113C18.5393 6.58137 18.5393 7.62197 17.8989 8.26226V8.26226Z" fill="black"/>
</g>
</svg>
