<svg width="28" height="29" viewBox="0 0 28 29" fill="none" xmlns="http://www.w3.org/2000/svg">
<circle cx="14" cy="14.5" r="13.25" stroke="#141414" stroke-width="1.5"/>
<path d="M15.3033 9.43567L16.2427 8.5L20 12.2427L19.0607 13.1783L18.1213 12.2427L15.5147 16.7573L16.454 17.693L15.5147 18.6287L9.87867 13.0147L10.818 12.079L11.7573 13.0147L16.2427 10.3713L15.3033 9.43567Z" fill="white"/>
<path d="M12.6967 16.7573L11.7573 15.8217L8 20.5L12.6967 16.7573Z" fill="white"/>
<path d="M15.3033 9.43567L16.2427 8.5L20 12.2427L19.0607 13.1783L18.1213 12.2427L15.5147 16.7573L16.454 17.693L15.5147 18.6287L9.87867 13.0147L10.818 12.079L11.7573 13.0147L16.2427 10.3713L15.3033 9.43567Z" stroke="#141414"/>
<path d="M12.6967 16.7573L11.7573 15.8217L8 20.5L12.6967 16.7573Z" stroke="#141414"/>
</svg>
