<svg width="25" height="25" viewBox="0 0 25 25" fill="none" xmlns="http://www.w3.org/2000/svg">
<path
  d="M12.4285 3.05347C11.392 3.05347 10.5535 3.89461 10.5535 4.92847C10.5535 5.96232 11.392 6.80347 12.4285 6.80347C13.4649 6.80347 14.3035 5.96232 14.3035 4.92847C14.3035 3.89461 13.4649 3.05347 12.4285 3.05347ZM12.4285 7.55347C10.3113 7.55347 9.05347 9.05347 9.05347 10.1785V14.6785C9.05347 15.0925 9.3894 15.4285 9.80347 15.4285H10.1785V21.7852C10.1785 22.2097 10.5222 22.5535 10.9467 22.5535C11.3582 22.5535 11.6941 22.2332 11.7149 21.8243L12.017 15.4285H12.8399L13.142 21.8243C13.1628 22.2332 13.4988 22.5535 13.9102 22.5535C14.3347 22.5535 14.6785 22.2097 14.6785 21.7852V15.4285H15.0535C15.4675 15.4285 15.8035 15.0925 15.8035 14.6785V10.1785C15.8035 9.05347 14.5457 7.55347 12.4285 7.55347Z" fill="currentColor"/>
</svg>
