<svg width="24" height="24" viewBox="0 0 24 24" fill="none" xmlns="http://www.w3.org/2000/svg">
<circle cx="12" cy="12" r="8.25" stroke="currentColor" stroke-width="1.5"/>
<path
  d="M12 3.75C16.5573 3.75 20.25 7.44271 20.25 12C20.25 16.5573 16.5573 20.25 12 20.25C7.44271 20.25 3.75 16.5573 3.75 12C3.75 7.44271 7.44271 3.75 12 3.75ZM16.0052 9.55729C16.2292 9.20833 16.1302 8.74479 15.7839 8.52083C15.4349 8.29427 14.9714 8.39323 14.7448 8.74219L11.1042 14.362L9.1875 12.1823C8.91406 11.8724 8.4401 11.8411 8.13021 12.1146C7.81771 12.388 7.78906 12.862 8.0625 13.1745L10.6328 16.0964C10.776 16.2578 10.9818 16.3516 11.1953 16.3516C11.2135 16.3516 11.2318 16.349 11.25 16.349C11.4844 16.3307 11.6979 16.2057 11.8255 16.0078L16.0052 9.55729Z" fill="currentColor"/>
</svg>
