<svg width="18" height="21" viewBox="0 0 18 21" fill="none" xmlns="http://www.w3.org/2000/svg">
<path d="M4.9082 6.97827L6.35974 6.92188L6.73364 16.535L5.2821 16.5914L4.9082 6.97827Z" fill="black"/>
<path d="M11.0469 16.538L11.4228 6.9248L12.8744 6.98149L12.4984 16.5946L11.0469 16.538Z" fill="black"/>
<path d="M8.16797 6.94727H9.6207V16.5683H8.16797V6.94727Z" fill="black"/>
<path d="M17.7692 3.01065H11.9374V0.484375H5.83184V3.01065H0V4.46332H1.32641L2.12649 20.4844H15.6218L16.4219 4.46332H17.7483L17.7482 3.01065H17.7692ZM7.28454 1.93701H10.5057V3.03178H7.28454V1.93701ZM14.2533 19.0317H3.51595L2.77915 4.46332H14.9902L14.2533 19.0317Z" fill="black"/>
</svg>
