<svg width="24" height="24" viewBox="0 0 24 24" fill="none" xmlns="http://www.w3.org/2000/svg">
<path d="M10.125 3.375C6.40365 3.375 3.375 6.40365 3.375 10.125C3.375 13.8464 6.40365 16.875 10.125 16.875C11.6745 16.875 13.0964 16.3464 14.237 15.4661L19.1432 20.3698C19.4818 20.7109 20.0312 20.7109 20.3698 20.3698C20.7109 20.0312 20.7109 19.4818 20.3698 19.1432L15.4661 14.237C16.3464 13.0964 16.875 11.6745 16.875 10.125C16.875 6.40365 13.8464 3.375 10.125 3.375ZM10.125 4.875C13.0208 4.875 15.375 7.22917 15.375 10.125C15.375 13.0208 13.0208 15.375 10.125 15.375C7.22917 15.375 4.875 13.0208 4.875 10.125C4.875 7.22917 7.22917 4.875 10.125 4.875Z" fill="#141414"/>
</svg>
