<svg width="20" height="20" viewBox="0 0 20 20" fill="none" xmlns="http://www.w3.org/2000/svg">
<path fill-rule="evenodd" clip-rule="evenodd" d="M8.5529 2.13822C5.01017 2.13822 2.13822 5.01017 2.13822 8.5529C2.13822 12.0956 5.01017 14.9676 8.5529 14.9676C10.3246 14.9676 11.9268 14.2508 13.0888 13.0888C14.2508 11.9268 14.9676 10.3246 14.9676 8.5529C14.9676 5.01017 12.0956 2.13822 8.5529 2.13822ZM0 8.5529C0 3.82926 3.82926 0 8.5529 0C13.2765 0 17.1058 3.82926 17.1058 8.5529C17.1058 10.5289 16.4347 12.3496 15.3095 13.7975L20 18.488L18.488 20L13.7975 15.3095C12.3496 16.4347 10.5289 17.1058 8.5529 17.1058C3.82926 17.1058 0 13.2765 0 8.5529Z" fill="#141414"/>
</svg>
