<svg viewBox="0 0 18 18" fill="none" xmlns="http://www.w3.org/2000/svg">
<path
  d="M7.125 0.375C3.40365 0.375 0.375 3.40365 0.375 7.125C0.375 10.8464 3.40365 13.875 7.125 13.875C8.67448 13.875 10.0964 13.3464 11.237 12.4661L16.1432 17.3698C16.4818 17.7109 17.0313 17.7109 17.3698 17.3698C17.7109 17.0313 17.7109 16.4818 17.3698 16.1432L12.4661 11.237C13.3464 10.0964 13.875 8.67448 13.875 7.125C13.875 3.40365 10.8464 0.375 7.125 0.375ZM7.125 1.875C10.0208 1.875 12.375 4.22917 12.375 7.125C12.375 10.0208 10.0208 12.375 7.125 12.375C4.22917 12.375 1.875 10.0208 1.875 7.125C1.875 4.22917 4.22917 1.875 7.125 1.875Z" fill="currentColor"/>
</svg>
