<svg width="24" height="40" viewBox="0 0 24 40" fill="none" xmlns="http://www.w3.org/2000/svg">
<path d="M0 2C0 0.895431 0.895431 0 2 0H22C23.1046 0 24 0.895431 24 2V38C24 39.1046 23.1046 40 22 40H2C0.89543 40 0 39.1046 0 38V2Z" fill="white"/>
<path fill-rule="evenodd" clip-rule="evenodd" d="M10.5529 12.1382C7.01017 12.1382 4.13822 15.0102 4.13822 18.5529C4.13822 22.0956 7.01017 24.9676 10.5529 24.9676C12.3246 24.9676 13.9268 24.2508 15.0888 23.0888C16.2508 21.9268 16.9676 20.3246 16.9676 18.5529C16.9676 15.0102 14.0956 12.1382 10.5529 12.1382ZM2 18.5529C2 13.8293 5.82926 10 10.5529 10C15.2765 10 19.1058 13.8293 19.1058 18.5529C19.1058 20.5289 18.4347 22.3496 17.3095 23.7975L22 28.488L20.488 30L15.7975 25.3095C14.3496 26.4347 12.5289 27.1058 10.5529 27.1058C5.82926 27.1058 2 23.2765 2 18.5529Z" fill="#141414"/>
</svg>
