<svg width="24" height="24" viewBox="0 0 24 24" fill="none" xmlns="http://www.w3.org/2000/svg">
<path d="M10.8958 3.75C10.3932 3.75 9.96354 4.11198 9.88021 4.60677L9.66146 5.875C9.54688 5.91667 9.43229 5.96354 9.32031 6.01302L8.27083 5.27083C7.8125 4.95313 7.26823 5.07031 6.94792 5.38542L5.38542 6.94792C5.03125 7.30208 4.98437 7.86198 5.27344 8.27083L6.01302 9.32031C5.96354 9.43229 5.91667 9.54688 5.875 9.66146L4.60677 9.88021C4.11198 9.96354 3.75 10.3932 3.75 10.8958V13.1042C3.75 13.6068 4.11198 14.0365 4.60677 14.1198L5.875 14.3385C5.91667 14.4531 5.96354 14.5677 6.01302 14.6797L5.27083 15.7292C4.98177 16.138 5.03125 16.6979 5.38542 17.0521L6.94792 18.6146C7.35417 19.013 7.92188 18.9792 8.27083 18.7266L9.32031 17.987C9.43229 18.0365 9.54688 18.0833 9.66146 18.125L9.88021 19.3932C9.96354 19.888 10.3932 20.25 10.8958 20.25H13.1042C13.6068 20.25 14.0365 19.888 14.1198 19.3932L14.3385 18.125C14.4531 18.0833 14.5677 18.0365 14.6797 17.987L15.7292 18.7292C16.0365 18.9557 16.6276 19.0391 17.0521 18.6146L18.6146 17.0521C18.9688 16.6979 19.0156 16.138 18.7266 15.7292L17.987 14.6797C18.0365 14.5677 18.0833 14.4531 18.125 14.3385L19.3932 14.1198C19.888 14.0365 20.25 13.6068 20.25 13.1042V10.8958C20.25 10.3932 19.888 9.96354 19.3932 9.88021L18.125 9.66146C18.0833 9.54688 18.0365 9.43229 17.987 9.32031L18.7292 8.27083C19.0182 7.86198 18.9688 7.30208 18.6146 6.94792L17.0521 5.38542C16.6562 4.9974 16.1068 5.00781 15.7292 5.27344L14.6797 6.01302C14.5677 5.96354 14.4531 5.91667 14.3385 5.875L14.1198 4.60677C14.0365 4.11198 13.6068 3.75 13.1042 3.75H10.8958ZM11.3307 5.25H12.6693C12.6927 5.25 12.7135 5.26563 12.7161 5.28906L13.0052 6.97135C13.6693 7.20833 14.2891 7.46094 14.8464 7.73177L16.2396 6.7474C16.2578 6.73437 16.2839 6.73698 16.2995 6.7526L17.2474 7.70052C17.263 7.71875 17.2656 7.74219 17.2526 7.76042L16.2682 9.15365C16.5521 9.75521 16.8099 10.3698 17.0286 10.9948L18.7109 11.2839C18.7344 11.2891 18.75 11.3073 18.75 11.3307V12.6693C18.75 12.6927 18.7344 12.7135 18.7109 12.7161L17.0286 13.0052C16.8099 13.6302 16.5547 14.2448 16.2682 14.8464L17.2526 16.2396C17.2656 16.2578 17.263 16.2839 17.2474 16.2995L16.2995 17.2474C16.2839 17.263 16.2578 17.2656 16.2396 17.2526L14.8464 16.2682C14.2318 16.5573 13.6172 16.8099 13.0052 17.0286L12.7161 18.7109C12.7109 18.7344 12.6927 18.75 12.6693 18.75H11.3307C11.3073 18.75 11.2865 18.7344 11.2839 18.7109L10.9948 17.0286C10.3906 16.8203 9.77865 16.5703 9.15365 16.2682L7.76042 17.2526C7.74219 17.2656 7.71615 17.263 7.70052 17.2474L6.7526 16.2995C6.73698 16.2839 6.73437 16.2578 6.7474 16.2396L7.73177 14.8464C7.4401 14.2214 7.1849 13.6094 6.97135 13.0052L5.28906 12.7161C5.26563 12.7109 5.25 12.6927 5.25 12.6693V11.3307C5.25 11.3073 5.26563 11.2891 5.28906 11.2839L6.97135 10.9948C7.1901 10.3802 7.4401 9.76823 7.73177 9.15365L6.7474 7.76042C6.73437 7.74219 6.73698 7.71615 6.7526 7.70052L7.70052 6.7526C7.71615 6.73698 7.74219 6.73437 7.76042 6.7474L9.15365 7.73177C9.73437 7.45313 10.349 7.20052 10.9948 6.97135L11.2839 5.28906C11.2891 5.26563 11.3073 5.25 11.3307 5.25ZM12 8.625C10.1354 8.625 8.625 10.1354 8.625 12C8.625 13.8646 10.1354 15.375 12 15.375C13.8646 15.375 15.375 13.8646 15.375 12C15.375 10.1354 13.8646 8.625 12 8.625ZM12 10.125C13.0365 10.125 13.875 10.9635 13.875 12C13.875 13.0365 13.0365 13.875 12 13.875C10.9635 13.875 10.125 13.0365 10.125 12C10.125 10.9635 10.9635 10.125 12 10.125Z" fill="#141414"/>
</svg>
