<svg width="24" height="24" viewBox="0 0 24 24" fill="none" xmlns="http://www.w3.org/2000/svg">
<path d="M19.6276 10.5078C19.987 10.5703 20.25 10.8828 20.25 11.2474V12.7526C20.25 13.1172 19.987 13.4297 19.6276 13.4922L18.3281 13.7161C18.1797 14.263 17.9635 14.7813 17.6875 15.263L18.4479 16.3385C18.6589 16.638 18.6224 17.0443 18.3646 17.3021L17.3021 18.3646C17.0443 18.625 16.638 18.6589 16.3385 18.4479L15.263 17.6875C14.7813 17.9661 14.263 18.1797 13.7161 18.3281L13.4922 19.6276C13.4297 19.987 13.1172 20.25 12.7526 20.25H11.2474C10.8828 20.25 10.5703 19.987 10.5078 19.6276L10.2839 18.3281C9.73698 18.1797 9.21875 17.9635 8.73698 17.6875L7.66146 18.4479C7.36198 18.6589 6.95573 18.6224 6.69792 18.3646L5.63542 17.3021C5.3776 17.0443 5.34115 16.6354 5.55208 16.3385L6.3125 15.263C6.03646 14.7813 5.82031 14.263 5.67187 13.7135L4.3724 13.4922C4.01302 13.4297 3.75 13.1172 3.75 12.7526V11.2474C3.75 10.8828 4.01302 10.5703 4.3724 10.5078L5.67187 10.2839C5.82031 9.73698 6.03646 9.21875 6.3125 8.73698L5.55208 7.66146C5.34115 7.36198 5.3776 6.95573 5.63542 6.69792L6.69792 5.63542C6.95573 5.3776 7.36198 5.34115 7.66146 5.55208L8.73698 6.3125C9.21875 6.03646 9.73698 5.82031 10.2839 5.67187L10.5078 4.3724C10.5703 4.01302 10.8828 3.75 11.2474 3.75H12.7526C13.1172 3.75 13.4297 4.01302 13.4922 4.3724L13.7161 5.67187C14.263 5.82031 14.7813 6.03646 15.263 6.3125L16.3385 5.55208C16.638 5.34115 17.0443 5.3776 17.3021 5.63542L18.3646 6.69792C18.6224 6.95573 18.6589 7.36198 18.4479 7.66146L17.6875 8.73698C17.9635 9.21875 18.1797 9.73698 18.3281 10.2839L19.6276 10.5078ZM12 15C13.6562 15 15 13.6562 15 12C15 10.3438 13.6562 9 12 9C10.3438 9 9 10.3438 9 12C9 13.6562 10.3438 15 12 15Z" fill="#141414"/>
</svg>
