<svg width="20" height="20" viewBox="0 0 20 20" xmlns="http://www.w3.org/2000/svg">
<path d="M7.49414 0L7.00391 2.52344C6.17974 2.83425 5.42291 3.26993 4.75977 3.81445L2.33594 2.97852L0 7.02148L1.94141 8.70898C1.86677 9.16721 1.82812 9.59184 1.82812 10C1.82812 10.4088 1.86793 10.8326 1.94141 11.291V11.293L0 12.9805L2.33594 17.0215L4.75781 16.1875C5.42102 16.7323 6.17956 17.1656 7.00391 17.4766L7.49414 20H12.1621L12.6523 17.4766C13.477 17.1655 14.233 16.7306 14.8965 16.1855L17.3203 17.0215L19.6543 12.9805L17.7148 11.291C17.7895 10.8328 17.8281 10.4082 17.8281 10C17.8281 9.59246 17.7893 9.16837 17.7148 8.71094V8.70898L19.6562 7.01953L17.3203 2.97852L14.8984 3.8125C14.2352 3.26768 13.4767 2.83443 12.6523 2.52344L12.1621 0H7.49414ZM9.14258 2H10.5137L10.9023 4L11.9453 4.39453C12.574 4.63147 13.1388 4.95675 13.6289 5.35938L14.4922 6.06641L16.4141 5.40625L17.0996 6.5918L15.5645 7.92773L15.7402 9.02734V9.0293C15.8014 9.40423 15.8281 9.71877 15.8281 10C15.8281 10.2812 15.8014 10.5957 15.7402 10.9707L15.5625 12.0703L17.0977 13.4062L16.4121 14.5938L14.4922 13.9316L13.627 14.6406C13.1368 15.0432 12.574 15.3685 11.9453 15.6055H11.9434L10.9004 16L10.5117 18H9.14258L8.75391 16L7.71094 15.6055C7.08227 15.3685 6.51745 15.0432 6.02734 14.6406L5.16406 13.9336L3.24219 14.5938L2.55664 13.4082L4.09375 12.0703L3.91602 10.9746V10.9727C3.85574 10.5961 3.82812 10.2807 3.82812 10C3.82812 9.71877 3.85487 9.40428 3.91602 9.0293L4.09375 7.92969L2.55664 6.59375L3.24219 5.40625L5.16406 6.06836L6.02734 5.35938C6.51745 4.95675 7.08227 4.63147 7.71094 4.39453L8.75391 4L9.14258 2ZM9.82812 6C7.6316 6 5.82812 7.80348 5.82812 10C5.82812 12.1965 7.6316 14 9.82812 14C12.0246 14 13.8281 12.1965 13.8281 10C13.8281 7.80348 12.0246 6 9.82812 6ZM9.82812 8C10.9396 8 11.8281 8.88852 11.8281 10C11.8281 11.1115 10.9396 12 9.82812 12C8.71665 12 7.82812 11.1115 7.82812 10C7.82812 8.88852 8.71665 8 9.82812 8Z"/>
</svg>
