<svg width="24" height="24" viewBox="0 0 24 24" fill="none" xmlns="http://www.w3.org/2000/svg">
<path d="M2.81738 16.1563C2.81738 11.7656 6.79655 7.88021 11.8174 7.22396C11.8174 7.22396 11.8174 6.53906 11.8174 5.05729C11.8174 3.51302 13.6611 2.84115 14.6898 3.86979C15.7184 4.89844 19.5882 8.77084 20.1299 9.3125C20.7314 9.91146 20.846 10.974 20.1299 11.6901C19.4163 12.4036 15.7106 16.1094 14.6898 17.1302C13.6663 18.151 11.8174 17.4688 11.8174 15.9193C11.8174 15.2318 11.8174 13.9453 11.8174 13.9453C4.40853 14.7031 7.23145 20.625 4.69238 20.625C3.4502 20.625 2.81738 19.1224 2.81738 16.1563ZM4.31738 16.1563C4.31738 17.4089 4.49186 18.6406 4.5752 18.6406C4.7627 18.6406 4.78353 12.6406 12.5361 12.3932C13.0283 12.3776 13.3174 12.5573 13.3174 13.1302C13.3174 13.7005 13.3174 15.7969 13.3174 15.9427C13.3174 16.1068 13.5101 16.1875 13.6273 16.0703C13.7445 15.9531 19.0179 10.6823 19.07 10.6302C19.1221 10.5755 19.1585 10.4609 19.07 10.3724C18.9814 10.2839 13.734 5.03646 13.6273 4.92969C13.5231 4.82552 13.3174 4.88281 13.3174 5.0599C13.3174 5.23438 13.3174 7.39063 13.3174 7.72136C13.3174 8.38281 12.9346 8.61979 12.4346 8.66667C7.8877 9.10156 4.31738 12.4089 4.31738 16.1563Z" fill="#141414"/>
</svg>
