<svg width="20" height="18" viewBox="0 0 20 18" fill="none" xmlns="http://www.w3.org/2000/svg">
<path d="M18.9051 5.84476L13.2802 0.219864C13.0659 0.00516444 12.7433 -0.0590774 12.4631 0.057267C12.1827 0.173408 12 0.446907 12 0.750148V2.98109C10.4431 3.00453 6.93799 3.36927 4.10315 5.93941C1.49973 8.29983 0.122008 11.8884 0.00774261 16.6101C0.00376666 16.8204 0 17.0314 0 17.25C0 17.6198 0.269523 17.9345 0.635078 17.9912C0.673581 17.9971 0.712294 18 0.750586 18C1.07243 18 1.36456 17.7924 1.46479 17.4775C1.48885 17.4024 3.87798 10.1908 12 9.76976L11.9997 12.0003C11.9997 12.3035 12.1824 12.577 12.4628 12.6932C12.742 12.8093 13.0655 12.7453 13.28 12.5306L18.9049 6.90566C19.1979 6.61269 19.1979 6.1381 18.9049 5.84512L18.9051 5.84476ZM13.4999 10.1894V9.00001C13.4999 8.58588 13.164 8.25002 12.7499 8.25002C6.93427 8.25002 3.55504 11.3027 1.76204 13.8064C2.23748 10.9045 3.35892 8.6391 5.11105 7.05058C7.66947 4.73114 10.8634 4.47797 12.1347 4.47797C12.3772 4.47797 12.5501 4.48717 12.635 4.49303C12.7083 4.5014 12.7497 4.49994 12.7499 4.49994C13.1529 4.48487 13.4999 4.15319 13.4999 3.74995V2.56053L17.314 6.3749L13.4999 10.1894Z" fill="black"/>
</svg>
