<svg width="19" height="18" viewBox="0 0 19 18" fill="none" xmlns="http://www.w3.org/2000/svg">
<path d="M0.817383 13.1562C0.817383 8.7656 4.79655 4.88018 9.81738 4.22393C9.81738 4.22393 9.81738 3.53903 9.81738 2.05726C9.81738 0.512992 11.6611 -0.158882 12.6898 0.869763C13.7184 1.89841 17.5882 5.7708 18.1299 6.31247C18.7314 6.91143 18.846 7.97393 18.1299 8.69008C17.4163 9.40362 13.7106 13.1093 12.6898 14.1302C11.6663 15.151 9.81738 14.4687 9.81738 12.9192C9.81738 12.2317 9.81738 10.9453 9.81738 10.9453C2.40853 11.7031 5.23145 17.625 2.69238 17.625C1.4502 17.625 0.817383 16.1224 0.817383 13.1562ZM2.31738 13.1562C2.31738 14.4088 2.49186 15.6406 2.5752 15.6406C2.7627 15.6406 2.78353 9.6406 10.5361 9.3932C11.0283 9.37758 11.3174 9.55726 11.3174 10.1302C11.3174 10.7005 11.3174 12.7968 11.3174 12.9427C11.3174 13.1067 11.5101 13.1875 11.6273 13.0703C11.7445 12.9531 17.0179 7.68226 17.07 7.63018C17.1221 7.57549 17.1585 7.46091 17.07 7.37237C16.9814 7.28383 11.734 2.03643 11.6273 1.92966C11.5231 1.82549 11.3174 1.88278 11.3174 2.05987C11.3174 2.23435 11.3174 4.3906 11.3174 4.72133C11.3174 5.38278 10.9346 5.61976 10.4346 5.66664C5.8877 6.10153 2.31738 9.40883 2.31738 13.1562Z" fill="#141414"/>
</svg>
