<svg width="24" height="24" viewBox="0 0 24 24" fill="none" xmlns="http://www.w3.org/2000/svg">
<path d="M21.7819 8.84476L16.1937 3.21986C15.9808 3.00516 15.6602 2.94092 15.3818 3.05727C15.1033 3.17341 14.9218 3.44691 14.9218 3.75015V5.98109C13.3751 6.00453 9.89278 6.36927 7.07641 8.93941C4.48996 11.2998 3.12121 14.8884 3.00769 19.6101C3.00374 19.8204 3 20.0314 3 20.25C3 20.6198 3.26777 20.9345 3.63094 20.9912C3.66919 20.9971 3.70765 21 3.7457 21C4.06544 21 4.35567 20.7924 4.45524 20.4775C4.47915 20.4024 6.85271 13.1908 14.9218 12.7698L14.9216 15.0003C14.9216 15.3035 15.103 15.577 15.3816 15.6932C15.659 15.8093 15.9804 15.7453 16.1935 15.5306L21.7817 9.90566C22.0728 9.61269 22.0728 9.1381 21.7817 8.84512L21.7819 8.84476ZM16.4119 13.1894V12C16.4119 11.5859 16.0782 11.25 15.6668 11.25C9.88908 11.25 6.53188 14.3027 4.75056 16.8064C5.2229 13.9045 6.33704 11.6391 8.07775 10.0506C10.6195 7.73114 13.7927 7.47797 15.0556 7.47797C15.2966 7.47797 15.4683 7.48717 15.5527 7.49303C15.6254 7.5014 15.6666 7.49994 15.6668 7.49994C16.0672 7.48487 16.4119 7.15319 16.4119 6.74995V5.56053L20.2012 9.3749L16.4119 13.1894Z" fill="black"/>
</svg>
