<svg width="40" height="40" viewBox="0 0 40 40" fill="none" xmlns="http://www.w3.org/2000/svg">
<rect width="40" height="40" fill="#F7F7F7"/>
<path fill-rule="evenodd" clip-rule="evenodd" d="M12 15.2444C12 14.5558 12.5794 14 13.2971 14C14.0148 14 14.5941 14.5558 14.5941 15.2444C14.5941 15.9329 14.0148 16.4887 13.2971 16.4887C12.5794 16.4887 12 15.9329 12 15.2444ZM12 20.222C12 19.5334 12.5794 18.9776 13.2971 18.9776C14.0148 18.9776 14.5941 19.5334 14.5941 20.222C14.5941 20.9105 14.0148 21.4663 13.2971 21.4663C12.5794 21.4663 12 20.9105 12 20.222ZM13.2971 23.9548C12.5794 23.9548 12 24.5189 12 25.1991C12 25.8794 12.588 26.4435 13.2971 26.4435C14.0061 26.4435 14.5941 25.8794 14.5941 25.1991C14.5941 24.5189 14.0148 23.9548 13.2971 23.9548ZM28.0015 26.0284H15.8956V24.3692H28.0015V26.0284ZM15.8956 21.0517H28.0015V19.3925H15.8956V21.0517ZM15.8956 16.0741V14.4149H28.0015V16.0741H15.8956Z" fill="black"/>
</svg>
