<svg width="28" height="28" viewBox="0 0 28 28" fill="none" xmlns="http://www.w3.org/2000/svg">
<rect x="1" y="1" width="26" height="26" stroke="currentColor" stroke-width="2" fill="#fff"/>
 <path d="M6 9.24437C6 8.55582 6.57935 8 7.29706 8C8.01477 8 8.59412 8.55582 8.59412 9.24437C8.59412 9.93293 8.01477 10.4887 7.29706 10.4887C6.57935 10.4887 6 9.93293 6 9.24437ZM6 14.222C6 13.5334 6.57935 12.9776 7.29706 12.9776C8.01477 12.9776 8.59412 13.5334 8.59412 14.222C8.59412 14.9105 8.01477 15.4663 7.29706 15.4663C6.57935 15.4663 6 14.9105 6 14.222ZM7.29706 17.9548C6.57935 17.9548 6 18.5189 6 19.1991C6 19.8794 6.588 20.4435 7.29706 20.4435C8.00612 20.4435 8.59412 19.8794 8.59412 19.1991C8.59412 18.5189 8.01477 17.9548 7.29706 17.9548ZM22.0015 20.0284H9.89562V18.3692H22.0015V20.0284ZM9.89562 15.0517H22.0015V13.3925H9.89562V15.0517ZM9.89562 10.0741V8.41491H22.0015V10.0741H9.89562Z" fill="currentColor"/>
</svg>
