<svg width="24" height="25" viewBox="0 0 24 25" fill="none" xmlns="http://www.w3.org/2000/svg">
<g id="telegram logo">
<path id="Icon" d="M2.35326 12.1563L6.96167 13.7367L8.7454 19.0076C8.85953 19.3452 9.3088 19.4699 9.607 19.2459L12.1758 17.3218C12.4451 17.1202 12.8286 17.1101 13.11 17.2978L17.7432 20.3886C18.0622 20.6016 18.5141 20.441 18.5941 20.0869L21.9882 5.08587C22.0756 4.69898 21.6618 4.37623 21.2609 4.51871L2.34786 11.2226C1.88113 11.388 1.88519 11.9952 2.35326 12.1563ZM8.45793 12.8954L17.4645 7.79852C17.6263 7.70719 17.7929 7.90829 17.6539 8.02676L10.2209 14.3753C9.9596 14.5988 9.79107 14.8978 9.74334 15.2224L9.49014 16.9465C9.4566 17.1767 9.10467 17.1996 9.03553 16.9768L8.06173 13.8328C7.9502 13.4742 8.11273 13.0912 8.45793 12.8954Z" fill="#141414"/>
</g>
</svg>
