<svg width="24" height="25" viewBox="0 0 24 25" fill="none" xmlns="http://www.w3.org/2000/svg">
<path d="M6.3459 13.1364H8.69673V22.1618C8.69673 22.34 8.85155 22.4844 9.04263 22.4844H13.0285C13.2196 22.4844 13.3744 22.34 13.3744 22.1618V13.1789H16.0769C16.2526 13.1789 16.4005 13.0559 16.4205 12.8931L16.831 9.57044C16.8423 9.47902 16.8112 9.38747 16.7456 9.31889C16.68 9.25025 16.586 9.21096 16.4874 9.21096H13.3746V7.12812C13.3746 6.50025 13.7371 6.18186 14.4521 6.18186C14.554 6.18186 16.4874 6.18186 16.4874 6.18186C16.6785 6.18186 16.8333 6.03741 16.8333 5.85928V2.80934C16.8333 2.63115 16.6785 2.48676 16.4874 2.48676H13.6825C13.6627 2.48586 13.6188 2.48438 13.554 2.48438C13.0673 2.48438 11.3757 2.57347 10.0394 3.71992C8.55878 4.99038 8.76459 6.51154 8.81378 6.77528V9.21089H6.3459C6.15483 9.21089 6 9.35528 6 9.53347V12.8137C6 12.9919 6.15483 13.1364 6.3459 13.1364Z" fill="#141414"/>
</svg>
