<svg width="24" height="25" viewBox="0 0 24 25" fill="none" xmlns="http://www.w3.org/2000/svg">
<path d="M19.2129 13.7512C19.8763 14.4052 20.5765 15.0206 21.1715 15.7406C21.4344 16.0605 21.6832 16.3907 21.8736 16.762C22.1433 17.2898 21.899 17.8707 21.4303 17.9022L18.5166 17.9009C17.7652 17.9638 17.1657 17.6584 16.6616 17.1395C16.2582 16.7246 15.8846 16.2831 15.4967 15.8542C15.3377 15.6789 15.1713 15.5139 14.9724 15.3835C14.5747 15.1228 14.2294 15.2026 14.0021 15.6215C13.7706 16.0476 13.7181 16.5193 13.6954 16.9942C13.6642 17.687 13.4568 17.8691 12.7676 17.9008C11.2947 17.9709 9.89691 17.7459 8.59838 16.9957C7.45355 16.3343 6.56579 15.4006 5.79308 14.3435C4.28861 12.2852 3.13649 10.0234 2.10101 7.6983C1.86793 7.17444 2.03838 6.89324 2.6108 6.88329C3.56132 6.86464 4.5117 6.86597 5.46334 6.88196C5.84966 6.88767 6.10541 7.11141 6.25458 7.47993C6.76884 8.75675 7.39809 9.97154 8.18794 11.0975C8.39829 11.3973 8.61277 11.6971 8.9182 11.9081C9.25609 12.1417 9.51335 12.0643 9.6723 11.6842C9.77317 11.4432 9.81733 11.1837 9.84007 10.9256C9.91537 10.0376 9.92529 9.15109 9.79321 8.26621C9.71213 7.71396 9.40407 7.35645 8.85833 7.25194C8.57985 7.19866 8.62131 7.09402 8.75615 6.93352C8.99035 6.65669 9.21061 6.48438 9.6497 6.48438H12.9426C13.461 6.58769 13.5761 6.82284 13.6471 7.34955L13.6499 11.0429C13.6442 11.2468 13.7508 11.8519 14.1145 11.9869C14.4056 12.0829 14.5975 11.8478 14.7721 11.6614C15.5605 10.8165 16.1232 9.81793 16.6259 8.78396C16.849 8.32931 17.0408 7.85714 17.2267 7.38538C17.3644 7.0353 17.5806 6.86305 17.9711 6.87068L21.1403 6.87353C21.2343 6.87353 21.3294 6.87493 21.4204 6.89065C21.9544 6.98255 22.1007 7.21452 21.9358 7.74109C21.6759 8.56725 21.1703 9.25572 20.6759 9.94738C20.1473 10.6858 19.5821 11.399 19.058 12.1418C18.5764 12.8201 18.6147 13.162 19.2129 13.7512Z" fill="#141414"/>
</svg>
