<svg width="24" height="25" viewBox="0 0 24 25" fill="none" xmlns="http://www.w3.org/2000/svg">
<g id="linkedin">
<g id="Group">
<path id="Vector" d="M6.93855 21.4004V9.51472H2.99144V21.4004H6.93896H6.93855ZM4.96582 7.89221C6.34197 7.89221 7.19872 6.97953 7.19872 5.83894C7.17296 4.67236 6.34197 3.78516 4.99199 3.78516C3.64109 3.78516 2.75879 4.67236 2.75879 5.83884C2.75879 6.97943 3.61522 7.89211 4.93996 7.89211H4.96551L4.96582 7.89221ZM9.12333 21.4004H13.0701V14.7636C13.0701 14.4089 13.0959 14.0532 13.2002 13.7998C13.4854 13.0897 14.1348 12.3548 15.2254 12.3548C16.6533 12.3548 17.2248 13.4446 17.2248 15.0426V21.4004H21.1715V14.5855C21.1715 10.9349 19.2246 9.23607 16.6278 9.23607C14.4987 9.23607 13.5637 10.4271 13.0442 11.2383H13.0704V9.51513H9.12353C9.17505 10.6302 9.12322 21.4008 9.12322 21.4008L9.12333 21.4004Z" fill="black"/>
</g>
</g>
</svg>
