<svg width="24" height="25" viewBox="0 0 24 25" fill="none" xmlns="http://www.w3.org/2000/svg">
<g id="vk logo">
<path id="Vector" d="M14.88 12.4844C14.88 13.054 14.7111 13.6108 14.3946 14.0844C14.0782 14.558 13.6284 14.9272 13.1021 15.1451C12.5759 15.3631 11.9968 15.4202 11.4381 15.309C10.8795 15.1979 10.3663 14.9236 9.96353 14.5208C9.56076 14.1181 9.28646 13.6049 9.17534 13.0462C9.06421 12.4876 9.12125 11.9085 9.33923 11.3822C9.55721 10.856 9.92634 10.4062 10.4 10.0897C10.8736 9.77328 11.4304 9.60438 12 9.60438C12.7636 9.60525 13.4956 9.90896 14.0355 10.4489C14.5754 10.9888 14.8791 11.7208 14.88 12.4844ZM21 8.52437V16.4444C20.9985 17.7806 20.467 19.0617 19.5221 20.0065C18.5773 20.9514 17.2962 21.4829 15.96 21.4844H8.04C6.70377 21.4829 5.42271 20.9514 4.47785 20.0065C3.533 19.0617 3.00151 17.7806 3 16.4444V8.52437C3.00151 7.18815 3.533 5.90708 4.47785 4.96223C5.42271 4.01737 6.70377 3.48589 8.04 3.48438H15.96C17.2962 3.48589 18.5773 4.01737 19.5221 4.96223C20.467 5.90708 20.9985 7.18815 21 8.52437ZM16.32 12.4844C16.32 11.63 16.0666 10.7947 15.5919 10.0843C15.1173 9.37389 14.4426 8.82019 13.6532 8.49322C12.8638 8.16625 11.9952 8.0807 11.1572 8.24738C10.3192 8.41407 9.54946 8.82551 8.9453 9.42967C8.34114 10.0338 7.9297 10.8036 7.76301 11.6416C7.59632 12.4796 7.68187 13.3482 8.00884 14.1376C8.33581 14.9269 8.88952 15.6016 9.59994 16.0763C10.3104 16.551 11.1456 16.8044 12 16.8044C13.1453 16.8031 14.2434 16.3475 15.0533 15.5376C15.8631 14.7278 16.3187 13.6297 16.32 12.4844ZM17.76 7.80438C17.76 7.59077 17.6967 7.38196 17.578 7.20436C17.4593 7.02675 17.2906 6.88833 17.0933 6.80659C16.896 6.72484 16.6788 6.70345 16.4693 6.74513C16.2598 6.7868 16.0674 6.88966 15.9163 7.0407C15.7653 7.19174 15.6624 7.38418 15.6208 7.59368C15.5791 7.80318 15.6005 8.02033 15.6822 8.21767C15.764 8.41502 15.9024 8.58369 16.08 8.70236C16.2576 8.82103 16.4664 8.88438 16.68 8.88438C16.9664 8.88438 17.2411 8.77059 17.4437 8.56805C17.6462 8.36551 17.76 8.09081 17.76 7.80438Z" fill="black"/>
</g>
</svg>
