<svg width="20" height="16" viewBox="0 0 20 16" fill="none" xmlns="http://www.w3.org/2000/svg">
<path
	d="M0.353259 7.67194L4.96167 9.25234L6.7454 14.5232C6.85953 14.8608 7.3088 14.9856 7.607 14.7616L10.1758 12.8374C10.4451 12.6358 10.8286 12.6258 11.11 12.8134L15.7432 15.9042C16.0622 16.1173 16.5141 15.9567 16.5941 15.6025L19.9882 0.601498C20.0756 0.214607 19.6618 -0.108149 19.2609 0.0343316L0.347859 6.73822C-0.118875 6.90361 -0.114808 7.51078 0.353259 7.67194ZM6.45793 8.41105L15.4645 3.31415C15.6263 3.22282 15.7929 3.42392 15.6539 3.54239L8.22087 9.89093C7.9596 10.1144 7.79107 10.4134 7.74334 10.738L7.49014 12.4621C7.4566 12.6923 7.10467 12.7152 7.03553 12.4924L6.06173 9.34845C5.9502 8.98986 6.11273 8.60683 6.45793 8.41105Z" fill="#ffffff"/>
</svg>
