<svg width="20" height="16" viewBox="0 0 20 16" fill="none" xmlns="http://www.w3.org/2000/svg">
<path
	d="M19.5467 1.84651C19.2325 1.98268 18.9095 2.0976 18.5794 2.1909C18.9702 1.75908 19.2681 1.25097 19.45 0.694956C19.4908 0.570325 19.4485 0.433906 19.3437 0.352395C19.239 0.270821 19.0935 0.26105 18.9782 0.327809C18.2772 0.734041 17.521 1.02598 16.728 1.19669C15.9293 0.434032 14.8444 0 13.7228 0C11.3554 0 9.42934 1.88194 9.42934 4.19514C9.42934 4.37733 9.44114 4.55851 9.4645 4.73716C6.52677 4.48513 3.79561 3.07422 1.92014 0.826269C1.8533 0.746145 1.75033 0.702962 1.64491 0.71122C1.53943 0.71929 1.44465 0.777413 1.39136 0.866741C1.01098 1.50452 0.809882 2.23396 0.809882 2.97613C0.809882 3.98698 1.17924 4.94608 1.83169 5.6955C1.6333 5.62836 1.44078 5.54446 1.25704 5.44479C1.1584 5.39114 1.03801 5.39196 0.940011 5.44687C0.841946 5.50178 0.780463 5.60277 0.777882 5.71315C0.77743 5.73175 0.777431 5.75035 0.777431 5.76919C0.777431 7.27806 1.60852 8.63652 2.87917 9.37693C2.77 9.36627 2.66091 9.35083 2.55252 9.33059C2.44078 9.30972 2.32588 9.34799 2.25052 9.43127C2.17504 9.51448 2.15007 9.63047 2.18485 9.73638C2.65517 11.1712 3.86607 12.2265 5.32993 12.5483C4.11581 13.2913 2.72736 13.6806 1.26982 13.6806C0.965688 13.6806 0.659818 13.6631 0.360464 13.6285C0.211755 13.6112 0.0695618 13.697 0.0189168 13.8352C-0.0317281 13.9734 0.0219491 14.1276 0.148465 14.2068C2.02091 15.3799 4.186 16 6.40954 16C10.7808 16 13.5153 13.9859 15.0394 12.2962C16.9401 10.1893 18.0301 7.40061 18.0301 4.64519C18.0301 4.53007 18.0283 4.41383 18.0247 4.29796C18.7746 3.74592 19.4202 3.07782 19.9456 2.30992C20.0254 2.1933 20.0167 2.03916 19.9243 1.93181C19.832 1.82439 19.6781 1.78965 19.5467 1.84651Z" fill="#ffffff"/>
</svg>
