<svg width="24" height="24" viewBox="0 0 24 24" fill="none" xmlns="http://www.w3.org/2000/svg">
<path d="M12 5.625C5.60156 5.625 4.7474 5.69271 3.92708 6.53646C3.10677 7.38021 3 8.71875 3 12C3 15.2812 3.10677 16.6224 3.92708 17.4635C4.7474 18.3073 5.60156 18.375 12 18.375C18.3984 18.375 19.2526 18.3073 20.0729 17.4635C20.8932 16.6198 21 15.2812 21 12C21 8.71875 20.8932 7.38021 20.0729 6.53646C19.2526 5.69271 18.3984 5.625 12 5.625ZM12 7.125C17.2396 7.125 18.5182 7.14844 18.9505 7.58594C19.3854 8.02604 19.5 9.20052 19.5 12C19.5 14.7995 19.3854 15.974 18.9505 16.4141C18.5182 16.8516 17.2396 16.875 12 16.875C6.76042 16.875 5.48177 16.8516 5.04948 16.4141C4.61458 15.974 4.51042 14.7995 4.51042 12C4.51042 9.20052 4.61458 8.02604 5.04948 7.58594C5.48177 7.14844 6.76042 7.125 12 7.125ZM10.4818 9.38281V14.6172L15.0365 11.9792L10.4818 9.38281Z" fill="currentColor"/>
</svg>
