<svg width="24" height="24" viewBox="0 0 24 24" fill="none" xmlns="http://www.w3.org/2000/svg">
<path d="M8.91406 4.5C4.82031 4.5 4.5 4.82031 4.5 8.91406V15.0859C4.5 19.1797 4.82031 19.5 8.91406 19.5H15.0859C19.1797 19.5 19.5 19.1797 19.5 15.0859V8.91406C19.5 4.82031 19.1797 4.5 15.0859 4.5H8.91406ZM7.9375 6H16.0625C17.8594 6 18 6.14063 18 7.9375V16.0625C18 17.8594 17.8594 18 16.0625 18H7.9375C6.14063 18 6 17.8594 6 16.0625V7.9375C6 6.14063 6.14063 6 7.9375 6ZM12.2786 7.38542V13.6094C12.2786 14.4661 11.5339 14.9089 11 14.9089C10.5964 14.9089 9.68229 14.5938 9.68229 13.6016C9.68229 12.5573 10.5365 12.2917 11.0078 12.2917C11.2839 12.2917 11.3932 12.3516 11.3932 12.3516V10.6901C11.3932 10.6901 11.1875 10.6589 10.9505 10.6589C9.25521 10.6589 8.04948 12.0312 8.04948 13.6016C8.04948 14.9271 9.08594 16.5312 10.9792 16.5312C12.9974 16.5312 13.9193 14.849 13.9193 13.6094V10.5208C13.9193 10.5208 14.8203 11.151 16.0234 11.151V9.57813C14.6432 9.47917 13.9036 8.54948 13.8516 7.38542H12.2786Z" fill="currentColor"/>
</svg>
