<svg width="24" height="24" viewBox="0 0 24 24" fill="none" xmlns="http://www.w3.org/2000/svg">
<path fill-rule="evenodd" clip-rule="evenodd" d="M16.2995 19.5H7.70052C6.84635 19.5 6.04167 19.1667 5.4375 18.5625C4.83333 17.9583 4.5 17.1536 4.5 16.2969V7.70313C4.5 6.84635 4.83333 6.04167 5.4375 5.4375C6.04167 4.83333 6.84635 4.5 7.70052 4.5H16.2995C17.1536 4.5 17.9583 4.83333 18.5625 5.4375C19.1667 6.04167 19.5 6.84635 19.5 7.70313V16.2995C19.5 17.1536 19.1667 17.9583 18.5625 18.5625C17.9583 19.1667 17.1536 19.5 16.2995 19.5ZM7.70052 6C7.2474 6 6.82031 6.17708 6.4974 6.5C6.17708 6.82031 6 7.2474 6 7.70313V16.2995C6 16.7526 6.17708 17.1797 6.4974 17.5026C6.82031 17.8229 7.2474 18 7.70052 18H16.2995C16.7526 18 17.1797 17.8229 17.5026 17.5026C17.8229 17.1797 18 16.7526 18 16.2969V7.70313C18 7.2474 17.8229 6.82031 17.5026 6.5C17.1797 6.17708 16.7526 6 16.2995 6H7.70052Z" fill="currentColor"/>
<path fill-rule="evenodd" clip-rule="evenodd" d="M12 7.125C13.4505 7.125 14.625 8.29948 14.625 9.75C14.625 11.2005 13.4505 12.375 12 12.375C10.5495 12.375 9.375 11.2005 9.375 9.75C9.375 8.29948 10.5495 7.125 12 7.125ZM12 10.8984C12.6198 10.8984 13.125 10.3932 13.125 9.77344C13.125 9.15104 12.6198 8.64844 12 8.64844C11.3802 8.64844 10.875 9.15104 10.875 9.77344C10.875 10.3932 11.3802 10.8984 12 10.8984Z" fill="currentColor"/>
<path fill-rule="evenodd" clip-rule="evenodd" d="M13.2734 14.5886C13.7968 14.4401 14.2916 14.2031 14.7447 13.8802C15.0155 13.6823 15.0806 13.2969 14.8931 13.0156C14.703 12.7344 14.328 12.6667 14.0572 12.862C13.453 13.2995 12.7421 13.5287 11.9999 13.5287C11.2603 13.5287 10.552 13.2995 9.94784 12.8646C9.6744 12.6693 9.302 12.7396 9.1119 13.0209C8.92179 13.3021 8.9895 13.6875 9.26294 13.8828C9.71086 14.2058 10.2056 14.4427 10.7265 14.5886L9.177 16.1927C8.94263 16.4349 8.94263 16.8255 9.177 17.0677C9.29159 17.1901 9.44523 17.25 9.59888 17.25C9.75252 17.25 9.90617 17.1901 10.0234 17.0677L11.9999 15.0261L13.9765 17.0677C14.0937 17.1901 14.2473 17.25 14.401 17.25C14.5546 17.25 14.7056 17.1901 14.8228 17.0677C15.0572 16.8255 15.0572 16.4323 14.8228 16.1901L13.2734 14.5886Z" fill="currentColor"/>
</svg>
