<svg width="24" height="24" viewBox="0 0 24 24" fill="none" xmlns="http://www.w3.org/2000/svg">
<path fill-rule="evenodd" clip-rule="evenodd" d="M16.2995 19.5H7.70052C6.84635 19.5 6.04167 19.1667 5.4375 18.5625C4.83333 17.9583 4.5 17.1536 4.5 16.2969V7.70313C4.5 6.84635 4.83333 6.04167 5.4375 5.4375C6.04167 4.83333 6.84635 4.5 7.70052 4.5H16.2995C17.1536 4.5 17.9583 4.83333 18.5625 5.4375C19.1667 6.04167 19.5 6.84635 19.5 7.70313V16.2995C19.5 17.1536 19.1667 17.9583 18.5625 18.5625C17.9583 19.1667 17.1536 19.5 16.2995 19.5ZM7.70052 6C7.2474 6 6.82031 6.17708 6.4974 6.5C6.17708 6.82031 6 7.2474 6 7.70313V16.2995C6 16.7526 6.17708 17.1797 6.4974 17.5026C6.82031 17.8229 7.2474 18 7.70052 18H16.2995C16.7526 18 17.1797 17.8229 17.5026 17.5026C17.8229 17.1797 18 16.7526 18 16.2969V7.70313C18 7.2474 17.8229 6.82031 17.5026 6.5C17.1797 6.17708 16.7526 6 16.2995 6H7.70052Z" fill="currentColor"/>
<path fill-rule="evenodd" clip-rule="evenodd" d="M16.3074 9.375H14.0574C13.849 9.375 13.6824 9.20573 13.6824 9C13.6824 8.79167 13.849 8.625 14.0574 8.625H16.3074C16.5157 8.625 16.6824 8.79167 16.6824 9C16.6824 9.20573 16.5157 9.375 16.3074 9.375Z" fill="currentColor"/>
<path fill-rule="evenodd" clip-rule="evenodd" d="M10.797 11.7552C11.1537 11.8776 11.8074 12.224 11.8074 13.2838C11.8074 14.9297 10.0235 15 9.78654 15H6.93237V9H9.66675C9.96623 9 11.4324 8.95052 11.4324 10.5C11.4324 11.3229 11.0339 11.6328 10.797 11.7552ZM8.43237 10.125V11.25H9.41414C9.54956 11.25 9.99487 11.1641 9.99487 10.6615C9.99487 10.1615 9.41414 10.125 9.3256 10.125H8.43237ZM9.53133 13.8672C9.62768 13.8672 10.297 13.8307 10.297 13.1484C10.297 12.4661 9.77091 12.375 9.53133 12.375H8.43237V13.8672H9.53133Z" fill="currentColor"/>
<path fill-rule="evenodd" clip-rule="evenodd" d="M16.1772 13.5H17.3725C17.1589 14.2005 16.3985 15 15.2449 15C14.4845 15 12.9324 14.5781 12.9324 12.5625C12.9324 10.3854 14.6121 10.125 15.1824 10.125C17.198 10.125 17.4792 11.8125 17.4324 13.125H14.4324C14.4324 13.125 14.6251 13.8672 15.3751 13.8672C15.7475 13.8672 16.0079 13.6849 16.1772 13.5ZM15.2162 11.099C14.7188 11.0911 14.1563 11.5312 14.1694 12H16.198C16.1667 11.7083 16.0704 11.4766 15.9115 11.3333C15.7527 11.1875 15.5626 11.1068 15.2162 11.099Z" fill="currentColor"/>
</svg>
