<svg width="24" height="24" viewBox="0 0 24 24" fill="none" xmlns="http://www.w3.org/2000/svg">
<path d="M8.91406 4.5C4.82031 4.5 4.5 4.82031 4.5 8.91406V15.0859C4.5 19.1797 4.82031 19.5 8.91406 19.5H15.0859C19.1797 19.5 19.5 19.1797 19.5 15.0859V8.91406C19.5 4.82031 19.1797 4.5 15.0859 4.5H8.91406ZM7.9375 6H16.0625C17.8594 6 18 6.14063 18 7.9375V16.0625C18 17.8594 17.8594 18 16.0625 18H7.9375C6.14063 18 6 17.8594 6 16.0625V7.9375C6 6.14063 6.14063 6 7.9375 6ZM14.2266 8.55208C13.1615 8.55208 12.2969 9.41667 12.2969 10.4818C12.2969 10.6328 12.3464 10.9193 12.3464 10.9193C12.3464 10.9193 10.0208 10.9349 8.3724 8.90625C8.3724 8.90625 8.11979 9.24479 8.11198 9.875C8.09896 10.9453 8.96875 11.4792 8.96875 11.4792C8.96875 11.4792 8.53125 11.4922 8.09635 11.2396C8.13542 12.8958 9.64323 13.1536 9.64323 13.1536C9.64323 13.1536 9.15625 13.2474 8.77344 13.1875C9.01823 13.9531 9.72917 14.5104 10.5729 14.526C9.91406 15.0443 8.94271 15.4635 7.71875 15.3255C8.16667 15.8099 9.58594 16.1901 10.6745 16.1901C14.2214 16.1901 16.1615 13.2526 16.1615 10.7057C16.1615 10.6224 16.1589 10.5391 16.1536 10.4557C16.5312 10.1823 16.8594 9.84375 17.1172 9.45573C16.5911 9.69531 16.0104 9.76042 16.0104 9.76042C16.0104 9.76042 16.6901 9.36719 16.8568 8.69271C16.4844 8.91406 16.0729 9.07552 15.6328 9.16146C15.2812 8.78646 14.7812 8.55208 14.2266 8.55208Z" fill="currentColor"/>
</svg>
