<?xml version="1.0"?>
<svg width="12px" height="12px" viewBox="0 0 12 12"
 enable-background="new 0 0 12 12" version="1.1"
 xml:space="preserve" xmlns="http://www.w3.org/2000/svg"><path
  d="M3.7796631,8.75C4.1953125,10.6790771,5.0326538,12,6,12s1.8046875-1.3209229,2.2203369-3.25H3.7796631z" fill="#fff"/><path d="M9.2371216,3.25h2.0916748c-0.664978-1.2857056-1.779541-2.2975464-3.1375122-2.8312378 C8.6710815,1.1671753,9.0209351,2.1549683,9.2371216,3.25z" fill="#fff"/><path d="M8.3912964,4.25H3.6087036C3.5383911,4.803833,3.5,5.3909912,3.5,6s0.0383911,1.196167,0.1087036,1.75 h4.7825928C8.4616089,7.196167,8.5,6.6090088,8.5,6S8.4616089,4.803833,8.3912964,4.25z" fill="#fff"/><path d="M9.5,6c0,0.5882568-0.0372925,1.1765137-0.1055298,1.75h2.3445435C11.9077148,7.196167,12,6.6090088,12,6 s-0.0922852-1.196167-0.2609863-1.75H9.3944702C9.4627075,4.8234863,9.5,5.4117432,9.5,6z" fill="#fff"/><path d="M8.2203369,3.25C7.8046875,1.3209229,6.9673462,0,6,0S4.1953125,1.3209229,3.7796631,3.25H8.2203369z" fill="#fff"/><path d="M2.7628784,8.75H0.6712036c0.664978,1.2857056,1.779541,2.2975464,3.1375122,2.8312378 C3.3289185,10.8328247,2.9790649,9.8450317,2.7628784,8.75z" fill="#fff"/><path d="M2.5,6c0-0.5882568,0.0372925-1.1765137,0.1055298-1.75H0.2609863C0.0922852,4.803833,0,5.3909912,0,6 s0.0922852,1.196167,0.2609863,1.75h2.3445435C2.5372925,7.1765137,2.5,6.5882568,2.5,6z" fill="#fff"/><path d="M9.2371216,8.75c-0.2161865,1.0950317-0.56604,2.0828247-1.0458374,2.8312378 C9.5492554,11.0475464,10.6638184,10.0357056,11.3287964,8.75H9.2371216z" fill="#fff"/><path d="M2.7628784,3.25c0.2161865-1.0950317,0.56604-2.0828247,1.0458374-2.8312378 C2.4507446,0.9524536,1.3361816,1.9642944,0.6712036,3.25H2.7628784z" fill="#fff"/></svg>
