<svg width="24" height="24" viewBox="0 0 24 24" fill="none" xmlns="http://www.w3.org/2000/svg">
<path fill-rule="evenodd" clip-rule="evenodd" d="M14.0625 10.125C15.4089 10.125 16.5 11.2161 16.5 12.5625C16.5 12.5625 16.5 14.3594 16.5 15.2552C16.5 15.5286 16.2786 15.75 16.0052 15.75C15.8411 15.75 15.6589 15.75 15.4948 15.75C15.2214 15.75 15 15.5286 15 15.2552V12.9375C15 12.2161 14.4089 11.625 13.6875 11.625C12.9661 11.625 12.375 12.2161 12.375 12.9375C12.375 12.9375 12.375 14.4479 12.375 15.2552C12.375 15.5286 12.1536 15.75 11.8802 15.75C11.7161 15.75 11.5339 15.75 11.3698 15.75C11.0964 15.75 10.875 15.5286 10.875 15.2552C10.875 14.1875 10.875 11.6875 10.875 10.6198C10.875 10.3464 11.0964 10.125 11.3698 10.125C11.5339 10.125 11.7161 10.125 11.8802 10.125C12.1536 10.125 12.375 10.3464 12.375 10.6198V10.8073C12.8125 10.3854 13.4062 10.125 14.0625 10.125Z" fill="currentColor"/>
<path fill-rule="evenodd" clip-rule="evenodd" d="M9.375 10.6276C9.375 11.6953 9.375 14.1797 9.375 15.2474C9.375 15.526 9.15104 15.75 8.8724 15.75C8.71354 15.75 8.53646 15.75 8.3776 15.75C8.09896 15.75 7.875 15.526 7.875 15.2474C7.875 14.1797 7.875 11.6953 7.875 10.6276C7.875 10.349 8.09896 10.125 8.3776 10.125C8.53646 10.125 8.71354 10.125 8.8724 10.125C9.15104 10.125 9.375 10.349 9.375 10.6276Z" fill="currentColor"/>
<path fill-rule="evenodd" clip-rule="evenodd" d="M8.625 7.5C9.03906 7.5 9.375 7.83594 9.375 8.25C9.375 8.66406 9.03906 9 8.625 9C8.21094 9 7.875 8.66406 7.875 8.25C7.875 7.83594 8.21094 7.5 8.625 7.5Z" fill="currentColor"/>
<path d="M8.91406 4.5C4.82031 4.5 4.5 4.82031 4.5 8.91406V15.0859C4.5 19.1797 4.82031 19.5 8.91406 19.5H15.0859C19.1797 19.5 19.5 19.1797 19.5 15.0859V8.91406C19.5 4.82031 19.1797 4.5 15.0859 4.5H8.91406ZM7.9375 6H16.0625C17.8594 6 18 6.14063 18 7.9375V16.0625C18 17.8594 17.8594 18 16.0625 18H7.9375C6.14063 18 6 17.8594 6 16.0625V7.9375C6 6.14063 6.14063 6 7.9375 6Z" fill="currentColor"/>
</svg>
