<svg width="24" height="24" viewBox="0 0 24 24" fill="none" xmlns="http://www.w3.org/2000/svg">
<path
  d="M8.91406 4.5C4.82031 4.5 4.5 4.82031 4.5 8.91406V15.0859C4.5 19.1797 4.82031 19.5 8.91406 19.5H15.0859C19.1797 19.5 19.5 19.1797 19.5 15.0859V8.91406C19.5 4.82031 19.1797 4.5 15.0859 4.5H8.91406ZM7.9375 6H16.0625C17.8594 6 18 6.14063 18 7.9375V16.0625C18 17.8594 17.8594 18 16.0625 18H14.4818V13.5156H16.2578L16.5365 11.5182H14.4818C14.4818 11.5182 14.4792 10.349 14.4818 10.0573C14.487 9.48698 14.9635 9.20052 15.3724 9.20313C15.7839 9.20833 16.6302 9.20573 16.6302 9.20573V7.36458C16.6302 7.36458 15.8958 7.27083 15.1276 7.26302C14.4792 7.25521 13.7656 7.42969 13.1875 8.01302C12.6016 8.60417 12.5078 9.48437 12.4974 10.5599C12.4948 10.8698 12.4974 11.5182 12.4974 11.5182H10.7604V13.513H12.4974V18H7.9375C6.14063 18 6 17.8594 6 16.0625V7.9375C6 6.14063 6.14063 6 7.9375 6Z" fill="currentColor"/>
</svg>
