<svg viewBox="0 0 16 17" fill="none" xmlns="http://www.w3.org/2000/svg">
<path
  d="M7.99995 8.625C5.93224 8.625 4.24995 6.85938 4.24995 4.6875C4.24995 2.51563 5.93224 0.75 7.99995 0.75C10.0677 0.75 11.75 2.51563 11.75 4.6875C11.75 6.85938 10.0677 8.625 7.99995 8.625ZM15.0182 14.2005C15.4296 15.3073 14.5963 16.5 13.4036 16.5H11.75H10.5H9.5C8.99995 16.5 8.24474 16.5 7.89839 16.5C7.52599 16.5 6.69797 16.5 6 16.5H5H4H2.39578C1.20828 16.5 0.364535 15.3151 0.778597 14.2005C1.75516 11.5703 4.61453 9.80208 7.89839 9.80208C11.1822 9.80469 14.0442 11.5703 15.0182 14.2005Z" fill="currentColor"/>
</svg>
