<svg width="24" height="24" viewBox="0 0 24 24" fill="none" xmlns="http://www.w3.org/2000/svg">
<path d="M10.5312 17.0625C10.3411 17.0625 8.82025 17.0339 8.31504 15.6042C7.80202 14.1458 8.01035 12.7865 9.14056 12.0026C9.95306 11.4427 10.6822 11.5807 10.6952 11.5807C10.651 10.9167 10.8255 9.32292 10.8255 9.32292C11.0937 7.88542 11.3046 6.75 12.3749 6.75C13.6952 6.75 13.9947 8.94271 14.0598 9.88542C14.1614 11.3229 14.2109 12.5182 13.8411 13.7214C13.7057 14.1641 13.5156 14.5859 13.2708 14.9896C13.3932 15.1198 13.4973 15.1875 13.5702 15.1927C13.8202 15.0443 14.276 14.1667 14.5208 13.3516C14.6406 12.9557 15.0624 12.7318 15.4557 12.8516C15.8515 12.9688 16.0755 13.388 15.9583 13.7839C15.7135 14.6042 15.0077 16.526 13.7812 16.6823C13.2239 16.75 12.7421 16.5443 12.3359 16.1745C12.065 16.4479 11.427 17.0625 10.5312 17.0625ZM10.013 13.224C9.26816 13.7057 9.43744 14.5521 9.69525 15.013C9.84369 15.2786 10.3072 15.5781 10.8098 15.4349C11.0755 15.3568 11.289 15.1927 11.4635 14.9141C11.2942 14.5547 10.9687 13.4401 10.9192 13.2031C10.8515 13.1224 10.4322 12.9505 10.013 13.224ZM12.4192 8.96875C12.3072 9.28125 11.9765 11.5234 12.4452 13.1536C12.8229 12.026 12.5937 9.4401 12.4192 8.96875Z" fill="currentColor"/>
<path d="M16.2995 19.5H7.70052C6.84635 19.5 6.04167 19.1667 5.4375 18.5625C4.83333 17.9583 4.5 17.1536 4.5 16.2969V7.70313C4.5 6.84635 4.83333 6.04167 5.4375 5.4375C6.04167 4.83333 6.84635 4.5 7.70052 4.5H16.2995C17.1536 4.5 17.9583 4.83333 18.5625 5.4375C19.1667 6.04167 19.5 6.84635 19.5 7.70313V16.2995C19.5 17.1536 19.1667 17.9583 18.5625 18.5625C17.9583 19.1667 17.1536 19.5 16.2995 19.5ZM7.70052 6C7.2474 6 6.82031 6.17708 6.4974 6.5C6.17708 6.82031 6 7.2474 6 7.70313V16.2995C6 16.7526 6.17708 17.1797 6.4974 17.5026C6.82031 17.8229 7.2474 18 7.70052 18H16.2995C16.7526 18 17.1797 17.8229 17.5026 17.5026C17.8229 17.1797 18 16.7526 18 16.2969V7.70313C18 7.2474 17.8229 6.82031 17.5026 6.5C17.1797 6.17708 16.7526 6 16.2995 6H7.70052Z" fill="currentColor"/>
</svg>
