<svg width="24" height="24" viewBox="0 0 24 24" fill="none" xmlns="http://www.w3.org/2000/svg">
<path
  d="M11.9323 4.5C5.03906 4.5 4.5 5.03906 4.5 11.9323V12.0677C4.5 18.9609 5.03906 19.5 11.9323 19.5H12.0677C18.9609 19.5 19.5 18.9609 19.5 12.0677V12C19.5 5.04427 18.9557 4.5 12 4.5H11.9323ZM10.5 6H13.5C17.6745 6 18 6.32552 18 10.5V13.5C18 17.6745 17.6745 18 13.5 18H10.5C6.32552 18 6 17.6745 6 13.5V10.5C6 6.32552 6.32552 6 10.5 6ZM15.7474 7.5C15.3333 7.5 15 7.83854 15 8.2526C15 8.66667 15.3385 9 15.7526 9C16.1667 9 16.5 8.66146 16.5 8.2474C16.5 7.83333 16.1615 7.5 15.7474 7.5ZM11.9922 8.25C9.91927 8.25521 8.24479 9.9375 8.25 12.0078C8.25521 14.0807 9.9375 15.7552 12.0078 15.75C14.0807 15.7448 15.7552 14.0625 15.75 11.9922C15.7448 9.91927 14.0625 8.24479 11.9922 8.25ZM11.9948 9.75C13.237 9.7474 14.2474 10.7526 14.25 11.9948C14.2526 13.237 13.2474 14.2474 12.0052 14.25C10.763 14.2526 9.7526 13.2474 9.75 12.0052C9.7474 10.763 10.7526 9.7526 11.9948 9.75Z" fill="currentColor"/>
</svg>
