<svg width="24" height="24" viewBox="0 0 24 24" fill="none" xmlns="http://www.w3.org/2000/svg">
<g id="Icon">
<path d="M2.70423 20.2826H18.9296C19.6763 20.2826 20.2817 19.6773 20.2817 18.9305V15.9658C20.2817 15.6139 20.1445 15.2759 19.8992 15.0235L16.5187 11.5449C15.9878 10.9986 15.1106 10.9985 14.5796 11.5447L13.0829 13.084C12.5107 13.6726 11.5502 13.6196 11.0462 12.9716L8.31344 9.45821C7.77885 8.77092 6.74349 8.76071 6.19546 9.43733L1.65353 15.0449C1.45852 15.2857 1.35211 15.5861 1.35211 15.896V18.9305C1.35211 19.6773 1.95747 20.2826 2.70423 20.2826Z" fill="#9FA1A7"/>
<path fill-rule="evenodd" clip-rule="evenodd" d="M17.5775 2.70423H2.70423V17.5775H17.5775V2.70423ZM0 0V20.2817H20.2817V0H0Z" fill="#9FA1A7"/>
<path fill-rule="evenodd" clip-rule="evenodd" d="M24 5.40845H21.9718V21.9718H5.40845V24H24V5.40845Z" fill="#9FA1A7"/>
<path d="M14.8732 6.08451C14.8732 7.20463 13.9652 8.11268 12.8451 8.11268C11.7249 8.11268 10.8169 7.20463 10.8169 6.08451C10.8169 4.96438 11.7249 4.05634 12.8451 4.05634C13.9652 4.05634 14.8732 4.96438 14.8732 6.08451Z" fill="#9FA1A7"/>
</g>
</svg>
