<svg width="24" height="24" viewBox="0 0 24 24" fill="none" xmlns="http://www.w3.org/2000/svg">
<path
  d="M15.4476 3.67969C14.2002 3.67969 12.9502 4.15625 11.9997 5.10677L9.87988 7.22656C7.97624 9.1276 7.97624 12.2188 9.87988 14.1198C10.4554 14.6953 11.1325 15.0938 11.8617 15.3203L12.2653 14.9167C12.5283 14.6536 12.7132 14.3411 12.8148 14.0078C12.1273 13.9036 11.4658 13.5885 10.9398 13.0599C9.62467 11.7448 9.62467 9.60156 10.9398 8.28646L13.0596 6.16667C14.3747 4.85156 16.5179 4.85156 17.833 6.16667C19.1481 7.48177 19.1481 9.625 17.833 10.9401L16.5622 12.2083C16.695 12.8984 16.7028 13.6068 16.5908 14.2943C16.6507 14.237 16.7132 14.1797 16.7731 14.1198L18.8929 12C20.7939 10.099 20.7939 7.00781 18.8929 5.10677C17.9424 4.15625 16.695 3.67969 15.4476 3.67969ZM12.1377 8.67969L11.734 9.08333C11.4736 9.34635 11.2861 9.65885 11.1872 9.99219C11.8721 10.0964 12.5335 10.4115 13.0596 10.9401C14.3747 12.2552 14.3747 14.3958 13.0596 15.7109L10.9398 17.8333C9.62467 19.1484 7.48145 19.1484 6.16634 17.8333C4.85124 16.5182 4.85124 14.375 6.16634 13.0599L7.43717 11.7917C7.30436 11.1016 7.29655 10.3932 7.40853 9.70573C7.34863 9.76302 7.28613 9.82031 7.22624 9.88021L5.10645 12C3.2054 13.901 3.2054 16.9922 5.10645 18.8932C7.00749 20.7943 10.0986 20.7943 11.9997 18.8932L14.1195 16.7734C16.0231 14.8724 16.0231 11.7813 14.1195 9.88021C13.5439 9.30469 12.8669 8.90625 12.1377 8.67969Z" fill="currentColor"/>
</svg>
