<svg width="24" height="24" viewBox="0 0 24 24" xmlns="http://www.w3.org/2000/svg">
<path d="M8.91406 4.5C4.82031 4.5 4.5 4.82031 4.5 8.91406V15.0859C4.5 19.1797 4.82031 19.5 8.91406 19.5H15.0859C19.1797 19.5 19.5 19.1797 19.5 15.0859V8.91406C19.5 4.82031 19.1797 4.5 15.0859 4.5H8.91406ZM7.9375 6H16.0625C17.8594 6 18 6.14063 18 7.9375V16.0625C18 17.8594 17.8594 18 16.0625 18H7.9375C6.14063 18 6 17.8594 6 16.0625V7.9375C6 6.14063 6.14063 6 7.9375 6Z" fill="currentColor"/>
<path
  d="M6.67663 11.836L8.98083 12.6262L9.8727 15.2616C9.92977 15.4304 10.1544 15.4928 10.3035 15.3808L11.5879 14.4187C11.7225 14.3179 11.9143 14.3129 12.055 14.4067L14.3716 15.9521C14.5311 16.0586 14.7571 15.9783 14.7971 15.8012L16.4941 8.30075C16.5378 8.1073 16.3309 7.94593 16.1304 8.01717L6.67393 11.3691C6.44056 11.4518 6.4426 11.7554 6.67663 11.836ZM9.72897 12.2055L14.2322 9.65707C14.3132 9.61141 14.3964 9.71196 14.3269 9.77119L10.6104 12.9455C10.4798 13.0572 10.3955 13.2067 10.3717 13.369L10.2451 14.2311C10.2283 14.3462 10.0523 14.3576 10.0178 14.2462L9.53087 12.6742C9.4751 12.4949 9.55637 12.3034 9.72897 12.2055Z" fill="currentColor"/>
</svg>
