<svg width="24" height="24" viewBox="0 0 24 24" fill="none" xmlns="http://www.w3.org/2000/svg">
<path d="M8.91406 4.5C4.82031 4.5 4.5 4.82031 4.5 8.91406V15.0859C4.5 19.1797 4.82031 19.5 8.91406 19.5H15.0859C19.1797 19.5 19.5 19.1797 19.5 15.0859V8.91406C19.5 4.82031 19.1797 4.5 15.0859 4.5H8.91406ZM7.9375 6H16.0625C17.8594 6 18 6.14063 18 7.9375V16.0625C18 17.8594 17.8594 18 16.0625 18H7.9375C6.14063 18 6 17.8594 6 16.0625V7.9375C6 6.14063 6.14063 6 7.9375 6ZM9.85677 9.22135C8.32292 9.22135 7.07813 10.4661 7.07813 12C7.07813 13.5339 8.32292 14.7786 9.85677 14.7786C11.3906 14.7786 12.6354 13.5339 12.6354 12C12.6354 10.4661 11.3906 9.22135 9.85677 9.22135ZM14.2891 9.35417C13.5286 9.35417 12.9141 10.5391 12.9141 12C12.9141 13.4609 13.5286 14.6458 14.2891 14.6458C15.0495 14.6458 15.6641 13.4609 15.6641 12C15.6641 10.5391 15.0495 9.35417 14.2891 9.35417ZM16.4245 9.63802C16.1615 9.63802 15.9479 10.6953 15.9479 12C15.9479 13.3047 16.1615 14.362 16.4245 14.362C16.6901 14.362 16.9036 13.3047 16.9036 12C16.9036 10.6953 16.6901 9.63802 16.4245 9.63802Z" fill="currentColor"/>
</svg>
