<svg width="24" height="24" viewBox="0 0 24 24" fill="none" xmlns="http://www.w3.org/2000/svg">
<path d="M12 3.75C7.44271 3.75 3.75 7.44271 3.75 12C3.75 16.5573 7.44271 20.25 12 20.25C16.5573 20.25 20.25 16.5573 20.25 12C20.25 7.44271 16.5573 3.75 12 3.75ZM12 5.25C15.7292 5.25 18.75 8.27083 18.75 12C18.75 15.7292 15.7292 18.75 12 18.75C11.3828 18.75 10.7891 18.6615 10.2214 18.5052C10.3984 18.138 10.5755 17.7344 10.6536 17.4323C10.75 17.0651 11.1432 15.5703 11.1432 15.5703C11.3984 16.0573 12.1432 16.4688 12.9375 16.4688C15.3021 16.4688 17.0052 14.2969 17.0052 11.5964C17.0052 9.00781 14.8906 7.07031 12.1745 7.07031C8.79167 7.07031 6.9974 9.33854 6.9974 11.8099C6.9974 12.9609 7.60938 14.3906 8.58594 14.8464C8.73438 14.9167 8.8151 14.8854 8.84896 14.7422C8.875 14.6328 9.00781 14.1016 9.06771 13.8542C9.08594 13.7734 9.07552 13.7057 9.01302 13.6302C8.6901 13.237 8.42969 12.5156 8.42969 11.8411C8.42969 10.112 9.73698 8.4401 11.9661 8.4401C13.8906 8.4401 15.2396 9.7526 15.2396 11.6276C15.2396 13.7474 14.1693 15.2161 12.776 15.2161C12.0078 15.2161 11.4323 14.5807 11.6172 13.7995C11.8359 12.8698 12.2656 11.8646 12.2656 11.1927C12.2656 10.5911 11.9427 10.0885 11.2734 10.0885C10.487 10.0885 9.85677 10.901 9.85677 11.9922C9.85677 12.6849 10.0911 13.1536 10.0911 13.1536C10.0911 13.1536 9.3151 16.4375 9.17187 17.0495C9.10937 17.3203 9.09115 17.7083 9.08854 18.0833C6.82031 16.9948 5.25 14.6849 5.25 12C5.25 8.27083 8.27083 5.25 12 5.25Z" fill="currentColor"/>
</svg>
