<svg width="24" height="24" viewBox="0 0 24 24" fill="none" xmlns="http://www.w3.org/2000/svg">
<path d="M11.9323 4.5C5.03906 4.5 4.5 5.03906 4.5 11.9323V12.0677C4.5 18.9609 5.03906 19.5 11.9323 19.5H12.0677C18.9609 19.5 19.5 18.9609 19.5 12.0677V12C19.5 5.04427 18.9557 4.5 12 4.5H11.9323ZM10.5 6H13.5C17.6745 6 18 6.32552 18 10.5V13.5C18 17.6745 17.6745 18 13.5 18H10.5C6.32552 18 6 17.6745 6 13.5V10.5C6 6.32552 6.32552 6 10.5 6Z" fill="currentColor"/>
<path d="M17 12.0536V11.9464C14.7857 11.875 13.775 11.8214 12.9643 11.0357C12.1786 10.225 12.1214 9.21429 12.0536 7H11.9464C11.875 9.21429 11.8214 10.225 11.0357 11.0357C10.225 11.8214 9.21429 11.8786 7 11.9464V12.0536C9.21429 12.125 10.225 12.1786 11.0357 12.9643C11.8214 13.775 11.8786 14.7857 11.9464 17H12.0536C12.125 14.7857 12.1786 13.775 12.9643 12.9643C13.775 12.1786 14.7857 12.1214 17 12.0536Z" fill="currentColor"/>
</svg>
