<svg width="24" height="24" viewBox="0 0 24 24" fill="none" xmlns="http://www.w3.org/2000/svg">
<path d="M8.91406 4.5C4.82031 4.5 4.5 4.82031 4.5 8.91406V15.0859C4.5 19.1797 4.82031 19.5 8.91406 19.5H15.0859C19.1797 19.5 19.5 19.1797 19.5 15.0859V8.91406C19.5 4.82031 19.1797 4.5 15.0859 4.5H8.91406ZM7.9375 6H16.0625C17.8594 6 18 6.14063 18 7.9375V16.0625C18 17.8594 17.8594 18 16.0625 18H7.9375C6.14063 18 6 17.8594 6 16.0625V7.9375C6 6.14063 6.14063 6 7.9375 6ZM11.5807 9.07813C10.0208 9.07813 9.95052 9.44271 10.1354 9.53125C10.3646 9.64323 10.6797 9.77604 10.6797 10.4297C10.6797 11.3854 10.6849 11.9505 10.4089 11.9505C10.1354 11.9505 9.98958 11.8203 9.39844 10.7448C8.70313 9.47917 8.70833 9.33333 8.21615 9.33333H6.9349C6.67969 9.33333 6.60677 9.54167 6.66927 9.69271C6.75 9.88802 7.90365 12.4974 9.11979 13.7266C10.3359 14.9583 11.5755 14.9219 11.7578 14.9219H12.0964C12.4792 14.9219 12.6146 14.7031 12.6458 14.5286C12.7578 13.9323 12.7917 13.5833 13.026 13.5833C13.25 13.5833 13.388 13.7214 14.3906 14.7318C14.5156 14.8568 14.6224 14.9219 14.9505 14.9219H16.4453C16.7161 14.9219 17.1615 14.8776 16.8229 14.3099C16.7943 14.263 16.625 13.8932 15.8021 13.1276C15.1016 12.4766 15.138 12.4036 16.0625 11.0495C16.8021 9.96354 16.9115 9.76563 16.8568 9.58594C16.8047 9.41927 16.7422 9.35417 16.3568 9.35417C16.026 9.35417 15.1927 9.33333 14.9245 9.33333C14.5182 9.33333 14.4609 9.63021 13.888 10.7917C13.4271 11.7292 13.1901 12.0104 12.987 12.0104C12.7578 12.0104 12.6354 11.7708 12.6354 10.8776C12.6354 9.60938 12.6979 9.07813 11.5807 9.07813Z" fill="currentColor"/>
</svg>
