<svg width="24" height="24" viewBox="0 0 24 24" fill="none" xmlns="http://www.w3.org/2000/svg">
<path d="M12.573 7.04428C12.4766 7.06251 12.3933 7.13803 12.3699 7.2422V7.2474L11.7605 10.1094C10.6121 10.1276 9.49487 10.4792 8.54175 11.125C8.05737 10.6693 7.29435 10.6927 6.84123 11.1771C6.3855 11.6615 6.40893 12.4245 6.89331 12.8802C6.98706 12.9688 7.09643 13.0443 7.21623 13.0964C7.20841 13.2188 7.20841 13.3385 7.21623 13.4609C7.21623 15.3073 9.36987 16.8125 12.0261 16.8125C14.6824 16.8125 16.836 15.3099 16.836 13.4609C16.8438 13.3385 16.8438 13.2188 16.836 13.0964C17.2501 12.8906 17.5105 12.4635 17.5027 12C17.4766 11.3359 16.9194 10.8177 16.2527 10.8386C15.9584 10.849 15.6772 10.9714 15.4636 11.1745C14.5235 10.5339 13.422 10.1823 12.2865 10.1589L12.823 7.58595L14.5886 7.95574C14.6381 8.40886 15.0444 8.73699 15.4975 8.68751C15.9506 8.63803 16.2787 8.23178 16.2292 7.77865C16.1798 7.32553 15.7735 6.9974 15.3204 7.04688C15.06 7.07292 14.8256 7.22397 14.698 7.45053L12.6746 7.04688C12.6407 7.03907 12.6069 7.03907 12.573 7.04428ZM10.0782 12C10.5339 12 10.9063 12.3698 10.9063 12.8255C10.9063 13.2813 10.5339 13.6537 10.0782 13.6537C9.62248 13.6484 9.25268 13.2813 9.25268 12.8255C9.25268 12.3698 9.62248 12 10.0782 12ZM13.8959 12.0287C14.3516 12.0287 14.724 12.3984 14.724 12.8542C14.7423 13.3099 14.3855 13.6953 13.9324 13.7136H13.8907L13.8959 13.6823C13.4428 13.6823 13.0704 13.3099 13.0704 12.8542C13.0704 12.3984 13.4428 12.0287 13.8959 12.0287ZM10.1407 14.7292C10.1902 14.7292 10.2397 14.7474 10.2813 14.7813C10.7787 15.1432 11.3829 15.3281 11.9975 15.2995C12.6121 15.3333 13.2214 15.1563 13.724 14.7969C13.8126 14.7083 13.961 14.7109 14.0496 14.8021C14.1355 14.8906 14.1355 15.0391 14.0444 15.1276V15.0938C13.4584 15.5365 12.7397 15.7604 12.0079 15.7292C11.2735 15.7604 10.5548 15.5365 9.96883 15.0938C9.89071 15 9.90373 14.8594 9.99748 14.7813C10.0391 14.7474 10.0886 14.7292 10.1407 14.7292Z" fill="currentColor"/>
<path d="M8.91406 4.5C4.82031 4.5 4.5 4.82031 4.5 8.91406V15.0859C4.5 19.1797 4.82031 19.5 8.91406 19.5H15.0859C19.1797 19.5 19.5 19.1797 19.5 15.0859V8.91406C19.5 4.82031 19.1797 4.5 15.0859 4.5H8.91406ZM7.9375 6H16.0625C17.8594 6 18 6.14063 18 7.9375V16.0625C18 17.8594 17.8594 18 16.0625 18H7.9375C6.14063 18 6 17.8594 6 16.0625V7.9375C6 6.14063 6.14063 6 7.9375 6Z" fill="currentColor"/>
</svg>
