<svg width="24" height="24" viewBox="0 0 24 24" fill="none" xmlns="http://www.w3.org/2000/svg">
<path d="M12 3.75C7.44271 3.75 3.75 7.44271 3.75 12C3.75 16.5573 7.44271 20.25 12 20.25C16.5573 20.25 20.25 16.5573 20.25 12C20.25 7.44271 16.5573 3.75 12 3.75ZM12 5.25C15.7292 5.25 18.75 8.27083 18.75 12C18.75 15.0885 16.6719 17.6875 13.8385 18.4896C13.8047 18.4193 13.7812 18.3385 13.7839 18.25C13.7943 17.7969 13.7839 16.7396 13.7839 16.3516C13.7839 15.6849 13.362 15.2109 13.362 15.2109C13.362 15.2109 16.6693 15.2474 16.6693 11.7161C16.6693 10.3542 15.9583 9.64583 15.9583 9.64583C15.9583 9.64583 16.3307 8.1901 15.8281 7.57292C15.263 7.51302 14.2526 8.11198 13.8203 8.39323C13.8203 8.39323 13.138 8.11198 12 8.11198C10.862 8.11198 10.1797 8.39323 10.1797 8.39323C9.7474 8.11198 8.73698 7.51302 8.17187 7.57292C7.66927 8.1901 8.04167 9.64583 8.04167 9.64583C8.04167 9.64583 7.33073 10.3542 7.33073 11.7161C7.33073 15.2474 10.638 15.2109 10.638 15.2109C10.638 15.2109 10.263 15.6406 10.224 16.2552C10.0026 16.3333 9.70313 16.4245 9.41406 16.4245C8.72135 16.4245 8.19271 15.75 8 15.4375C7.8099 15.1302 7.41927 14.8724 7.05469 14.8724C6.8151 14.8724 6.69792 14.9922 6.69792 15.1302C6.69792 15.2682 7.03385 15.362 7.25521 15.6172C7.72396 16.1536 7.71615 17.3594 9.38281 17.3594C9.58073 17.3594 9.9349 17.3151 10.2161 17.276C10.2161 17.6536 10.2109 18.0182 10.2161 18.25C10.2188 18.3385 10.1953 18.4193 10.1615 18.4896C7.32813 17.6875 5.25 15.0885 5.25 12C5.25 8.27083 8.27083 5.25 12 5.25Z" fill="currentColor"/>
</svg>
