<svg width="20" height="16" viewBox="0 0 20 16" fill="none" xmlns="http://www.w3.org/2000/svg">
<path fill-rule="evenodd" clip-rule="evenodd" d="M0.585786 0.585786C0 1.17157 0 2.11438 0 4V12C0 13.8856 0 14.8284 0.585786 15.4142C1.17157 16 2.11438 16 4 16H16C17.8856 16 18.8284 16 19.4142 15.4142C20 14.8284 20 13.8856 20 12V4C20 2.11438 20 1.17157 19.4142 0.585786C18.8284 0 17.8856 0 16 0H4C2.11438 0 1.17157 0 0.585786 0.585786ZM16 1.5H4C3.01479 1.5 2.42677 1.50319 2.00533 1.55985C1.81221 1.58581 1.71549 1.6164 1.67193 1.63432C1.66184 1.63847 1.65521 1.6417 1.65134 1.64372C1.64888 1.64501 1.6473 1.64593 1.64644 1.64644C1.64593 1.6473 1.64501 1.64888 1.64372 1.65134C1.6417 1.65521 1.63847 1.66184 1.63432 1.67193C1.6164 1.71549 1.58581 1.81221 1.55985 2.00533C1.50319 2.42677 1.5 3.01479 1.5 4V12C1.5 12.9852 1.50319 13.5732 1.55985 13.9947C1.58581 14.1878 1.6164 14.2845 1.63432 14.3281C1.63847 14.3382 1.6417 14.3448 1.64372 14.3487C1.64501 14.3511 1.64593 14.3527 1.64645 14.3536C1.6473 14.3541 1.64888 14.355 1.65134 14.3563C1.65521 14.3583 1.66184 14.3615 1.67193 14.3657C1.71549 14.3836 1.81221 14.4142 2.00533 14.4402C2.42677 14.4968 3.01479 14.5 4 14.5H16C16.9852 14.5 17.5732 14.4968 17.9947 14.4402C18.1878 14.4142 18.2845 14.3836 18.3281 14.3657C18.3382 14.3615 18.3448 14.3583 18.3487 14.3563C18.3511 14.355 18.3527 14.3541 18.3536 14.3536C18.3541 14.3527 18.355 14.3511 18.3563 14.3487C18.3583 14.3448 18.3615 14.3382 18.3657 14.3281C18.3836 14.2845 18.4142 14.1878 18.4402 13.9947C18.4968 13.5732 18.5 12.9852 18.5 12V4C18.5 3.01479 18.4968 2.42677 18.4402 2.00533C18.4142 1.81221 18.3836 1.71549 18.3657 1.67193C18.3615 1.66184 18.3583 1.65521 18.3563 1.65134C18.355 1.64888 18.3541 1.6473 18.3536 1.64645C18.3536 1.64649 18.3535 1.64641 18.3536 1.64645C18.3527 1.64591 18.3509 1.64492 18.3487 1.64372C18.3448 1.6417 18.3382 1.63847 18.3281 1.63432C18.2845 1.6164 18.1878 1.58581 17.9947 1.55985C17.5732 1.50319 16.9852 1.5 16 1.5ZM1.64644 1.64644C1.64641 1.64649 1.64666 1.6461 1.64644 1.64644C1.64553 1.64736 1.64588 1.64713 1.64644 1.64644Z" fill="#141414"/>
<path fill-rule="evenodd" clip-rule="evenodd" d="M14 8L8 12V4L14 8Z" fill="currentColor"/>
</svg>
