<svg width="20" height="13" viewBox="0 0 20 13" fill="none" xmlns="http://www.w3.org/2000/svg">
<path d="M13 6C13 7.65685 11.6569 9 10 9C8.34315 9 7 7.65685 7 6C7 4.34315 8.34315 3 10 3C11.6569 3 13 4.34315 13 6Z" fill="#141414"/>
<path fill-rule="evenodd" clip-rule="evenodd" d="M17.7784 6.5C16.6611 8.44191 13.9671 11 10 11C6.03294 11 3.33893 8.44191 2.22163 6.5C3.33893 4.55809 6.03294 2 10 2C13.9671 2 16.6611 4.55809 17.7784 6.5ZM10 13C15.5228 13 19 9 20 6.5C19 4 15.5228 0 10 0C4.47715 0 1 4 0 6.5C1 9 4.47715 13 10 13Z" fill="#141414"/>
</svg>
