<svg width="21" height="12" viewBox="0 0 21 12" fill="none" xmlns="http://www.w3.org/2000/svg">
<path
  d="M18.0879 7.26681C18.7513 7.92084 19.4515 8.5362 20.0465 9.25619C20.3094 9.57614 20.5582 9.90631 20.7486 10.2776C21.0183 10.8055 20.774 11.3863 20.3053 11.4178L17.3916 11.4165C16.6402 11.4795 16.0407 11.174 15.5366 10.6552C15.1332 10.2403 14.7596 9.79869 14.3717 9.36979C14.2127 9.19448 14.0463 9.02953 13.8474 8.89915C13.4497 8.63845 13.1044 8.71827 12.8771 9.13715C12.6456 9.5632 12.5931 10.035 12.5704 10.5098C12.5392 11.2026 12.3318 11.3847 11.6426 11.4164C10.1697 11.4866 8.77191 11.2616 7.47338 10.5113C6.32855 9.84991 5.44079 8.9162 4.66808 7.85914C3.16361 5.80081 2.01149 3.53905 0.976007 1.21392C0.742928 0.690067 0.913384 0.408865 1.4858 0.398912C2.43632 0.380267 3.3867 0.381594 4.33834 0.397585C4.72466 0.403291 4.98041 0.627032 5.12958 0.995555C5.64384 2.27238 6.27309 3.48716 7.06294 4.61317C7.27329 4.91295 7.48777 5.21273 7.7932 5.42373C8.13109 5.65736 8.38835 5.57992 8.5473 5.19986C8.64817 4.95886 8.69233 4.69929 8.71507 4.44118C8.79037 3.55318 8.80029 2.66671 8.66821 1.78183C8.58713 1.22958 8.27907 0.872073 7.73333 0.767567C7.45485 0.714286 7.49631 0.609648 7.63115 0.449141C7.86535 0.172318 8.08561 0 8.5247 0H11.8176C12.336 0.103311 12.4511 0.338465 12.5221 0.865172L12.5249 4.55856C12.5192 4.76246 12.6258 5.36753 12.9895 5.50249C13.2806 5.59857 13.4725 5.36342 13.6471 5.17703C14.4355 4.3321 14.9982 3.33356 15.5009 2.29958C15.724 1.84493 15.9158 1.37277 16.1017 0.901002C16.2394 0.550926 16.4556 0.378674 16.8461 0.386305L20.0153 0.389158C20.1093 0.389158 20.2044 0.390552 20.2954 0.406277C20.8294 0.498175 20.9757 0.730144 20.8108 1.25672C20.5509 2.08288 20.0453 2.77135 19.5509 3.46301C19.0223 4.20145 18.4571 4.91461 17.933 5.65742C17.4514 6.33575 17.4897 6.67766 18.0879 7.26681Z" fill="#ffffff"/>
</svg>
