<svg width="18" height="18" viewBox="0 0 18 18" fill="none" xmlns="http://www.w3.org/2000/svg">
<path d="M11 -0.000732356L11 17.9993H9.5L3.5 13.4993H0L3.934e-07 4.49927H3.5L9.5 -0.000732422L11 -0.000732356Z" fill="#141414"/>
<path fill-rule="evenodd" clip-rule="evenodd" d="M13 8.99927C13 8.44698 12.5523 7.99927 12 7.99927V5.99927C13.6569 5.99927 15 7.34241 15 8.99927C15 10.6561 13.6569 11.9993 12 11.9993V9.99927C12.5523 9.99927 13 9.55155 13 8.99927Z" fill="#141414"/>
<path fill-rule="evenodd" clip-rule="evenodd" d="M16 8.99927C16 6.79013 14.2091 4.99927 12 4.99927V2.99927C15.3137 2.99927 18 5.68556 18 8.99927C18 12.313 15.3137 14.9993 12 14.9993V12.9993C14.2091 12.9993 16 11.2084 16 8.99927Z" fill="#141414"/>
</svg>
