<svg xmlns="http://www.w3.org/2000/svg" xmlns:xlink="http://www.w3.org/1999/xlink" version="1.1" id="Layer_1" x="0px" y="0px" width="100%" height="100%" viewBox="235.944 106.693 427.409 496.099" enable-background="new 0 0 1024 768" xml:space="preserve"  preserveAspectRatio="xMidYMid meet"><rect id="svgEditorBackground" x="0" y="0" width="1024" height="768" style="fill: none; stroke: none;"/>
<rect x="237.168" y="116.252" fill="none" width="420.643" height="486.501"/>
<rect x="577.168" y="136.497" width="39" height="39"/>
<rect x="517.668" y="321.503" width="19.5" height="19.5"/>
<rect x="419.241" y="224.253" width="19.499" height="19.5"/>
<rect x="433.834" y="116.996" width="19.498" height="19.5"/>
<g>
	<rect x="370.492" y="203.028" width="63.258" height="4.368"/>
	<polygon points="472.812,203.028 472.812,207.396 487.389,207.396 487.389,305.681 491.756,305.681 491.756,203.028  "/>
</g>
<rect x="292.493" y="253.494" width="39" height="39"/>
<rect x="331.492" y="214.496" width="38.999" height="38.998"/>
<g>
	<rect x="433.75" y="189.384" width="39.062" height="4.368"/>
</g>
<rect x="311.168" y="203.028" width="21.324" height="4.368"/>
<polygon points="291.576,234.003 295.944,234.003 295.952,222.5 291.584,222.5 "/>
<polyline fill="#FFFFFF" points="291.427,185.013 271.927,185.013 271.927,204.513 "/>
<g>
	<polygon points="274.111,204.513 269.743,204.513 269.743,182.829 291.427,182.829 291.427,187.197 274.111,187.197  "/>
</g>
<rect x="331.492" y="292.493" width="38.999" height="38.263"/>
<rect x="389.991" y="307.25" width="38.999" height="77.505"/>
<polygon points="291.334,428.856 247.513,449.108 295.857,350.564 295.929,253.494 291.562,253.494 291.49,349.55 238.168,458.239   291.334,433.669 "/>
<g>
	<polygon points="477.181,397.309 331.492,397.309 331.492,392.941 472.812,392.941 472.812,291.147 477.181,291.147  "/>
</g>
<rect x="311.992" y="419.166" width="39" height="56.587"/>
<rect x="350.991" y="404.84" width="39" height="11.413"/>
<polygon points="600.996,300.919 558.996,300.919 584.996,377.916 626.996,377.916 "/>
<polygon points="350.992,136.497 350.992,155.996 331.492,155.996 331.492,175.496 376,175.496 414.375,175.497 414.375,136.497 "/>
<polygon points="584.914,378.594 543.914,378.594 558.914,424.596 549.914,418.594 475.914,418.594 505.529,437.055 389.991,437.08   389.991,455.753 389.668,455.753 350.992,455.753 350.992,416.253 311.992,416.253 311.992,455.753 311.992,475.753   311.992,494.753 389.668,494.753 389.668,476.367 493.739,476.367 493.754,476.378 568.607,476.378 629.914,514.596 "/>
<polygon points="647.548,571.916 573.279,525.617 533.928,525.617 656.928,601.619 "/>
<polygon points="518.166,175.496 518.166,174.5 518.166,155.996 537.666,155.996 537.666,136.497 453.375,136.497 453.375,175.498   518.166,175.499 "/>
<polygon points="576.666,175.496 537.83,175.496 537.83,175.5 537.836,175.5 537.355,321.503 555.168,321.503 555.168,281.752   576.8,281.752 577.149,175.496 "/>
<polygon points="331.398,382.649 281,405.94 281,410.753 331.492,387.418 331.492,382.854 "/>
</svg>