<svg width="175" height="32" viewBox="0 0 175 32" fill="none" xmlns="http://www.w3.org/2000/svg">
<path d="M24.51 28.16H19.78V23H5.074V28.16H0.344V18.055H2.881C3.11033 17.7397 3.397 17.2093 3.741 16.464C4.11367 15.69 4.472 14.6437 4.816 13.325C5.18867 12.0063 5.504 10.3723 5.762 8.423C6.02 6.47367 6.149 4.166 6.149 1.5H21.113V18.055H24.51V28.16ZM15.523 18.313V6.23H11.008C10.9507 7.262 10.8503 8.36567 10.707 9.541C10.5637 10.6877 10.3773 11.8057 10.148 12.895C9.94733 13.9843 9.70367 15.002 9.417 15.948C9.13033 16.894 8.815 17.6823 8.471 18.313H15.523ZM42.3382 13.196L42.5532 10.143H42.4242L32.0612 23H27.6752V1.5H33.2652V11.734L33.0072 14.658H33.1792L43.5422 1.5H47.9282V23H42.3382V13.196ZM73.3244 20.936C72.1491 21.8247 70.7731 22.4983 69.1964 22.957C67.6197 23.387 65.9714 23.602 64.2514 23.602C62.3881 23.602 60.7254 23.3297 59.2634 22.785C57.8301 22.2403 56.6117 21.4807 55.6084 20.506C54.6337 19.5027 53.8884 18.2987 53.3724 16.894C52.8564 15.4893 52.5984 13.9413 52.5984 12.25C52.5984 10.444 52.8994 8.83867 53.5014 7.434C54.1034 6.02933 54.9347 4.83967 55.9954 3.865C57.0847 2.89033 58.3604 2.15933 59.8224 1.672C61.2844 1.156 62.8754 0.898 64.5954 0.898C66.2007 0.898 67.7057 1.08433 69.1104 1.457C70.5151 1.82966 71.5901 2.188 72.3354 2.532V10.1H67.6054V6.144C66.7167 5.94333 65.8281 5.843 64.9394 5.843C64.1367 5.843 63.3341 5.972 62.5314 6.23C61.7574 6.45933 61.0551 6.84633 60.4244 7.391C59.8224 7.907 59.3207 8.56633 58.9194 9.369C58.5467 10.1717 58.3604 11.132 58.3604 12.25C58.3604 13.1673 58.5181 14.013 58.8334 14.787C59.1487 15.561 59.5931 16.2347 60.1664 16.808C60.7397 17.3813 61.4421 17.84 62.2734 18.184C63.1334 18.4993 64.0794 18.657 65.1114 18.657C66.7454 18.657 68.0784 18.4277 69.1104 17.969C70.1711 17.5103 70.9594 17.109 71.4754 16.765L73.3244 20.936ZM86.4226 14.529H83.6276V23H78.0376V1.5H83.6276V10.229H85.9066L93.0016 1.5H99.3226L90.7656 11.519L96.0546 18.27H99.8386V23H93.3886L86.4226 14.529ZM112.636 16.937H114.27L118.441 1.5H124.203L118.097 20.893C117.552 22.4983 117.022 23.9603 116.506 25.279C115.99 26.6263 115.388 27.7873 114.7 28.762C114.012 29.7367 113.195 30.482 112.249 30.998C111.331 31.5427 110.199 31.815 108.852 31.815C108.192 31.815 107.562 31.729 106.96 31.557C106.386 31.385 105.856 31.17 105.369 30.912C104.881 30.6827 104.451 30.4247 104.079 30.138C103.706 29.88 103.405 29.6363 103.176 29.407L106.057 25.58C106.429 25.8953 106.874 26.182 107.39 26.44C107.906 26.7267 108.393 26.87 108.852 26.87C109.712 26.87 110.385 26.569 110.873 25.967C111.389 25.365 111.876 24.376 112.335 23H109.282L100.338 1.5H106.401L112.636 16.937ZM126.444 1.5H133.754L134.399 4.08H134.571C136.061 1.95867 138.469 0.898 141.795 0.898C143.113 0.898 144.317 1.113 145.407 1.543C146.525 1.94433 147.471 2.58933 148.245 3.478C149.047 4.36667 149.664 5.48467 150.094 6.832C150.524 8.17933 150.739 9.799 150.739 11.691C150.739 13.5257 150.495 15.1883 150.008 16.679C149.52 18.141 148.818 19.388 147.901 20.42C146.983 21.452 145.865 22.2403 144.547 22.785C143.228 23.3297 141.723 23.602 140.032 23.602C139.143 23.602 138.269 23.5303 137.409 23.387C136.549 23.2723 135.832 23.0717 135.259 22.785V31.6H129.669V6.23H126.444V1.5ZM140.118 5.628C139.028 5.628 138.025 5.90033 137.108 6.445C136.219 6.98967 135.603 7.80667 135.259 8.896V17.84C135.66 18.1553 136.233 18.4133 136.979 18.614C137.753 18.786 138.527 18.872 139.301 18.872C140.103 18.872 140.849 18.743 141.537 18.485C142.225 18.1983 142.827 17.754 143.343 17.152C143.859 16.55 144.26 15.7903 144.547 14.873C144.833 13.9557 144.977 12.852 144.977 11.562C144.977 9.67 144.518 8.208 143.601 7.176C142.683 6.144 141.522 5.628 140.118 5.628ZM174.845 20.936C173.669 21.8247 172.293 22.4983 170.717 22.957C169.14 23.387 167.492 23.602 165.772 23.602C163.908 23.602 162.246 23.3297 160.784 22.785C159.35 22.2403 158.132 21.4807 157.129 20.506C156.154 19.5027 155.409 18.2987 154.893 16.894C154.377 15.4893 154.119 13.9413 154.119 12.25C154.119 10.444 154.42 8.83867 155.022 7.434C155.624 6.02933 156.455 4.83967 157.516 3.865C158.605 2.89033 159.881 2.15933 161.343 1.672C162.805 1.156 164.396 0.898 166.116 0.898C167.721 0.898 169.226 1.08433 170.631 1.457C172.035 1.82966 173.11 2.188 173.856 2.532V10.1H169.126V6.144C168.237 5.94333 167.348 5.843 166.46 5.843C165.657 5.843 164.854 5.972 164.052 6.23C163.278 6.45933 162.575 6.84633 161.945 7.391C161.343 7.907 160.841 8.56633 160.44 9.369C160.067 10.1717 159.881 11.132 159.881 12.25C159.881 13.1673 160.038 14.013 160.354 14.787C160.669 15.561 161.113 16.2347 161.687 16.808C162.26 17.3813 162.962 17.84 163.794 18.184C164.654 18.4993 165.6 18.657 166.632 18.657C168.266 18.657 169.599 18.4277 170.631 17.969C171.691 17.5103 172.48 17.109 172.996 16.765L174.845 20.936Z" fill="black"/>
</svg>
